SplineFontDB: 1.0
FontName: THChakraPetch-Bold
FullName: THChakraPetch-Bold
FamilyName: TH Chakra Petch
Weight: Bold
Copyright: Copyright (c) 2006 by Department of Intellectual Property (DIP), Ministry of Commerce and Software Industry Promotion Agency (Public Organization) (SIPA). All rights reserved.
Version: 1.1
ItalicAngle: 0
UnderlinePosition: -35
UnderlineWidth: 30
Ascent: 800
Descent: 200
Order2: 1
XUID: [1021 375 425136265 4400732]
FSType: 0
OS2Version: 3
OS2_WeightWidthSlopeOnly: 0
OS2_UseTypoMetrics: 1
CreationTime: 1158666600
ModificationTime: 1174406018
PfmFamily: 17
TTFWeight: 700
TTFWidth: 5
LineGap: 60
VLineGap: 0
Panose: 2 0 5 6 0 0 0 2 0 4
OS2TypoAscent: 0
OS2TypoAOffset: 1
OS2TypoDescent: 0
OS2TypoDOffset: 1
OS2TypoLinegap: 0
OS2WinAscent: -3
OS2WinAOffset: 1
OS2WinDescent: -213
OS2WinDOffset: 1
HheadAscent: -3
HheadAOffset: 1
HheadDescent: 213
HheadDOffset: 1
OS2SubXSize: 700
OS2SubYSize: 650
OS2SubXOff: 0
OS2SubYOff: 140
OS2SupXSize: 700
OS2SupYSize: 650
OS2SupXOff: 0
OS2SupYOff: 477
OS2StrikeYSize: 30
OS2StrikeYPos: 250
OS2FamilyClass: 773
OS2Vendor: 'ASSA'
ScriptLang: 2
 1 latn 1 dflt 
 0 
ChainSub: coverage 0 0 'liga' 0 0 0 1
 1 0 1
  Coverage: 64 uni0E48.alt2 uni0E49.alt2 uni0E4A.alt2 uni0E4B.alt2 uni0E4C.alt2
  FCoverage: 7 uni0E33
 1
  SeqLookup: 0 'L027'
EndFPST
ChainSub: coverage 0 0 'liga' 0 0 0 1
 1 1 0
  Coverage: 7 uni0E47
  BCoverage: 12 uni0E2C.alt1
 1
  SeqLookup: 0 'L026'
EndFPST
ChainSub: coverage 0 0 'liga' 0 0 0 1
 1 0 1
  Coverage: 7 uni0E2C
  FCoverage: 39 uni0E34 uni0E35 uni0E36 uni0E37 uni0E47
 1
  SeqLookup: 0 'L026'
EndFPST
ChainSub: coverage 0 0 'liga' 0 0 0 1
 1 0 1
  Coverage: 15 uni0E0E uni0E0F
  FCoverage: 38 uni0E38.alt1 uni0E39.alt1 uni0E3A.alt1
 1
  SeqLookup: 0 'L026'
EndFPST
ChainSub: coverage 0 0 'liga' 0 0 0 1
 1 1 0
  Coverage: 5 a b c
  BCoverage: 23 uni0E1B uni0E1D uni0E1F
 1
  SeqLookup: 0 'L026'
EndFPST
ChainSub: coverage 0 0 'liga' 0 0 0 1
 1 0 1
  Coverage: 5 a b c

StartChar: .notdef
Encoding: 65536 -1 0
Width: 403
Flags: W
Fore
349 0 m 1,0,-1
 26 0 l 1,1,-1
 26 576 l 1,2,-1
 349 576 l 1,3,-1
 349 0 l 1,0,-1
296 54 m 1,4,-1
 296 522 l 1,5,-1
 80 522 l 1,6,-1
 80 54 l 1,7,-1
 296 54 l 1,4,-1
EndSplineSet
EndChar
StartChar: numbersign
Encoding: 35 35 4
Width: 372
Flags: W
Fore
313 224 m 1,0,-1
 259 224 l 1,1,-1
 249 134 l 1,2,-1
 303 134 l 1,3,-1
 298 80 l 1,4,-1
 244 80 l 1,5,-1
 235 0 l 1,6,-1
 181 0 l 1,7,-1
 190 80 l 1,8,-1
 136 80 l 1,9,-1
 127 0 l 1,10,-1
 73 0 l 1,11,-1
 82 80 l 1,12,-1
 28 80 l 1,13,-1
 34 134 l 1,14,-1
 88 134 l 1,15,-1
 97 224 l 1,16,-1
 43 224 l 1,17,-1
 49 278 l 1,18,-1
 103 278 l 1,19,-1
 111 359 l 1,20,-1
 165 359 l 1,21,-1
 157 278 l 1,22,-1
 211 278 l 1,23,-1
 219 359 l 1,24,-1
 273 359 l 1,25,-1
 265 278 l 1,26,-1
 319 278 l 1,27,-1
 313 224 l 1,0,-1
196 134 m 1,28,-1
 205 224 l 1,29,-1
 151 224 l 1,30,-1
 142 134 l 1,31,-1
 196 134 l 1,28,-1
EndSplineSet
EndChar
StartChar: dollar
Encoding: 36 36 5
Width: 385
Flags: W
Fore
332 53 m 1,0,-1
 278 0 l 1,1,-1
 206 0 l 1,2,-1
 206 -36 l 1,3,-1
 152 -36 l 1,4,-1
 152 0 l 1,5,-1
 89 0 l 1,6,-1
 35 53 l 1,7,-1
 35 98 l 1,8,-1
 89 98 l 1,9,-1
 89 76 l 1,10,-1
 111 54 l 1,11,-1
 256 54 l 1,12,-1
 278 76 l 1,13,-1
 278 148 l 1,14,-1
 256 170 l 1,15,-1
 80 170 l 1,16,-1
 26 224 l 1,17,-1
 26 342 l 1,18,-1
 80 395 l 1,19,-1
 152 395 l 1,20,-1
 152 431 l 1,21,-1
 206 431 l 1,22,-1
 206 395 l 1,23,-1
 269 395 l 1,24,-1
 323 341 l 1,25,-1
 323 296 l 1,26,-1
 269 296 l 1,27,-1
 269 319 l 1,28,-1
 247 341 l 1,29,-1
 102 341 l 1,30,-1
 80 319 l 1,31,-1
 80 247 l 1,32,-1
 102 224 l 1,33,-1
 278 224 l 1,34,-1
 332 171 l 1,35,-1
 332 53 l 1,0,-1
EndSplineSet
EndChar
StartChar: percent
Encoding: 37 37 6
Width: 461
Flags: W
Fore
150 233 m 1,0,-1
 72 233 l 1,1,-1
 30 275 l 1,2,-1
 30 353 l 1,3,-1
 72 395 l 1,4,-1
 150 395 l 1,5,-1
 192 353 l 1,6,-1
 192 275 l 1,7,-1
 150 233 l 1,0,-1
75 335 m 1,8,-1
 75 294 l 1,9,-1
 91 279 l 1,10,-1
 131 279 l 1,11,-1
 147 294 l 1,12,-1
 147 335 l 1,13,-1
 131 350 l 1,14,-1
 91 350 l 1,15,-1
 75 335 l 1,8,-1
366 197 m 1,16,-1
 408 155 l 1,17,-1
 408 78 l 1,18,-1
 366 36 l 1,19,-1
 288 36 l 1,20,-1
 246 78 l 1,21,-1
 246 155 l 1,22,-1
 288 197 l 1,23,-1
 366 197 l 1,16,-1
363 96 m 1,24,-1
 363 137 l 1,25,-1
 347 152 l 1,26,-1
 307 152 l 1,27,-1
 291 137 l 1,28,-1
 291 96 l 1,29,-1
 307 81 l 1,30,-1
 347 81 l 1,31,-1
 363 96 l 1,24,-1
311 431 m 1,32,-1
 373 431 l 1,33,-1
 128 0 l 1,34,-1
 66 0 l 1,35,-1
 311 431 l 1,32,-1
EndSplineSet
EndChar
StartChar: ampersand
Encoding: 38 38 7
Width: 421
Flags: W
Fore
367 242 m 1,0,-1
 367 188 l 1,1,-1
 331 188 l 1,2,-1
 331 53 l 1,3,-1
 277 0 l 1,4,-1
 79 0 l 1,5,-1
 25 53 l 1,6,-1
 25 188 l 1,7,-1
 61 224 l 1,8,-1
 43 242 l 1,9,-1
 43 378 l 1,10,-1
 97 431 l 1,11,-1
 259 431 l 1,12,-1
 313 377 l 1,13,-1
 313 332 l 1,14,-1
 259 332 l 1,15,-1
 259 355 l 1,16,-1
 237 377 l 1,17,-1
 119 377 l 1,18,-1
 97 355 l 1,19,-1
 97 265 l 1,20,-1
 119 242 l 1,21,-1
 277 242 l 1,22,-1
 277 269 l 1,23,-1
 331 269 l 1,24,-1
 331 242 l 1,25,-1
 367 242 l 1,0,-1
277 76 m 1,26,-1
 277 188 l 1,27,-1
 101 188 l 1,28,-1
 79 166 l 1,29,-1
 79 76 l 1,30,-1
 101 53 l 1,31,-1
 255 53 l 1,32,-1
 277 76 l 1,26,-1
EndSplineSet
EndChar
StartChar: quotesingle
Encoding: 39 39 8
Width: 136
Flags: W
Fore
36 342 m 1,0,-1
 27 432 l 1,1,-1
 81 432 l 1,2,-1
 72 342 l 1,3,-1
 36 342 l 1,0,-1
EndSplineSet
EndChar
StartChar: parenleft
Encoding: 40 40 9
Width: 187
Flags: W
Fore
80 428 m 1,0,-1
 80 5 l 1,1,-1
 102 -17 l 1,2,-1
 134 -17 l 1,3,-1
 134 -71 l 1,4,-1
 80 -71 l 1,5,-1
 26 -18 l 1,6,-1
 26 450 l 1,7,-1
 80 504 l 1,8,-1
 134 504 l 1,9,-1
 134 450 l 1,10,-1
 102 450 l 1,11,-1
 80 428 l 1,0,-1
EndSplineSet
EndChar
StartChar: parenright
Encoding: 41 41 10
Width: 161
Flags: W
Fore
54 504 m 1,0,-1
 108 450 l 1,1,-1
 108 -18 l 1,2,-1
 54 -71 l 1,3,-1
 0 -71 l 1,4,-1
 0 -17 l 1,5,-1
 32 -17 l 1,6,-1
 54 5 l 1,7,-1
 54 428 l 1,8,-1
 32 450 l 1,9,-1
 0 450 l 1,10,-1
 0 504 l 1,11,-1
 54 504 l 1,0,-1
EndSplineSet
EndChar
StartChar: asterisk
Encoding: 42 42 11
Width: 247
Flags: W
Fore
193 334 m 1,0,-1
 166 287 l 1,1,-1
 132 312 l 1,2,-1
 136 270 l 1,3,-1
 82 270 l 1,4,-1
 86 312 l 1,5,-1
 53 287 l 1,6,-1
 26 334 l 1,7,-1
 64 351 l 1,8,-1
 26 368 l 1,9,-1
 53 415 l 1,10,-1
 86 391 l 1,11,-1
 82 432 l 1,12,-1
 136 432 l 1,13,-1
 132 391 l 1,14,-1
 166 415 l 1,15,-1
 193 368 l 1,16,-1
 155 351 l 1,17,-1
 193 334 l 1,0,-1
EndSplineSet
EndChar
StartChar: plus
Encoding: 43 43 12
Width: 439
Flags: W
Fore
377 243 m 1,0,-1
 377 189 l 1,1,-1
 233 189 l 1,2,-1
 233 45 l 1,3,-1
 179 45 l 1,4,-1
 179 189 l 1,5,-1
 35 189 l 1,6,-1
 35 243 l 1,7,-1
 179 243 l 1,8,-1
 179 386 l 1,9,-1
 233 386 l 1,10,-1
 233 243 l 1,11,-1
 377 243 l 1,12,-1
 377 243 l 1,0,-1
EndSplineSet
EndChar
StartChar: comma
Encoding: 44 44 13
Width: 172
Flags: W
Fore
119 63 m 1,0,-1
 119 26 l 1,1,-1
 65 -54 l 1,2,-1
 29 -54 l 1,3,-1
 59 0 l 1,4,-1
 55 0 l 1,5,-1
 29 26 l 1,6,-1
 29 63 l 1,7,-1
 55 89 l 1,8,-1
 92 89 l 1,9,-1
 119 63 l 1,0,-1
EndSplineSet
EndChar
StartChar: hyphen
Encoding: 45 45 14
Width: 278
Flags: W
Fore
225 135 m 1,0,-1
 27 135 l 1,1,-1
 27 189 l 1,2,-1
 225 189 l 1,3,-1
 225 135 l 1,0,-1
EndSplineSet
EndChar
StartChar: period
Encoding: 46 46 15
Width: 172
Flags: W
Fore
118 63 m 1,0,-1
 118 26 l 1,1,-1
 91 0 l 1,2,-1
 54 0 l 1,3,-1
 28 26 l 1,4,-1
 28 63 l 1,5,-1
 54 89 l 1,6,-1
 91 89 l 1,7,-1
 118 63 l 1,0,-1
EndSplineSet
EndChar
StartChar: slash
Encoding: 47 47 16
Width: 360
Flags: W
Fore
245 432 m 1,0,-1
 307 432 l 1,1,-1
 62 0 l 1,2,-1
 0 0 l 1,3,-1
 245 432 l 1,0,-1
EndSplineSet
EndChar
StartChar: zero
Encoding: 48 48 17
Width: 367
Flags: W
Fore
260 432 m 1,0,-1
 314 378 l 1,1,-1
 314 54 l 1,2,-1
 260 0 l 1,3,-1
 80 0 l 1,4,-1
 26 54 l 1,5,-1
 26 378 l 1,6,-1
 80 432 l 1,7,-1
 260 432 l 1,0,-1
260 76 m 1,8,-1
 260 356 l 1,9,-1
 237 378 l 1,10,-1
 102 378 l 1,11,-1
 80 356 l 1,12,-1
 80 77 l 1,13,-1
 102 54 l 1,14,-1
 238 54 l 1,15,-1
 260 76 l 1,8,-1
EndSplineSet
EndChar
StartChar: one
Encoding: 49 49 18
Width: 203
Flags: W
Fore
96 432 m 1,0,-1
 149 432 l 1,1,-1
 149 0 l 1,2,-1
 95 0 l 1,3,-1
 95 356 l 1,4,-1
 70 331 l 1,5,-1
 32 369 l 1,6,-1
 95 432 l 1,7,-1
 96 432 l 1,8,-1
 96 432 l 1,0,-1
EndSplineSet
EndChar
StartChar: two
Encoding: 50 50 19
Width: 367
Flags: W
Fore
312 54 m 1,0,-1
 312 0 l 1,1,-1
 24 0 l 1,2,-1
 24 99 l 1,3,-1
 249 297 l 1,4,-1
 249 356 l 1,5,-1
 227 378 l 1,6,-1
 100 378 l 1,7,-1
 78 356 l 1,8,-1
 78 334 l 1,9,-1
 24 334 l 1,10,-1
 24 378 l 1,11,-1
 78 432 l 1,12,-1
 249 432 l 1,13,-1
 303 378 l 1,14,-1
 303 279 l 1,15,-1
 78 81 l 1,16,-1
 78 54 l 1,17,-1
 312 54 l 1,0,-1
EndSplineSet
EndChar
StartChar: three
Encoding: 51 51 20
Width: 367
Flags: W
Fore
260 431 m 1,0,-1
 314 377 l 1,1,-1
 314 260 l 1,2,-1
 287 234 l 1,3,-1
 314 207 l 1,4,-1
 314 54 l 1,5,-1
 260 0 l 1,6,-1
 80 0 l 1,7,-1
 26 54 l 1,8,-1
 26 99 l 1,9,-1
 80 99 l 1,10,-1
 80 76 l 1,11,-1
 102 54 l 1,12,-1
 238 54 l 1,13,-1
 260 76 l 1,14,-1
 260 185 l 1,15,-1
 238 207 l 1,16,-1
 116 207 l 1,17,-1
 116 261 l 1,18,-1
 238 261 l 1,19,-1
 260 283 l 1,20,-1
 260 355 l 1,21,-1
 238 377 l 1,22,-1
 111 377 l 1,23,-1
 89 355 l 1,24,-1
 89 333 l 1,25,-1
 35 333 l 1,26,-1
 35 377 l 1,27,-1
 89 431 l 1,28,-1
 260 431 l 1,0,-1
EndSplineSet
EndChar
StartChar: four
Encoding: 52 52 21
Width: 358
Flags: W
Fore
305 117 m 1,0,-1
 305 63 l 1,1,-1
 278 63 l 1,2,-1
 278 0 l 1,3,-1
 224 0 l 1,4,-1
 224 63 l 1,5,-1
 26 63 l 1,6,-1
 26 144 l 1,7,-1
 188 432 l 1,8,-1
 278 432 l 1,9,-1
 278 117 l 1,10,-1
 305 117 l 1,0,-1
80 117 m 1,11,-1
 224 117 l 1,12,-1
 224 378 l 1,13,-1
 214 378 l 1,14,-1
 80 139 l 1,15,-1
 80 117 l 1,11,-1
EndSplineSet
EndChar
StartChar: five
Encoding: 53 53 22
Width: 368
Flags: W
Fore
260 279 m 1,0,-1
 313 226 l 1,1,-1
 313 54 l 1,2,-1
 260 0 l 1,3,-1
 80 0 l 1,4,-1
 26 54 l 1,5,-1
 26 100 l 1,6,-1
 80 100 l 1,7,-1
 80 77 l 1,8,-1
 102 54 l 1,9,-1
 237 54 l 1,10,-1
 259 76 l 1,11,-1
 259 203 l 1,12,-1
 237 225 l 1,13,-1
 26 225 l 1,14,-1
 26 432 l 1,15,-1
 295 432 l 1,16,-1
 295 378 l 1,17,-1
 80 378 l 1,18,-1
 80 279 l 1,19,-1
 260 279 l 1,0,-1
EndSplineSet
EndChar
StartChar: six
Encoding: 54 54 23
Width: 368
Flags: W
Fore
259 280 m 1,0,-1
 313 226 l 1,1,-1
 313 54 l 1,2,-1
 260 0 l 1,3,-1
 79 0 l 1,4,-1
 25 54 l 1,5,-1
 25 378 l 1,6,-1
 79 432 l 1,7,-1
 250 432 l 1,8,-1
 304 378 l 1,9,-1
 304 334 l 1,10,-1
 250 334 l 1,11,-1
 250 356 l 1,12,-1
 228 378 l 1,13,-1
 101 378 l 1,14,-1
 79 356 l 1,15,-1
 79 280 l 1,16,-1
 259 280 l 1,0,-1
259 76 m 1,17,-1
 259 203 l 1,18,-1
 237 226 l 1,19,-1
 101 226 l 1,20,-1
 79 204 l 1,21,-1
 79 77 l 1,22,-1
 102 54 l 1,23,-1
 237 54 l 1,24,-1
 259 76 l 1,17,-1
EndSplineSet
EndChar
StartChar: seven
Encoding: 55 55 24
Width: 370
Flags: W
Fore
27 432 m 1,0,-1
 315 432 l 1,1,-1
 315 297 l 1,2,-1
 198 205 l 1,3,-1
 198 0 l 1,4,-1
 144 0 l 1,5,-1
 144 225 l 1,6,-1
 261 318 l 1,7,-1
 261 378 l 1,8,-1
 81 378 l 1,9,-1
 81 334 l 1,10,-1
 27 334 l 1,11,-1
 27 432 l 1,0,-1
EndSplineSet
EndChar
StartChar: eight
Encoding: 56 56 25
Width: 368
Flags: W
Fore
277 243 m 1,0,-1
 313 207 l 1,1,-1
 313 54 l 1,2,-1
 259 0 l 1,3,-1
 79 0 l 1,4,-1
 25 54 l 1,5,-1
 25 208 l 1,6,-1
 61 243 l 1,7,-1
 43 261 l 1,8,-1
 43 378 l 1,9,-1
 97 432 l 1,10,-1
 241 432 l 1,11,-1
 295 378 l 1,12,-1
 295 261 l 1,13,-1
 277 243 l 1,0,-1
97 356 m 1,14,-1
 97 283 l 1,15,-1
 119 261 l 1,16,-1
 219 261 l 1,17,-1
 241 283 l 1,18,-1
 241 356 l 1,19,-1
 219 378 l 1,20,-1
 119 378 l 1,21,-1
 97 356 l 1,14,-1
259 76 m 1,22,-1
 259 185 l 1,23,-1
 237 207 l 1,24,-1
 101 207 l 1,25,-1
 79 185 l 1,26,-1
 79 77 l 1,27,-1
 101 54 l 1,28,-1
 237 54 l 1,29,-1
 259 76 l 1,22,-1
EndSplineSet
EndChar
StartChar: nine
Encoding: 57 57 26
Width: 368
Flags: W
Fore
259 432 m 1,0,-1
 313 378 l 1,1,-1
 313 54 l 1,2,-1
 260 0 l 1,3,-1
 79 0 l 1,4,-1
 25 54 l 1,5,-1
 25 100 l 1,6,-1
 79 100 l 1,7,-1
 79 77 l 1,8,-1
 102 54 l 1,9,-1
 237 54 l 1,10,-1
 259 76 l 1,11,-1
 259 154 l 1,12,-1
 79 154 l 1,13,-1
 25 208 l 1,14,-1
 25 378 l 1,15,-1
 79 432 l 1,16,-1
 259 432 l 1,0,-1
259 230 m 1,17,-1
 259 356 l 1,18,-1
 237 378 l 1,19,-1
 101 378 l 1,20,-1
 79 356 l 1,21,-1
 79 230 l 1,22,-1
 102 208 l 1,23,-1
 237 208 l 1,24,-1
 259 230 l 1,17,-1
EndSplineSet
EndChar
StartChar: colon
Encoding: 58 58 27
Width: 172
Flags: W
Fore
55 90 m 1,0,-1
 92 90 l 1,1,-1
 119 63 l 1,2,-1
 119 26 l 1,3,-1
 92 0 l 1,4,-1
 55 0 l 1,5,-1
 29 26 l 1,6,-1
 29 63 l 1,7,-1
 55 90 l 1,0,-1
92 270 m 1,8,-1
 119 243 l 1,9,-1
 119 206 l 1,10,-1
 92 180 l 1,11,-1
 55 180 l 1,12,-1
 29 206 l 1,13,-1
 29 243 l 1,14,-1
 55 270 l 1,15,-1
 92 270 l 1,8,-1
EndSplineSet
EndChar
StartChar: semicolon
Encoding: 59 59 28
Width: 172
Flags: W
Fore
92 270 m 1,0,-1
 119 243 l 1,1,-1
 119 206 l 1,2,-1
 92 180 l 1,3,-1
 55 180 l 1,4,-1
 29 206 l 1,5,-1
 29 243 l 1,6,-1
 55 270 l 1,7,-1
 92 270 l 1,0,-1
55 90 m 1,8,-1
 92 90 l 1,9,-1
 119 63 l 1,10,-1
 119 26 l 1,11,-1
 65 -54 l 1,12,-1
 29 -54 l 1,13,-1
 59 0 l 1,14,-1
 55 0 l 1,15,-1
 29 26 l 1,16,-1
 29 63 l 1,17,-1
 55 90 l 1,8,-1
EndSplineSet
EndChar
StartChar: less
Encoding: 60 60 29
Width: 421
Flags: W
Fore
359 360 m 1,0,-1
 359 301 l 1,1,-1
 105 181 l 1,2,-1
 359 60 l 1,3,-1
 359 1 l 1,4,-1
 35 154 l 1,5,-1
 35 208 l 1,6,-1
 359 360 l 1,7,-1
 359 360 l 1,0,-1
EndSplineSet
EndChar
StartChar: equal
Encoding: 61 61 30
Width: 439
Flags: W
Fore
36 306 m 1,0,-1
 377 306 l 1,1,-1
 377 252 l 1,2,-1
 36 252 l 1,3,-1
 36 306 l 1,0,-1
36 126 m 1,4,-1
 36 180 l 1,5,-1
 377 180 l 1,6,-1
 377 126 l 1,7,-1
 36 126 l 1,4,-1
EndSplineSet
EndChar
StartChar: greater
Encoding: 62 62 31
Width: 421
Flags: W
Fore
35 360 m 1,0,-1
 359 208 l 1,1,-1
 359 154 l 1,2,-1
 35 1 l 1,3,-1
 35 60 l 1,4,-1
 290 181 l 1,5,-1
 35 301 l 1,6,-1
 35 360 l 1,7,-1
 35 360 l 1,0,-1
EndSplineSet
EndChar
StartChar: question
Encoding: 63 63 32
Width: 368
Flags: W
Fore
314 378 m 1,0,-1
 314 279 l 1,1,-1
 197 182 l 1,2,-1
 197 90 l 1,3,-1
 143 90 l 1,4,-1
 143 207 l 1,5,-1
 260 304 l 1,6,-1
 260 356 l 1,7,-1
 237 378 l 1,8,-1
 102 378 l 1,9,-1
 80 356 l 1,10,-1
 80 333 l 1,11,-1
 26 333 l 1,12,-1
 26 378 l 1,13,-1
 80 432 l 1,14,-1
 260 432 l 1,15,-1
 314 378 l 1,0,-1
157 63 m 1,16,-1
 183 63 l 1,17,-1
 202 45 l 1,18,-1
 202 19 l 1,19,-1
 183 0 l 1,20,-1
 157 0 l 1,21,-1
 139 19 l 1,22,-1
 139 45 l 1,23,-1
 157 63 l 1,16,-1
EndSplineSet
EndChar
StartChar: at
Encoding: 64 64 33
Width: 475
Flags: W
Fore
313 341 m 1,0,-1
 421 233 l 1,1,-1
 421 99 l 1,2,-1
 367 45 l 1,3,-1
 277 45 l 1,4,-1
 277 72 l 1,5,-1
 250 45 l 1,6,-1
 169 45 l 1,7,-1
 115 99 l 1,8,-1
 115 189 l 1,9,-1
 169 243 l 1,10,-1
 277 243 l 1,11,-1
 331 189 l 1,12,-1
 331 99 l 1,13,-1
 345 99 l 1,14,-1
 367 121 l 1,15,-1
 367 211 l 1,16,-1
 291 288 l 1,17,-1
 156 288 l 1,18,-1
 79 211 l 1,19,-1
 79 76 l 1,20,-1
 156 0 l 1,21,-1
 385 0 l 1,22,-1
 385 -54 l 1,23,-1
 133 -54 l 1,24,-1
 25 54 l 1,25,-1
 25 233 l 1,26,-1
 134 341 l 1,27,-1
 313 341 l 1,0,-1
228 99 m 1,28,-1
 277 148 l 1,29,-1
 277 166 l 1,30,-1
 255 189 l 1,31,-1
 191 189 l 1,32,-1
 169 167 l 1,33,-1
 169 121 l 1,34,-1
 192 99 l 1,35,-1
 228 99 l 1,28,-1
EndSplineSet
EndChar
StartChar: A
Encoding: 65 65 34
Width: 385
Flags: W
Fore
215 431 m 1,0,-1
 332 242 l 1,1,-1
 332 0 l 1,2,-1
 278 0 l 1,3,-1
 278 117 l 1,4,-1
 81 117 l 1,5,-1
 81 0 l 1,6,-1
 27 0 l 1,7,-1
 27 242 l 1,8,-1
 144 431 l 1,9,-1
 215 431 l 1,0,-1
81 171 m 1,10,-1
 278 171 l 1,11,-1
 278 227 l 1,12,-1
 185 377 l 1,13,-1
 174 377 l 1,14,-1
 81 227 l 1,15,-1
 81 171 l 1,10,-1
EndSplineSet
EndChar
StartChar: B
Encoding: 66 66 35
Width: 368
Flags: W
Fore
279 224 m 1,0,-1
 315 189 l 1,1,-1
 315 53 l 1,2,-1
 261 0 l 1,3,-1
 27 0 l 1,4,-1
 27 431 l 1,5,-1
 243 431 l 1,6,-1
 297 377 l 1,7,-1
 297 242 l 1,8,-1
 279 224 l 1,0,-1
221 377 m 1,9,-1
 81 377 l 1,10,-1
 81 243 l 1,11,-1
 221 243 l 1,12,-1
 243 265 l 1,13,-1
 243 355 l 1,14,-1
 221 377 l 1,9,-1
261 76 m 1,15,-1
 261 166 l 1,16,-1
 239 189 l 1,17,-1
 81 189 l 1,18,-1
 81 54 l 1,19,-1
 239 54 l 1,20,-1
 261 76 l 1,15,-1
EndSplineSet
EndChar
StartChar: C
Encoding: 67 67 36
Width: 385
Flags: W
Fore
332 332 m 1,0,-1
 278 332 l 1,1,-1
 278 355 l 1,2,-1
 256 377 l 1,3,-1
 102 377 l 1,4,-1
 80 355 l 1,5,-1
 80 76 l 1,6,-1
 102 54 l 1,7,-1
 256 54 l 1,8,-1
 278 76 l 1,9,-1
 278 99 l 1,10,-1
 332 99 l 1,11,-1
 332 53 l 1,12,-1
 278 0 l 1,13,-1
 80 0 l 1,14,-1
 26 54 l 1,15,-1
 26 378 l 1,16,-1
 80 431 l 1,17,-1
 278 431 l 1,18,-1
 332 377 l 1,19,-1
 332 332 l 1,0,-1
EndSplineSet
EndChar
StartChar: D
Encoding: 68 68 37
Width: 385
Flags: W
Fore
277 431 m 1,0,-1
 331 377 l 1,1,-1
 331 54 l 1,2,-1
 277 0 l 1,3,-1
 25 0 l 1,4,-1
 25 431 l 1,5,-1
 277 431 l 1,0,-1
277 76 m 1,6,-1
 277 355 l 1,7,-1
 255 377 l 1,8,-1
 79 377 l 1,9,-1
 79 54 l 1,10,-1
 255 54 l 1,11,-1
 277 76 l 1,6,-1
EndSplineSet
EndChar
StartChar: E
Encoding: 69 69 38
Width: 368
Flags: W
Fore
80 355 m 1,0,-1
 80 243 l 1,1,-1
 296 243 l 1,2,-1
 296 189 l 1,3,-1
 80 189 l 1,4,-1
 80 76 l 1,5,-1
 102 54 l 1,6,-1
 314 54 l 1,7,-1
 314 0 l 1,8,-1
 80 0 l 1,9,-1
 26 54 l 1,10,-1
 26 377 l 1,11,-1
 80 431 l 1,12,-1
 314 431 l 1,13,-1
 314 377 l 1,14,-1
 102 377 l 1,15,-1
 80 355 l 1,0,-1
EndSplineSet
EndChar
StartChar: F
Encoding: 70 70 39
Width: 368
Flags: W
Fore
103 377 m 1,0,-1
 81 355 l 1,1,-1
 81 243 l 1,2,-1
 296 243 l 1,3,-1
 296 189 l 1,4,-1
 81 189 l 1,5,-1
 81 0 l 1,6,-1
 27 0 l 1,7,-1
 27 377 l 1,8,-1
 81 431 l 1,9,-1
 314 431 l 1,10,-1
 314 377 l 1,11,-1
 103 377 l 1,0,-1
EndSplineSet
EndChar
StartChar: G
Encoding: 71 71 40
Width: 386
Flags: W
Fore
332 332 m 1,0,-1
 278 332 l 1,1,-1
 278 355 l 1,2,-1
 256 377 l 1,3,-1
 103 377 l 1,4,-1
 80 355 l 1,5,-1
 80 76 l 1,6,-1
 103 54 l 1,7,-1
 256 54 l 1,8,-1
 278 76 l 1,9,-1
 278 189 l 1,10,-1
 170 189 l 1,11,-1
 170 243 l 1,12,-1
 332 243 l 1,13,-1
 332 53 l 1,14,-1
 279 0 l 1,15,-1
 80 0 l 1,16,-1
 27 54 l 1,17,-1
 27 378 l 1,18,-1
 80 431 l 1,19,-1
 278 431 l 1,20,-1
 332 377 l 1,21,-1
 332 332 l 1,0,-1
EndSplineSet
EndChar
StartChar: H
Encoding: 72 72 41
Width: 385
Flags: W
Fore
277 431 m 1,0,-1
 331 431 l 1,1,-1
 331 0 l 1,2,-1
 277 0 l 1,3,-1
 277 189 l 1,4,-1
 80 189 l 1,5,-1
 80 0 l 1,6,-1
 26 0 l 1,7,-1
 26 431 l 1,8,-1
 80 431 l 1,9,-1
 80 243 l 1,10,-1
 277 243 l 1,11,-1
 277 431 l 1,0,-1
EndSplineSet
EndChar
StartChar: I
Encoding: 73 73 42
Width: 134
Flags: W
Fore
26 0 m 1,0,-1
 26 431 l 1,1,-1
 80 431 l 1,2,-1
 80 0 l 1,3,-1
 26 0 l 1,0,-1
EndSplineSet
EndChar
StartChar: J
Encoding: 74 74 43
Width: 350
Flags: W
Fore
80 126 m 1,0,-1
 80 76 l 1,1,-1
 103 54 l 1,2,-1
 220 54 l 1,3,-1
 242 76 l 1,4,-1
 242 431 l 1,5,-1
 296 431 l 1,6,-1
 296 53 l 1,7,-1
 242 0 l 1,8,-1
 80 0 l 1,9,-1
 26 54 l 1,10,-1
 26 126 l 1,11,-1
 80 126 l 1,0,-1
EndSplineSet
EndChar
StartChar: K
Encoding: 75 75 44
Width: 385
Flags: W
Fore
277 431 m 1,0,-1
 331 431 l 1,1,-1
 331 306 l 1,2,-1
 240 216 l 1,3,-1
 331 125 l 1,4,-1
 331 0 l 1,5,-1
 277 0 l 1,6,-1
 277 109 l 1,7,-1
 197 189 l 1,8,-1
 79 189 l 1,9,-1
 79 0 l 1,10,-1
 25 0 l 1,11,-1
 25 431 l 1,12,-1
 79 431 l 1,13,-1
 79 243 l 1,14,-1
 197 243 l 1,15,-1
 277 322 l 1,16,-1
 277 431 l 1,0,-1
EndSplineSet
EndChar
StartChar: L
Encoding: 76 76 45
Width: 350
Flags: W
Fore
80 54 m 1,0,-1
 296 54 l 1,1,-1
 296 0 l 1,2,-1
 26 0 l 1,3,-1
 26 431 l 1,4,-1
 80 431 l 1,5,-1
 80 54 l 1,0,-1
EndSplineSet
EndChar
StartChar: M
Encoding: 77 77 46
Width: 495
Flags: W
Fore
440 431 m 1,0,-1
 440 0 l 1,1,-1
 387 0 l 1,2,-1
 387 294 l 1,3,-1
 261 0 l 1,4,-1
 207 0 l 1,5,-1
 81 294 l 1,6,-1
 81 0 l 1,7,-1
 27 0 l 1,8,-1
 27 431 l 1,9,-1
 81 431 l 1,10,-1
 234 74 l 1,11,-1
 387 431 l 1,12,-1
 440 431 l 1,13,-1
 440 431 l 1,0,-1
EndSplineSet
EndChar
StartChar: N
Encoding: 78 78 47
Width: 386
Flags: W
Fore
278 431 m 1,0,-1
 332 431 l 1,1,-1
 332 0 l 1,2,-1
 277 0 l 1,3,-1
 80 327 l 1,4,-1
 80 0 l 1,5,-1
 26 0 l 1,6,-1
 26 431 l 1,7,-1
 80 431 l 1,8,-1
 278 103 l 1,9,-1
 278 431 l 1,0,-1
EndSplineSet
EndChar
StartChar: O
Encoding: 79 79 48
Width: 404
Flags: W
Fore
296 431 m 1,0,-1
 350 377 l 1,1,-1
 350 53 l 1,2,-1
 296 0 l 1,3,-1
 80 0 l 1,4,-1
 26 54 l 1,5,-1
 26 378 l 1,6,-1
 80 431 l 1,7,-1
 296 431 l 1,0,-1
296 76 m 1,8,-1
 296 355 l 1,9,-1
 274 377 l 1,10,-1
 102 377 l 1,11,-1
 80 355 l 1,12,-1
 80 76 l 1,13,-1
 102 54 l 1,14,-1
 274 54 l 1,15,-1
 296 76 l 1,8,-1
EndSplineSet
EndChar
StartChar: P
Encoding: 80 80 49
Width: 368
Flags: W
Fore
260 431 m 1,0,-1
 313 377 l 1,1,-1
 313 242 l 1,2,-1
 260 189 l 1,3,-1
 80 189 l 1,4,-1
 80 0 l 1,5,-1
 26 0 l 1,6,-1
 26 431 l 1,7,-1
 260 431 l 1,0,-1
259 265 m 1,8,-1
 259 355 l 1,9,-1
 237 377 l 1,10,-1
 80 377 l 1,11,-1
 80 243 l 1,12,-1
 237 243 l 1,13,-1
 259 265 l 1,8,-1
EndSplineSet
EndChar
StartChar: Q
Encoding: 81 81 50
Width: 405
Flags: W
Fore
369 -19 m 1,0,-1
 334 -54 l 1,1,-1
 280 0 l 1,2,-1
 81 0 l 1,3,-1
 27 54 l 1,4,-1
 27 378 l 1,5,-1
 81 431 l 1,6,-1
 297 431 l 1,7,-1
 351 377 l 1,8,-1
 351 53 l 1,9,-1
 324 26 l 1,10,-1
 369 -19 l 1,0,-1
81 76 m 1,11,-1
 103 54 l 1,12,-1
 275 54 l 1,13,-1
 297 76 l 1,14,-1
 297 355 l 1,15,-1
 275 377 l 1,16,-1
 103 377 l 1,17,-1
 81 355 l 1,18,-1
 81 76 l 1,11,-1
EndSplineSet
EndChar
StartChar: R
Encoding: 82 82 51
Width: 367
Flags: W
Fore
260 431 m 1,0,-1
 314 377 l 1,1,-1
 314 242 l 1,2,-1
 287 215 l 1,3,-1
 314 189 l 1,4,-1
 314 0 l 1,5,-1
 260 0 l 1,6,-1
 260 166 l 1,7,-1
 238 189 l 1,8,-1
 80 189 l 1,9,-1
 80 0 l 1,10,-1
 26 0 l 1,11,-1
 26 431 l 1,12,-1
 260 431 l 1,0,-1
260 265 m 1,13,-1
 260 355 l 1,14,-1
 238 377 l 1,15,-1
 80 377 l 1,16,-1
 80 243 l 1,17,-1
 238 243 l 1,18,-1
 260 265 l 1,13,-1
EndSplineSet
EndChar
StartChar: S
Encoding: 83 83 52
Width: 386
Flags: W
Fore
332 207 m 1,0,-1
 332 53 l 1,1,-1
 278 0 l 1,2,-1
 89 0 l 1,3,-1
 35 54 l 1,4,-1
 35 99 l 1,5,-1
 89 99 l 1,6,-1
 89 76 l 1,7,-1
 111 54 l 1,8,-1
 256 54 l 1,9,-1
 278 76 l 1,10,-1
 278 184 l 1,11,-1
 256 207 l 1,12,-1
 80 207 l 1,13,-1
 26 260 l 1,14,-1
 26 378 l 1,15,-1
 80 431 l 1,16,-1
 269 431 l 1,17,-1
 323 377 l 1,18,-1
 323 332 l 1,19,-1
 269 332 l 1,20,-1
 269 355 l 1,21,-1
 247 377 l 1,22,-1
 102 377 l 1,23,-1
 80 355 l 1,24,-1
 80 283 l 1,25,-1
 102 261 l 1,26,-1
 278 261 l 1,27,-1
 332 207 l 1,0,-1
EndSplineSet
EndChar
StartChar: T
Encoding: 84 84 53
Width: 387
Flags: W
Fore
333 431 m 1,0,-1
 333 377 l 1,1,-1
 208 377 l 1,2,-1
 208 0 l 1,3,-1
 154 0 l 1,4,-1
 154 377 l 1,5,-1
 28 377 l 1,6,-1
 28 431 l 1,7,-1
 333 431 l 1,0,-1
EndSplineSet
EndChar
StartChar: U
Encoding: 85 85 54
Width: 388
Flags: W
Fore
81 0 m 1,0,-1
 27 54 l 1,1,-1
 27 431 l 1,2,-1
 81 431 l 1,3,-1
 81 76 l 1,4,-1
 103 54 l 1,5,-1
 257 54 l 1,6,-1
 279 76 l 1,7,-1
 279 431 l 1,8,-1
 333 431 l 1,9,-1
 333 53 l 1,10,-1
 279 0 l 1,11,-1
 81 0 l 1,0,-1
EndSplineSet
EndChar
StartChar: V
Encoding: 86 86 55
Width: 386
Flags: W
Fore
278 431 m 1,0,-1
 332 431 l 1,1,-1
 332 189 l 1,2,-1
 215 0 l 1,3,-1
 143 0 l 1,4,-1
 26 189 l 1,5,-1
 26 431 l 1,6,-1
 80 431 l 1,7,-1
 80 205 l 1,8,-1
 173 54 l 1,9,-1
 184 54 l 1,10,-1
 278 205 l 1,11,-1
 278 431 l 1,0,-1
EndSplineSet
EndChar
StartChar: W
Encoding: 87 87 56
Width: 529
Flags: W
Fore
422 431 m 1,0,-1
 476 431 l 1,1,-1
 476 188 l 1,2,-1
 386 0 l 1,3,-1
 314 0 l 1,4,-1
 251 132 l 1,5,-1
 188 0 l 1,6,-1
 116 0 l 1,7,-1
 26 189 l 1,8,-1
 26 431 l 1,9,-1
 80 431 l 1,10,-1
 80 201 l 1,11,-1
 152 50 l 1,12,-1
 224 200 l 1,13,-1
 224 431 l 1,14,-1
 278 431 l 1,15,-1
 278 201 l 1,16,-1
 350 50 l 1,17,-1
 422 200 l 1,18,-1
 422 431 l 1,0,-1
EndSplineSet
EndChar
StartChar: X
Encoding: 88 88 57
Width: 386
Flags: W
Fore
278 431 m 1,0,-1
 332 431 l 1,1,-1
 332 307 l 1,2,-1
 241 216 l 1,3,-1
 332 125 l 1,4,-1
 332 0 l 1,5,-1
 278 0 l 1,6,-1
 278 109 l 1,7,-1
 198 189 l 1,8,-1
 160 189 l 1,9,-1
 80 109 l 1,10,-1
 80 0 l 1,11,-1
 26 0 l 1,12,-1
 26 125 l 1,13,-1
 117 216 l 1,14,-1
 26 307 l 1,15,-1
 26 431 l 1,16,-1
 80 431 l 1,17,-1
 80 323 l 1,18,-1
 160 243 l 1,19,-1
 198 243 l 1,20,-1
 278 323 l 1,21,-1
 278 431 l 1,0,-1
EndSplineSet
EndChar
StartChar: Y
Encoding: 89 89 58
Width: 386
Flags: W
Fore
278 431 m 1,0,-1
 332 431 l 1,1,-1
 332 296 l 1,2,-1
 206 197 l 1,3,-1
 206 0 l 1,4,-1
 152 0 l 1,5,-1
 152 198 l 1,6,-1
 26 297 l 1,7,-1
 26 431 l 1,8,-1
 80 431 l 1,9,-1
 80 323 l 1,10,-1
 179 245 l 1,11,-1
 278 323 l 1,12,-1
 278 431 l 1,0,-1
EndSplineSet
EndChar
StartChar: Z
Encoding: 90 90 59
Width: 386
Flags: W
Fore
27 431 m 1,0,-1
 332 431 l 1,1,-1
 332 333 l 1,2,-1
 81 76 l 1,3,-1
 81 54 l 1,4,-1
 332 54 l 1,5,-1
 332 0 l 1,6,-1
 27 0 l 1,7,-1
 27 99 l 1,8,-1
 278 355 l 1,9,-1
 278 377 l 1,10,-1
 27 377 l 1,11,-1
 27 431 l 1,0,-1
EndSplineSet
EndChar
StartChar: bracketleft
Encoding: 91 91 60
Width: 189
Flags: W
Fore
135 450 m 1,0,-1
 81 450 l 1,1,-1
 81 -17 l 1,2,-1
 135 -17 l 1,3,-1
 135 -71 l 1,4,-1
 27 -71 l 1,5,-1
 27 504 l 1,6,-1
 135 504 l 1,7,-1
 135 450 l 1,0,-1
EndSplineSet
EndChar
StartChar: backslash
Encoding: 92 92 61
Width: 360
Flags: W
Fore
0 431 m 1,0,-1
 62 431 l 1,1,-1
 307 0 l 1,2,-1
 245 0 l 1,3,-1
 0 431 l 1,0,-1
EndSplineSet
EndChar
StartChar: bracketright
Encoding: 93 93 62
Width: 161
Flags: W
Fore
0 504 m 1,0,-1
 108 504 l 1,1,-1
 108 -71 l 1,2,-1
 0 -71 l 1,3,-1
 0 -17 l 1,4,-1
 54 -17 l 1,5,-1
 54 450 l 1,6,-1
 0 450 l 1,7,-1
 0 504 l 1,0,-1
EndSplineSet
EndChar
StartChar: asciicircum
Encoding: 94 94 63
Width: 444
Flags: W
Fore
246 432 m 1,0,-1
 389 145 l 1,1,-1
 329 145 l 1,2,-1
 212 378 l 1,3,-1
 206 378 l 1,4,-1
 89 145 l 1,5,-1
 29 145 l 1,6,-1
 173 432 l 1,7,-1
 246 432 l 1,0,-1
EndSplineSet
EndChar
StartChar: underscore
Encoding: 95 95 64
Width: 388
Flags: W
Fore
334 -98 m 1,0,-1
 28 -98 l 1,1,-1
 28 -44 l 1,2,-1
 334 -44 l 1,3,-1
 334 -98 l 1,4,-1
 334 -98 l 1,0,-1
EndSplineSet
EndChar
StartChar: grave
Encoding: 96 96 65
Width: 165
Flags: W
Fore
75 343 m 1,0,-1
 21 432 l 1,1,-1
 84 432 l 1,2,-1
 111 343 l 1,3,-1
 75 343 l 1,0,-1
EndSplineSet
EndChar
StartChar: a
Encoding: 97 97 66
Width: 388
Flags: W
Fore
280 305 m 1,0,-1
 334 252 l 1,1,-1
 334 0 l 1,2,-1
 280 0 l 1,3,-1
 280 54 l 1,4,-1
 226 0 l 1,5,-1
 82 0 l 1,6,-1
 28 54 l 1,7,-1
 28 135 l 1,8,-1
 82 189 l 1,9,-1
 280 189 l 1,10,-1
 280 229 l 1,11,-1
 258 251 l 1,12,-1
 105 251 l 1,13,-1
 82 229 l 1,14,-1
 82 206 l 1,15,-1
 28 206 l 1,16,-1
 28 252 l 1,17,-1
 82 305 l 1,18,-1
 280 305 l 1,0,-1
210 54 m 1,19,-1
 280 124 l 1,20,-1
 280 135 l 1,21,-1
 105 135 l 1,22,-1
 82 112 l 1,23,-1
 82 76 l 1,24,-1
 105 54 l 1,25,-1
 210 54 l 1,19,-1
EndSplineSet
Substitution: 0 65534 'L026' uni0E38
Substitution: 0 65534 'L026' uni0E38
EndChar
StartChar: b
Encoding: 98 98 67
Width: 388
Flags: W
Fore
334 252 m 1,0,-1
 334 53 l 1,1,-1
 281 0 l 1,2,-1
 83 0 l 1,3,-1
 29 54 l 1,4,-1
 29 431 l 1,5,-1
 83 431 l 1,6,-1
 83 251 l 1,7,-1
 136 305 l 1,8,-1
 280 305 l 1,9,-1
 334 252 l 1,0,-1
258 54 m 1,10,-1
 280 76 l 1,11,-1
 280 229 l 1,12,-1
 258 251 l 1,13,-1
 153 251 l 1,14,-1
 83 181 l 1,15,-1
 83 76 l 1,16,-1
 105 54 l 1,17,-1
 258 54 l 1,10,-1
EndSplineSet
Substitution: 0 65534 'L026' uni0E39
Substitution: 0 65534 'L026' uni0E39
EndChar
StartChar: c
Encoding: 99 99 68
Width: 387
Flags: W
Fore
333 206 m 1,0,-1
 279 206 l 1,1,-1
 279 229 l 1,2,-1
 257 251 l 1,3,-1
 103 251 l 1,4,-1
 81 229 l 1,5,-1
 81 76 l 1,6,-1
 104 54 l 1,7,-1
 257 54 l 1,8,-1
 279 76 l 1,9,-1
 279 99 l 1,10,-1
 333 99 l 1,11,-1
 333 53 l 1,12,-1
 280 0 l 1,13,-1
 81 0 l 1,14,-1
 27 54 l 1,15,-1
 27 252 l 1,16,-1
 81 305 l 1,17,-1
 279 305 l 1,18,-1
 333 252 l 1,19,-1
 333 206 l 1,0,-1
EndSplineSet
Substitution: 0 65534 'L026' uni0E3A
Substitution: 0 65534 'L026' uni0E3A
EndChar
StartChar: d
Encoding: 100 100 69
Width: 387
Flags: W
Fore
279 431 m 1,0,-1
 333 431 l 1,1,-1
 333 54 l 1,2,-1
 279 0 l 1,3,-1
 81 0 l 1,4,-1
 27 53 l 1,5,-1
 27 252 l 1,6,-1
 81 305 l 1,7,-1
 225 305 l 1,8,-1
 279 251 l 1,9,-1
 279 431 l 1,0,-1
257 54 m 1,10,-1
 279 76 l 1,11,-1
 279 181 l 1,12,-1
 209 251 l 1,13,-1
 104 251 l 1,14,-1
 81 229 l 1,15,-1
 81 76 l 1,16,-1
 103 54 l 1,17,-1
 257 54 l 1,10,-1
EndSplineSet
EndChar
StartChar: e
Encoding: 101 101 70
Width: 386
Flags: W
Fore
279 305 m 1,0,-1
 333 252 l 1,1,-1
 333 135 l 1,2,-1
 81 135 l 1,3,-1
 81 76 l 1,4,-1
 103 54 l 1,5,-1
 257 54 l 1,6,-1
 279 76 l 1,7,-1
 279 99 l 1,8,-1
 333 99 l 1,9,-1
 333 53 l 1,10,-1
 279 0 l 1,11,-1
 81 0 l 1,12,-1
 27 54 l 1,13,-1
 27 252 l 1,14,-1
 81 305 l 1,15,-1
 279 305 l 1,0,-1
81 189 m 1,16,-1
 279 189 l 1,17,-1
 279 229 l 1,18,-1
 257 251 l 1,19,-1
 103 251 l 1,20,-1
 81 229 l 1,21,-1
 81 189 l 1,16,-1
EndSplineSet
EndChar
StartChar: f
Encoding: 102 102 71
Width: 224
Flags: W
Fore
103 377 m 1,0,-1
 81 355 l 1,1,-1
 81 278 l 1,2,-1
 171 278 l 1,3,-1
 171 224 l 1,4,-1
 81 224 l 1,5,-1
 81 0 l 1,6,-1
 27 0 l 1,7,-1
 27 378 l 1,8,-1
 80 431 l 1,9,-1
 171 431 l 1,10,-1
 171 377 l 1,11,-1
 103 377 l 1,0,-1
EndSplineSet
EndChar
StartChar: g
Encoding: 103 103 72
Width: 390
Flags: W
Fore
337 252 m 1,0,-1
 337 -73 l 1,1,-1
 283 -126 l 1,2,-1
 175 -126 l 1,3,-1
 175 -72 l 1,4,-1
 261 -72 l 1,5,-1
 283 -50 l 1,6,-1
 283 54 l 1,7,-1
 229 0 l 1,8,-1
 85 0 l 1,9,-1
 32 54 l 1,10,-1
 31 252 l 1,11,-1
 85 305 l 1,12,-1
 283 305 l 1,13,-1
 337 252 l 1,0,-1
213 54 m 1,14,-1
 283 124 l 1,15,-1
 283 229 l 1,16,-1
 261 251 l 1,17,-1
 107 251 l 1,18,-1
 85 229 l 1,19,-1
 85 76 l 1,20,-1
 108 54 l 1,21,-1
 213 54 l 1,14,-1
EndSplineSet
EndChar
StartChar: h
Encoding: 104 104 73
Width: 371
Flags: W
Fore
263 305 m 1,0,-1
 317 252 l 1,1,-1
 317 0 l 1,2,-1
 263 0 l 1,3,-1
 263 229 l 1,4,-1
 241 251 l 1,5,-1
 154 251 l 1,6,-1
 83 181 l 1,7,-1
 83 0 l 1,8,-1
 29 0 l 1,9,-1
 29 431 l 1,10,-1
 83 431 l 1,11,-1
 83 251 l 1,12,-1
 137 305 l 1,13,-1
 263 305 l 1,0,-1
EndSplineSet
EndChar
StartChar: i
Encoding: 105 105 74
Width: 137
Flags: W
Fore
29 0 m 1,0,-1
 29 305 l 1,1,-1
 83 305 l 1,2,-1
 83 0 l 1,3,-1
 29 0 l 1,0,-1
69 392 m 1,4,-1
 88 374 l 1,5,-1
 88 348 l 1,6,-1
 69 329 l 1,7,-1
 43 329 l 1,8,-1
 25 348 l 1,9,-1
 25 374 l 1,10,-1
 43 392 l 1,11,-1
 69 392 l 1,4,-1
EndSplineSet
EndChar
StartChar: j
Encoding: 106 106 75
Width: 170
Flags: W
Fore
62 -50 m 1,0,-1
 62 305 l 1,1,-1
 116 305 l 1,2,-1
 116 -73 l 1,3,-1
 62 -126 l 1,4,-1
 -46 -126 l 1,5,-1
 -46 -72 l 1,6,-1
 40 -72 l 1,7,-1
 62 -50 l 1,0,-1
102 392 m 1,8,-1
 121 374 l 1,9,-1
 121 348 l 1,10,-1
 102 329 l 1,11,-1
 76 329 l 1,12,-1
 58 348 l 1,13,-1
 58 374 l 1,14,-1
 76 392 l 1,15,-1
 102 392 l 1,8,-1
EndSplineSet
EndChar
StartChar: k
Encoding: 107 107 76
Width: 371
Flags: W
Fore
264 305 m 1,0,-1
 318 305 l 1,1,-1
 318 243 l 1,2,-1
 227 153 l 1,3,-1
 318 62 l 1,4,-1
 318 0 l 1,5,-1
 264 0 l 1,6,-1
 264 46 l 1,7,-1
 184 126 l 1,8,-1
 84 126 l 1,9,-1
 84 0 l 1,10,-1
 30 0 l 1,11,-1
 30 431 l 1,12,-1
 84 431 l 1,13,-1
 84 180 l 1,14,-1
 184 180 l 1,15,-1
 264 259 l 1,16,-1
 264 305 l 1,0,-1
EndSplineSet
EndChar
StartChar: l
Encoding: 108 108 77
Width: 137
Flags: W
Fore
30 0 m 1,0,-1
 30 431 l 1,1,-1
 84 431 l 1,2,-1
 84 0 l 1,3,-1
 30 0 l 1,0,-1
EndSplineSet
EndChar
StartChar: m
Encoding: 109 109 78
Width: 496
Flags: W
Fore
388 305 m 1,0,-1
 441 252 l 1,1,-1
 441 0 l 1,2,-1
 387 0 l 1,3,-1
 387 229 l 1,4,-1
 365 251 l 1,5,-1
 284 251 l 1,6,-1
 262 229 l 1,7,-1
 262 0 l 1,8,-1
 208 0 l 1,9,-1
 208 229 l 1,10,-1
 185 251 l 1,11,-1
 152 251 l 1,12,-1
 82 181 l 1,13,-1
 82 0 l 1,14,-1
 28 0 l 1,15,-1
 28 305 l 1,16,-1
 82 305 l 1,17,-1
 82 251 l 1,18,-1
 136 305 l 1,19,-1
 208 305 l 1,20,-1
 234 279 l 1,21,-1
 261 305 l 1,22,-1
 388 305 l 1,0,-1
EndSplineSet
EndChar
StartChar: n
Encoding: 110 110 79
Width: 369
Flags: W
Fore
261 305 m 1,0,-1
 315 252 l 1,1,-1
 315 0 l 1,2,-1
 261 0 l 1,3,-1
 261 229 l 1,4,-1
 239 251 l 1,5,-1
 152 251 l 1,6,-1
 81 181 l 1,7,-1
 81 0 l 1,8,-1
 27 0 l 1,9,-1
 27 305 l 1,10,-1
 81 305 l 1,11,-1
 81 251 l 1,12,-1
 135 305 l 1,13,-1
 261 305 l 1,0,-1
EndSplineSet
EndChar
StartChar: o
Encoding: 111 111 80
Width: 401
Flags: W
Fore
286 306 m 1,0,-1
 340 252 l 1,1,-1
 340 54 l 1,2,-1
 286 0 l 1,3,-1
 88 0 l 1,4,-1
 34 54 l 1,5,-1
 34 252 l 1,6,-1
 88 306 l 1,7,-1
 286 306 l 1,0,-1
286 76 m 1,8,-1
 286 230 l 1,9,-1
 263 252 l 1,10,-1
 110 252 l 1,11,-1
 88 230 l 1,12,-1
 88 77 l 1,13,-1
 110 54 l 1,14,-1
 264 54 l 1,15,-1
 286 76 l 1,8,-1
EndSplineSet
EndChar
StartChar: p
Encoding: 112 112 81
Width: 385
Flags: W
Fore
278 305 m 1,0,-1
 332 252 l 1,1,-1
 332 53 l 1,2,-1
 278 0 l 1,3,-1
 80 0 l 1,4,-1
 80 -126 l 1,5,-1
 26 -126 l 1,6,-1
 26 252 l 1,7,-1
 80 305 l 1,8,-1
 278 305 l 1,0,-1
278 76 m 1,9,-1
 278 229 l 1,10,-1
 256 251 l 1,11,-1
 102 251 l 1,12,-1
 80 229 l 1,13,-1
 80 54 l 1,14,-1
 256 54 l 1,15,-1
 278 76 l 1,9,-1
EndSplineSet
EndChar
StartChar: q
Encoding: 113 113 82
Width: 386
Flags: W
Fore
332 252 m 1,0,-1
 332 -126 l 1,1,-1
 278 -126 l 1,2,-1
 278 0 l 1,3,-1
 80 0 l 1,4,-1
 27 53 l 1,5,-1
 27 252 l 1,6,-1
 80 305 l 1,7,-1
 279 305 l 1,8,-1
 332 252 l 1,0,-1
103 54 m 1,9,-1
 278 54 l 1,10,-1
 278 229 l 1,11,-1
 256 251 l 1,12,-1
 103 251 l 1,13,-1
 80 229 l 1,14,-1
 80 76 l 1,15,-1
 103 54 l 1,9,-1
EndSplineSet
EndChar
StartChar: r
Encoding: 114 114 83
Width: 295
Flags: W
Fore
242 251 m 1,0,-1
 150 251 l 1,1,-1
 80 181 l 1,2,-1
 80 0 l 1,3,-1
 26 0 l 1,4,-1
 26 305 l 1,5,-1
 80 305 l 1,6,-1
 80 251 l 1,7,-1
 134 305 l 1,8,-1
 242 305 l 1,9,-1
 242 251 l 1,0,-1
EndSplineSet
EndChar
StartChar: s
Encoding: 115 115 84
Width: 386
Flags: W
Fore
332 126 m 1,0,-1
 332 53 l 1,1,-1
 279 0 l 1,2,-1
 90 0 l 1,3,-1
 36 54 l 1,4,-1
 36 99 l 1,5,-1
 90 99 l 1,6,-1
 90 76 l 1,7,-1
 112 54 l 1,8,-1
 256 54 l 1,9,-1
 278 76 l 1,10,-1
 278 103 l 1,11,-1
 256 126 l 1,12,-1
 81 126 l 1,13,-1
 27 179 l 1,14,-1
 27 252 l 1,15,-1
 80 305 l 1,16,-1
 270 305 l 1,17,-1
 323 252 l 1,18,-1
 323 206 l 1,19,-1
 269 206 l 1,20,-1
 269 229 l 1,21,-1
 247 251 l 1,22,-1
 103 251 l 1,23,-1
 81 229 l 1,24,-1
 81 202 l 1,25,-1
 103 180 l 1,26,-1
 279 180 l 1,27,-1
 332 126 l 1,0,-1
EndSplineSet
EndChar
StartChar: t
Encoding: 116 116 85
Width: 222
Flags: W
Fore
169 260 m 1,0,-1
 81 260 l 1,1,-1
 81 76 l 1,2,-1
 103 54 l 1,3,-1
 169 54 l 1,4,-1
 169 0 l 1,5,-1
 80 0 l 1,6,-1
 27 53 l 1,7,-1
 27 431 l 1,8,-1
 81 431 l 1,9,-1
 81 314 l 1,10,-1
 169 314 l 1,11,-1
 169 260 l 1,0,-1
EndSplineSet
EndChar
StartChar: u
Encoding: 117 117 86
Width: 368
Flags: W
Fore
261 305 m 1,0,-1
 315 305 l 1,1,-1
 315 0 l 1,2,-1
 261 0 l 1,3,-1
 261 54 l 1,4,-1
 207 0 l 1,5,-1
 81 0 l 1,6,-1
 27 54 l 1,7,-1
 27 305 l 1,8,-1
 81 305 l 1,9,-1
 81 76 l 1,10,-1
 103 54 l 1,11,-1
 190 54 l 1,12,-1
 261 124 l 1,13,-1
 261 305 l 1,0,-1
EndSplineSet
EndChar
StartChar: v
Encoding: 118 118 87
Width: 352
Flags: W
Fore
244 305 m 1,0,-1
 297 305 l 1,1,-1
 297 126 l 1,2,-1
 199 0 l 1,3,-1
 127 0 l 1,4,-1
 28 126 l 1,5,-1
 28 305 l 1,6,-1
 82 305 l 1,7,-1
 82 130 l 1,8,-1
 149 45 l 1,9,-1
 176 45 l 1,10,-1
 244 130 l 1,11,-1
 244 305 l 1,0,-1
EndSplineSet
EndChar
StartChar: w
Encoding: 119 119 88
Width: 495
Flags: W
Fore
387 305 m 1,0,-1
 441 305 l 1,1,-1
 441 126 l 1,2,-1
 359 0 l 1,3,-1
 288 0 l 1,4,-1
 234 83 l 1,5,-1
 180 0 l 1,6,-1
 108 0 l 1,7,-1
 27 126 l 1,8,-1
 27 305 l 1,9,-1
 81 305 l 1,10,-1
 81 125 l 1,11,-1
 127 54 l 1,12,-1
 161 54 l 1,13,-1
 207 125 l 1,14,-1
 207 305 l 1,15,-1
 261 305 l 1,16,-1
 261 124 l 1,17,-1
 306 54 l 1,18,-1
 341 54 l 1,19,-1
 387 125 l 1,20,-1
 387 305 l 1,0,-1
EndSplineSet
EndChar
StartChar: x
Encoding: 120 120 89
Width: 386
Flags: W
Fore
279 305 m 1,0,-1
 333 305 l 1,1,-1
 333 243 l 1,2,-1
 242 153 l 1,3,-1
 333 62 l 1,4,-1
 333 0 l 1,5,-1
 279 0 l 1,6,-1
 279 46 l 1,7,-1
 199 126 l 1,8,-1
 161 126 l 1,9,-1
 81 46 l 1,10,-1
 81 0 l 1,11,-1
 27 0 l 1,12,-1
 27 62 l 1,13,-1
 118 153 l 1,14,-1
 27 243 l 1,15,-1
 27 305 l 1,16,-1
 81 305 l 1,17,-1
 81 259 l 1,18,-1
 161 180 l 1,19,-1
 199 180 l 1,20,-1
 279 259 l 1,21,-1
 279 305 l 1,0,-1
EndSplineSet
EndChar
StartChar: y
Encoding: 121 121 90
Width: 386
Flags: W
Fore
332 305 m 1,0,-1
 332 -73 l 1,1,-1
 278 -126 l 1,2,-1
 170 -126 l 1,3,-1
 170 -72 l 1,4,-1
 256 -72 l 1,5,-1
 278 -50 l 1,6,-1
 278 54 l 1,7,-1
 224 0 l 1,8,-1
 80 0 l 1,9,-1
 26 54 l 1,10,-1
 26 305 l 1,11,-1
 80 305 l 1,12,-1
 80 76 l 1,13,-1
 102 54 l 1,14,-1
 208 54 l 1,15,-1
 278 124 l 1,16,-1
 278 305 l 1,17,-1
 332 305 l 1,0,-1
EndSplineSet
EndChar
StartChar: z
Encoding: 122 122 91
Width: 381
Flags: W
Fore
22 305 m 1,0,-1
 328 305 l 1,1,-1
 328 224 l 1,2,-1
 85 67 l 1,3,-1
 85 54 l 1,4,-1
 328 54 l 1,5,-1
 328 0 l 1,6,-1
 22 0 l 1,7,-1
 22 81 l 1,8,-1
 265 237 l 1,9,-1
 265 251 l 1,10,-1
 22 251 l 1,11,-1
 22 305 l 1,0,-1
EndSplineSet
EndChar
StartChar: braceleft
Encoding: 123 123 92
Width: 245
Flags: W
Fore
137 430 m 1,0,-1
 137 250 l 1,1,-1
 105 218 l 1,2,-1
 137 187 l 1,3,-1
 137 7 l 1,4,-1
 159 -16 l 1,5,-1
 191 -16 l 1,6,-1
 191 -70 l 1,7,-1
 137 -70 l 1,8,-1
 83 -16 l 1,9,-1
 83 164 l 1,10,-1
 29 218 l 1,11,-1
 83 272 l 1,12,-1
 83 452 l 1,13,-1
 137 506 l 1,14,-1
 191 506 l 1,15,-1
 191 452 l 1,16,-1
 159 452 l 1,17,-1
 137 430 l 1,0,-1
EndSplineSet
EndChar
StartChar: bar
Encoding: 124 124 93
Width: 134
Flags: W
Fore
27 -124 m 1,0,-1
 27 524 l 1,1,-1
 81 524 l 1,2,-1
 81 -124 l 1,3,-1
 27 -124 l 1,0,-1
EndSplineSet
EndChar
StartChar: braceright
Encoding: 125 125 94
Width: 215
Flags: W
Fore
108 272 m 1,0,-1
 161 218 l 1,1,-1
 108 164 l 1,2,-1
 108 -16 l 1,3,-1
 54 -70 l 1,4,-1
 0 -70 l 1,5,-1
 0 -16 l 1,6,-1
 31 -16 l 1,7,-1
 54 7 l 1,8,-1
 54 186 l 1,9,-1
 85 218 l 1,10,-1
 54 250 l 1,11,-1
 54 430 l 1,12,-1
 31 452 l 1,13,-1
 0 452 l 1,14,-1
 0 506 l 1,15,-1
 54 506 l 1,16,-1
 108 452 l 1,17,-1
 108 272 l 1,0,-1
EndSplineSet
EndChar
StartChar: asciitilde
Encoding: 126 126 95
Width: 388
Flags: W
Fore
281 317 m 1,0,-1
 335 317 l 1,1,-1
 335 263 l 1,2,-1
 281 209 l 1,3,-1
 227 209 l 1,4,-1
 123 263 l 1,5,-1
 105 263 l 1,6,-1
 83 241 l 1,7,-1
 83 209 l 1,8,-1
 29 209 l 1,9,-1
 29 263 l 1,10,-1
 83 317 l 1,11,-1
 137 317 l 1,12,-1
 240 263 l 1,13,-1
 259 263 l 1,14,-1
 281 285 l 1,15,-1
 281 317 l 1,0,-1
EndSplineSet
EndChar
StartChar: uni0E33.alt1
Encoding: 65539 -1 96
Width: 368
Flags: W
Fore
260 396 m 1,0,-1
 314 342 l 1,1,-1
 314 0 l 1,2,-1
 260 0 l 1,3,-1
 260 320 l 1,4,-1
 238 342 l 1,5,-1
 102 342 l 1,6,-1
 80 319 l 1,7,-1
 80 297 l 1,8,-1
 26 297 l 1,9,-1
 26 342 l 1,10,-1
 80 396 l 1,11,-1
 260 396 l 1,0,-1
-249 599 m 1,12,-1
 -190 599 l 1,13,-1
 -148 557 l 1,14,-1
 -148 497 l 1,15,-1
 -190 455 l 1,16,-1
 -249 455 l 1,17,-1
 -292 497 l 1,18,-1
 -292 557 l 1,19,-1
 -249 599 l 1,12,-1
-193 516 m 1,20,-1
 -193 538 l 1,21,-1
 -208 554 l 1,22,-1
 -231 554 l 1,23,-1
 -246 538 l 1,24,-1
 -246 516 l 1,25,-1
 -231 500 l 1,26,-1
 -208 500 l 1,27,-1
 -193 516 l 1,20,-1
EndSplineSet
EndChar
StartChar: quotedbl
Encoding: 34 34 97
Width: 216
Flags: W
Fore
36 342 m 1,0,-1
 27 432 l 1,1,-1
 81 432 l 1,2,-1
 72 342 l 1,3,-1
 36 342 l 1,0,-1
108 432 m 1,4,-1
 162 432 l 1,5,-1
 153 342 l 1,6,-1
 117 342 l 1,7,-1
 108 432 l 1,4,-1
EndSplineSet
EndChar
StartChar: exclam
Encoding: 33 33 98
Width: 147
Flags: W
Fore
48 62 m 1,0,-1
 74 62 l 1,1,-1
 93 44 l 1,2,-1
 93 18 l 1,3,-1
 74 0 l 1,4,-1
 48 0 l 1,5,-1
 30 18 l 1,6,-1
 30 44 l 1,7,-1
 48 62 l 1,0,-1
84 89 m 1,8,-1
 39 89 l 1,9,-1
 30 431 l 1,10,-1
 93 431 l 1,11,-1
 84 89 l 1,8,-1
EndSplineSet
EndChar
StartChar: uni0E4E.alt1
Encoding: 65540 -1 99
Width: 0
Flags: W
Fore
-274 626 m 1,0,-1
 -193 626 l 1,1,-1
 -193 572 l 1,2,-1
 -252 572 l 1,3,-1
 -256 568 l 1,4,-1
 -256 509 l 1,5,-1
 -315 509 l 1,6,-1
 -319 505 l 1,7,-1
 -319 455 l 1,8,-1
 -373 455 l 1,9,-1
 -373 527 l 1,10,-1
 -337 563 l 1,11,-1
 -310 563 l 1,12,-1
 -310 590 l 1,13,-1
 -274 626 l 1,14,-1
 -274 626 l 1,0,-1
EndSplineSet
EndChar
StartChar: exclamdown
Encoding: 161 161 100
Width: 145
Flags: W
Fore
73 306 m 1,0,-1
 91 287 l 1,1,-1
 91 261 l 1,2,-1
 73 243 l 1,3,-1
 47 243 l 1,4,-1
 28 261 l 1,5,-1
 28 287 l 1,6,-1
 47 306 l 1,7,-1
 73 306 l 1,0,-1
37 216 m 1,8,-1
 82 216 l 1,9,-1
 91 -126 l 1,10,-1
 28 -126 l 1,11,-1
 37 216 l 1,8,-1
EndSplineSet
EndChar
StartChar: cent
Encoding: 162 162 101
Width: 350
Flags: W
Fore
296 297 m 1,0,-1
 242 297 l 1,1,-1
 242 320 l 1,2,-1
 220 342 l 1,3,-1
 102 342 l 1,4,-1
 80 320 l 1,5,-1
 80 76 l 1,6,-1
 102 54 l 1,7,-1
 220 54 l 1,8,-1
 242 76 l 1,9,-1
 242 99 l 1,10,-1
 296 99 l 1,11,-1
 296 54 l 1,12,-1
 242 0 l 1,13,-1
 188 0 l 1,14,-1
 188 -36 l 1,15,-1
 134 -36 l 1,16,-1
 134 0 l 1,17,-1
 80 0 l 1,18,-1
 26 54 l 1,19,-1
 26 342 l 1,20,-1
 80 396 l 1,21,-1
 134 396 l 1,22,-1
 134 432 l 1,23,-1
 188 432 l 1,24,-1
 188 396 l 1,25,-1
 242 396 l 1,26,-1
 296 342 l 1,27,-1
 296 297 l 1,0,-1
EndSplineSet
EndChar
StartChar: sterling
Encoding: 163 163 102
Width: 403
Flags: W
Fore
103 54 m 1,0,-1
 350 54 l 1,1,-1
 350 0 l 1,2,-1
 26 0 l 1,3,-1
 26 54 l 1,4,-1
 98 126 l 1,5,-1
 98 189 l 1,6,-1
 26 189 l 1,7,-1
 26 243 l 1,8,-1
 98 243 l 1,9,-1
 98 378 l 1,10,-1
 152 432 l 1,11,-1
 278 432 l 1,12,-1
 332 378 l 1,13,-1
 332 333 l 1,14,-1
 278 333 l 1,15,-1
 278 356 l 1,16,-1
 256 378 l 1,17,-1
 174 378 l 1,18,-1
 152 356 l 1,19,-1
 152 243 l 1,20,-1
 224 243 l 1,21,-1
 224 189 l 1,22,-1
 152 189 l 1,23,-1
 152 104 l 1,24,-1
 103 54 l 1,0,-1
EndSplineSet
EndChar
StartChar: currency
Encoding: 164 164 103
Width: 387
Flags: W
Fore
332 126 m 1,0,-1
 318 112 l 1,1,-1
 350 80 l 1,2,-1
 315 45 l 1,3,-1
 283 77 l 1,4,-1
 279 72 l 1,5,-1
 80 72 l 1,6,-1
 75 77 l 1,7,-1
 44 45 l 1,8,-1
 9 80 l 1,9,-1
 40 112 l 1,10,-1
 27 126 l 1,11,-1
 27 306 l 1,12,-1
 40 320 l 1,13,-1
 9 352 l 1,14,-1
 44 387 l 1,15,-1
 75 355 l 1,16,-1
 80 360 l 1,17,-1
 278 360 l 1,18,-1
 283 355 l 1,19,-1
 315 387 l 1,20,-1
 350 352 l 1,21,-1
 318 320 l 1,22,-1
 332 306 l 1,23,-1
 332 126 l 1,0,-1
103 126 m 1,24,-1
 256 126 l 1,25,-1
 278 148 l 1,26,-1
 278 284 l 1,27,-1
 256 306 l 1,28,-1
 103 306 l 1,29,-1
 80 284 l 1,30,-1
 80 148 l 1,31,-1
 103 126 l 1,24,-1
EndSplineSet
EndChar
StartChar: yen
Encoding: 165 165 104
Width: 386
Flags: W
Fore
278 432 m 1,0,-1
 332 432 l 1,1,-1
 332 297 l 1,2,-1
 252 234 l 1,3,-1
 296 234 l 1,4,-1
 296 180 l 1,5,-1
 206 180 l 1,6,-1
 206 144 l 1,7,-1
 296 144 l 1,8,-1
 296 90 l 1,9,-1
 206 90 l 1,10,-1
 206 0 l 1,11,-1
 152 0 l 1,12,-1
 152 90 l 1,13,-1
 62 90 l 1,14,-1
 62 144 l 1,15,-1
 152 144 l 1,16,-1
 152 180 l 1,17,-1
 62 180 l 1,18,-1
 62 234 l 1,19,-1
 106 234 l 1,20,-1
 26 297 l 1,21,-1
 26 432 l 1,22,-1
 80 432 l 1,23,-1
 80 323 l 1,24,-1
 179 245 l 1,25,-1
 278 323 l 1,26,-1
 278 432 l 1,0,-1
EndSplineSet
EndChar
StartChar: brokenbar
Encoding: 166 166 105
Width: 134
Flags: W
Fore
25 504 m 1,0,-1
 79 504 l 1,1,-1
 79 216 l 1,2,-1
 25 216 l 1,3,-1
 25 504 l 1,0,-1
25 -125 m 1,4,-1
 25 181 l 1,5,-1
 79 181 l 1,6,-1
 79 -125 l 1,7,-1
 25 -125 l 1,4,-1
EndSplineSet
EndChar
StartChar: section
Encoding: 167 167 106
Width: 351
Flags: W
Fore
296 99 m 1,0,-1
 296 17 l 1,1,-1
 242 -36 l 1,2,-1
 98 -36 l 1,3,-1
 44 18 l 1,4,-1
 44 63 l 1,5,-1
 98 63 l 1,6,-1
 98 40 l 1,7,-1
 120 18 l 1,8,-1
 220 18 l 1,9,-1
 242 40 l 1,10,-1
 242 76 l 1,11,-1
 220 99 l 1,12,-1
 80 99 l 1,13,-1
 26 153 l 1,14,-1
 26 243 l 1,15,-1
 53 270 l 1,16,-1
 26 296 l 1,17,-1
 26 378 l 1,18,-1
 80 431 l 1,19,-1
 224 431 l 1,20,-1
 278 378 l 1,21,-1
 278 332 l 1,22,-1
 224 332 l 1,23,-1
 224 355 l 1,24,-1
 202 377 l 1,25,-1
 102 377 l 1,26,-1
 80 355 l 1,27,-1
 80 319 l 1,28,-1
 102 297 l 1,29,-1
 242 297 l 1,30,-1
 296 243 l 1,31,-1
 296 152 l 1,32,-1
 269 126 l 1,33,-1
 296 99 l 1,0,-1
103 153 m 1,34,-1
 220 153 l 1,35,-1
 242 175 l 1,36,-1
 242 220 l 1,37,-1
 220 243 l 1,38,-1
 102 243 l 1,39,-1
 80 220 l 1,40,-1
 80 175 l 1,41,-1
 103 153 l 1,34,-1
EndSplineSet
EndChar
StartChar: dieresis
Encoding: 168 168 107
Width: 296
Flags: W
Fore
210 551 m 1,0,-1
 234 527 l 1,1,-1
 234 493 l 1,2,-1
 210 470 l 1,3,-1
 177 470 l 1,4,-1
 153 493 l 1,5,-1
 153 527 l 1,6,-1
 177 551 l 1,7,-1
 210 551 l 1,0,-1
60 551 m 1,8,-1
 93 551 l 1,9,-1
 117 527 l 1,10,-1
 117 493 l 1,11,-1
 93 470 l 1,12,-1
 60 470 l 1,13,-1
 36 493 l 1,14,-1
 36 527 l 1,15,-1
 60 551 l 1,8,-1
EndSplineSet
EndChar
StartChar: copyright
Encoding: 169 169 108
Width: 445
Flags: W
Fore
157 287 m 1,0,-1
 265 287 l 1,1,-1
 319 234 l 1,2,-1
 319 198 l 1,3,-1
 274 198 l 1,4,-1
 274 220 l 1,5,-1
 252 242 l 1,6,-1
 170 242 l 1,7,-1
 148 220 l 1,8,-1
 148 139 l 1,9,-1
 170 117 l 1,10,-1
 252 117 l 1,11,-1
 274 139 l 1,12,-1
 274 162 l 1,13,-1
 319 162 l 1,14,-1
 319 125 l 1,15,-1
 265 72 l 1,16,-1
 157 72 l 1,17,-1
 103 125 l 1,18,-1
 103 234 l 1,19,-1
 157 287 l 1,0,-1
301 359 m 1,20,-1
 391 270 l 1,21,-1
 391 90 l 1,22,-1
 301 0 l 1,23,-1
 121 0 l 1,24,-1
 31 90 l 1,25,-1
 31 270 l 1,26,-1
 121 359 l 1,27,-1
 301 359 l 1,20,-1
346 108 m 1,28,-1
 346 251 l 1,29,-1
 282 314 l 1,30,-1
 139 314 l 1,31,-1
 76 251 l 1,32,-1
 76 108 l 1,33,-1
 140 45 l 1,34,-1
 282 45 l 1,35,-1
 346 108 l 1,28,-1
EndSplineSet
EndChar
StartChar: ordfeminine
Encoding: 170 170 109
Width: 311
Flags: W
Fore
216 400 m 1,0,-1
 257 359 l 1,1,-1
 257 167 l 1,2,-1
 216 167 l 1,3,-1
 216 208 l 1,4,-1
 175 167 l 1,5,-1
 65 167 l 1,6,-1
 24 208 l 1,7,-1
 24 270 l 1,8,-1
 65 311 l 1,9,-1
 216 311 l 1,10,-1
 216 342 l 1,11,-1
 199 359 l 1,12,-1
 82 359 l 1,13,-1
 65 342 l 1,14,-1
 65 324 l 1,15,-1
 24 324 l 1,16,-1
 24 359 l 1,17,-1
 65 400 l 1,18,-1
 216 400 l 1,0,-1
163 208 m 1,19,-1
 216 261 l 1,20,-1
 216 269 l 1,21,-1
 82 269 l 1,22,-1
 65 252 l 1,23,-1
 65 225 l 1,24,-1
 82 208 l 1,25,-1
 163 208 l 1,19,-1
EndSplineSet
EndChar
StartChar: guillemotleft
Encoding: 171 171 110
Width: 317
Flags: W
Fore
29 149 m 1,0,-1
 29 202 l 1,1,-1
 137 302 l 1,2,-1
 137 228 l 1,3,-1
 80 175 l 1,4,-1
 137 123 l 1,5,-1
 137 49 l 1,6,-1
 29 149 l 1,0,-1
263 302 m 1,7,-1
 263 228 l 1,8,-1
 205 175 l 1,9,-1
 263 123 l 1,10,-1
 263 49 l 1,11,-1
 155 149 l 1,12,-1
 155 202 l 1,13,-1
 263 302 l 1,7,-1
EndSplineSet
EndChar
StartChar: logicalnot
Encoding: 172 172 111
Width: 406
Flags: W
Fore
29 243 m 1,0,-1
 353 243 l 1,1,-1
 353 90 l 1,2,-1
 299 90 l 1,3,-1
 299 189 l 1,4,-1
 29 189 l 1,5,-1
 29 243 l 1,0,-1
EndSplineSet
EndChar
StartChar: registered
Encoding: 174 174 112
Width: 349
Flags: W
Fore
295 364 m 1,0,-1
 295 256 l 1,1,-1
 219 180 l 1,2,-1
 111 180 l 1,3,-1
 34 256 l 1,4,-1
 34 364 l 1,5,-1
 111 440 l 1,6,-1
 219 440 l 1,7,-1
 295 364 l 1,0,-1
259 271 m 1,8,-1
 259 349 l 1,9,-1
 204 404 l 1,10,-1
 126 404 l 1,11,-1
 70 349 l 1,12,-1
 70 271 l 1,13,-1
 126 215 l 1,14,-1
 204 215 l 1,15,-1
 259 271 l 1,8,-1
120 369 m 1,16,-1
 192 369 l 1,17,-1
 223 338 l 1,18,-1
 223 316 l 1,19,20
 220 312 220 312 216 308 c 2,21,-1
 206 298 l 1,22,23
 207 297 207 297 210 294.5 c 128,-1,24
 213 292 213 292 216 289 c 0,25,26
 220 285 220 285 223 281 c 1,27,-1
 223 246 l 1,28,-1
 195 246 l 1,29,-1
 195 269 l 1,30,-1
 180 284 l 1,31,-1
 148 284 l 1,32,-1
 148 247 l 1,33,-1
 120 247 l 1,34,-1
 120 369 l 1,16,-1
195 327 m 1,35,36
 193 329 193 329 187.5 334.5 c 128,-1,37
 182 340 182 340 180 341 c 1,38,-1
 148 341 l 1,39,-1
 148 312 l 1,40,-1
 180 312 l 1,41,-1
 195 327 l 1,35,36
EndSplineSet
EndChar
StartChar: macron
Encoding: 175 175 113
Width: 223
Flags: W
Fore
35 455 m 1,0,-1
 35 509 l 1,1,-1
 178 509 l 1,2,-1
 178 455 l 1,3,-1
 35 455 l 1,0,-1
35 455 m 1,4,-1
 35 509 l 1,5,-1
 178 509 l 1,6,-1
 178 455 l 1,7,-1
 35 455 l 1,4,-1
35 455 m 1,8,-1
 35 509 l 1,9,-1
 178 509 l 1,10,-1
 178 455 l 1,11,-1
 35 455 l 1,8,-1
EndSplineSet
EndChar
StartChar: degree
Encoding: 176 176 114
Width: 260
Flags: W
Fore
152 431 m 1,0,-1
 206 377 l 1,1,-1
 206 305 l 1,2,-1
 153 251 l 1,3,-1
 80 251 l 1,4,-1
 26 305 l 1,5,-1
 26 378 l 1,6,-1
 80 431 l 1,7,-1
 152 431 l 1,0,-1
152 327 m 1,8,-1
 152 355 l 1,9,-1
 130 377 l 1,10,-1
 102 377 l 1,11,-1
 80 355 l 1,12,-1
 80 328 l 1,13,-1
 103 305 l 1,14,-1
 130 305 l 1,15,-1
 152 327 l 1,8,-1
EndSplineSet
EndChar
StartChar: plusminus
Encoding: 177 177 115
Width: 439
Flags: W
Fore
377 171 m 1,0,-1
 233 171 l 1,1,-1
 233 54 l 1,2,-1
 377 54 l 1,3,-1
 377 0 l 1,4,-1
 36 0 l 1,5,-1
 36 54 l 1,6,-1
 179 54 l 1,7,-1
 179 171 l 1,8,-1
 36 171 l 1,9,-1
 36 225 l 1,10,-1
 179 225 l 1,11,-1
 179 360 l 1,12,-1
 233 360 l 1,13,-1
 233 225 l 1,14,-1
 377 225 l 1,15,-1
 377 171 l 1,16,-1
 377 171 l 1,0,-1
EndSplineSet
EndChar
StartChar: twosuperior
Encoding: 178 178 116
Width: 251
Flags: W
Fore
59 431 m 1,0,-1
 160 431 l 1,1,-1
 193 398 l 1,2,-1
 193 337 l 1,3,4
 158 306 158 306 131 282 c 0,5,6
 119 271 119 271 108 261.5 c 128,-1,7
 97 252 97 252 88 244 c 128,-1,8
 79 236 79 236 73.5 231 c 128,-1,9
 69 227 69 227 68 226 c 1,10,-1
 68 220 l 1,11,-1
 198 220 l 1,12,-1
 198 178 l 1,13,-1
 26 178 l 1,14,-1
 26 242 l 1,15,16
 61 272 61 272 88 297 c 0,17,18
 100 307 100 307 111 317 c 128,-1,19
 122 327 122 327 131 335 c 128,-1,20
 140 343 140 343 145.5 348 c 128,-1,21
 150 352 150 352 151 353 c 1,22,-1
 151 380 l 1,23,24
 150 381 150 381 146.5 384 c 128,-1,25
 143 387 143 387 142 389 c 1,26,-1
 77 389 l 1,27,28
 75 387 75 387 71.5 384 c 128,-1,29
 68 381 68 381 68 380 c 2,30,-1
 68 364 l 1,31,-1
 26 364 l 1,32,-1
 26 398 l 1,33,-1
 59 431 l 1,0,-1
EndSplineSet
EndChar
StartChar: threesuperior
Encoding: 179 179 117
Width: 251
Flags: W
Fore
64 431 m 1,0,-1
 165 431 l 1,1,-1
 198 398 l 1,2,-1
 198 327 l 1,3,-1
 186 315 l 1,4,-1
 198 303 l 1,5,-1
 198 212 l 1,6,-1
 165 178 l 1,7,-1
 59 178 l 1,8,-1
 25 212 l 1,9,-1
 25 246 l 1,10,-1
 68 246 l 1,11,-1
 68 230 l 1,12,13
 69 229 69 229 72 225.5 c 128,-1,14
 75 222 75 222 77 221 c 1,15,-1
 147 221 l 1,16,17
 148 222 148 222 151.5 225 c 128,-1,18
 155 228 155 228 156 229 c 1,19,-1
 156 285 l 1,20,-1
 147 294 l 1,21,-1
 76 294 l 1,22,-1
 76 336 l 1,23,-1
 147 336 l 1,24,25
 149 337 149 337 152 340 c 128,-1,26
 155 343 155 343 156 345 c 1,27,-1
 156 380 l 1,28,-1
 147 389 l 1,29,-1
 82 389 l 1,30,31
 80 388 80 388 77 384.5 c 128,-1,32
 74 381 74 381 73 380 c 1,33,-1
 73 364 l 1,34,-1
 30 364 l 1,35,-1
 30 398 l 1,36,-1
 64 431 l 1,0,-1
EndSplineSet
EndChar
StartChar: acute
Encoding: 180 180 118
Width: 142
Flags: W
Fore
-2 455 m 1,0,-1
 25 545 l 1,1,-1
 88 545 l 1,2,-1
 34 455 l 1,3,-1
 -2 455 l 1,4,-1
 -2 455 l 1,0,-1
EndSplineSet
EndChar
StartChar: mu
Encoding: 181 181 119
Width: 368
Flags: W
Fore
260 305 m 1,0,-1
 314 305 l 1,1,-1
 314 0 l 1,2,-1
 260 0 l 1,3,-1
 260 54 l 1,4,-1
 206 0 l 1,5,-1
 80 0 l 1,6,-1
 80 -126 l 1,7,-1
 26 -126 l 1,8,-1
 26 305 l 1,9,-1
 80 305 l 1,10,-1
 80 76 l 1,11,-1
 102 54 l 1,12,-1
 190 54 l 1,13,-1
 260 124 l 1,14,-1
 260 305 l 1,15,-1
 260 305 l 1,0,-1
EndSplineSet
EndChar
StartChar: paragraph
Encoding: 182 182 120
Width: 307
Flags: W
Fore
198 431 m 1,0,-1
 252 431 l 1,1,-1
 252 -126 l 1,2,-1
 198 -126 l 1,3,-1
 198 431 l 1,0,-1
172 431 m 1,4,-1
 172 -126 l 1,5,-1
 118 -126 l 1,6,-1
 118 224 l 1,7,-1
 88 224 l 1,8,-1
 28 285 l 1,9,-1
 28 371 l 1,10,-1
 88 431 l 1,11,-1
 172 431 l 1,4,-1
EndSplineSet
EndChar
StartChar: periodcentered
Encoding: 183 183 121
Width: 172
Flags: W
Fore
118 235 m 1,0,-1
 118 198 l 1,1,-1
 92 172 l 1,2,-1
 55 172 l 1,3,-1
 28 198 l 1,4,-1
 28 235 l 1,5,-1
 55 261 l 1,6,-1
 92 261 l 1,7,-1
 118 235 l 1,8,-1
 118 235 l 1,0,-1
EndSplineSet
EndChar
StartChar: cedilla
Encoding: 184 184 122
Width: 205
Flags: W
Fore
104 -36 m 1,0,-1
 143 -75 l 1,1,-1
 143 -131 l 1,2,-1
 104 -170 l 1,3,-1
 35 -170 l 1,4,-1
 35 -126 l 1,5,-1
 85 -126 l 1,6,-1
 99 -113 l 1,7,-1
 99 -94 l 1,8,-1
 85 -81 l 1,9,-1
 35 -81 l 1,10,-1
 35 -53 l 1,11,-1
 100 18 l 1,12,-1
 123 2 l 1,13,-1
 104 -36 l 1,14,-1
 104 -36 l 1,0,-1
EndSplineSet
EndChar
StartChar: onesuperior
Encoding: 185 185 123
Width: 157
Flags: W
Fore
104 431 m 1,0,-1
 104 178 l 1,1,-1
 62 178 l 1,2,-1
 62 368 l 1,3,-1
 54 360 l 1,4,-1
 24 390 l 1,5,-1
 66 431 l 1,6,-1
 104 431 l 1,0,-1
EndSplineSet
EndChar
StartChar: ordmasculine
Encoding: 186 186 124
Width: 260
Flags: W
Fore
206 341 m 1,0,-1
 206 269 l 1,1,-1
 153 215 l 1,2,-1
 80 215 l 1,3,-1
 26 269 l 1,4,-1
 26 342 l 1,5,-1
 80 395 l 1,6,-1
 152 395 l 1,7,-1
 206 341 l 1,0,-1
152 319 m 1,8,-1
 130 341 l 1,9,-1
 102 341 l 1,10,-1
 80 319 l 1,11,-1
 80 292 l 1,12,-1
 103 269 l 1,13,-1
 130 269 l 1,14,-1
 152 291 l 1,15,-1
 152 319 l 1,8,-1
EndSplineSet
EndChar
StartChar: guillemotright
Encoding: 187 187 125
Width: 316
Flags: W
Fore
262 202 m 1,0,-1
 262 149 l 1,1,-1
 155 49 l 1,2,-1
 155 123 l 1,3,-1
 212 175 l 1,4,-1
 155 228 l 1,5,-1
 155 302 l 1,6,-1
 262 202 l 1,0,-1
29 49 m 1,7,-1
 29 123 l 1,8,-1
 86 175 l 1,9,-1
 29 228 l 1,10,-1
 29 302 l 1,11,-1
 137 202 l 1,12,-1
 137 149 l 1,13,-1
 29 49 l 1,7,-1
EndSplineSet
EndChar
StartChar: onequarter
Encoding: 188 188 126
Width: 476
Flags: W
Fore
65 362 m 1,0,-1
 35 392 l 1,1,-1
 77 433 l 1,2,-1
 115 433 l 1,3,-1
 115 180 l 1,4,-1
 73 180 l 1,5,-1
 73 370 l 1,6,-1
 65 362 l 1,0,-1
414 78 m 1,7,-1
 414 35 l 1,8,-1
 399 35 l 1,9,-1
 399 0 l 1,10,-1
 357 0 l 1,11,-1
 357 35 l 1,12,-1
 246 35 l 1,13,-1
 246 88 l 1,14,-1
 339 253 l 1,15,-1
 399 253 l 1,16,-1
 399 78 l 1,17,-1
 414 78 l 1,7,-1
357 203 m 1,18,19
 354 197 354 197 343 177.5 c 128,-1,20
 332 158 332 158 320 137 c 128,-1,21
 308 116 308 116 298.5 99 c 128,-1,22
 289 83 289 83 289 82 c 2,23,-1
 289 78 l 1,24,-1
 357 78 l 1,25,-1
 357 203 l 1,18,19
369 432 m 1,26,-1
 125 0 l 1,27,-1
 62 0 l 1,28,-1
 307 432 l 1,29,-1
 369 432 l 1,26,-1
EndSplineSet
Ligature: 0 0 'frac' one fraction four
Ligature: 0 0 'frac' one slash four
EndChar
StartChar: onehalf
Encoding: 189 189 127
Width: 556
Flags: W
Fore
73 370 m 1,0,1
 72 368 72 368 71 367.5 c 128,-1,2
 70 367 70 367 69 365 c 1,3,-1
 66 362 l 1,4,-1
 36 392 l 1,5,-1
 78 433 l 1,6,-1
 116 433 l 1,7,-1
 116 180 l 1,8,-1
 73 180 l 1,9,-1
 73 370 l 1,0,1
494 42 m 1,10,-1
 494 0 l 1,11,-1
 321 0 l 1,12,-1
 322 62 l 1,13,-1
 322 64 l 1,14,15
 357 94 357 94 384 119 c 0,16,17
 396 129 396 129 407 139 c 128,-1,18
 418 149 418 149 427 157 c 128,-1,19
 436 165 436 165 441.5 170 c 128,-1,20
 446 174 446 174 447 175 c 1,21,-1
 447 202 l 1,22,23
 446 203 446 203 442.5 206 c 128,-1,24
 439 209 439 209 438 211 c 1,25,-1
 373 211 l 1,26,27
 371 209 371 209 367.5 206 c 128,-1,28
 364 203 364 203 364 202 c 2,29,-1
 364 186 l 1,30,-1
 321 186 l 1,31,-1
 321 220 l 1,32,-1
 355 253 l 1,33,-1
 456 253 l 1,34,-1
 489 220 l 1,35,-1
 489 159 l 1,36,37
 454 128 454 128 427 104 c 0,38,39
 415 93 415 93 404 83.5 c 128,-1,40
 393 74 393 74 384 66 c 128,-1,41
 375 58 375 58 369.5 53 c 128,-1,42
 365 49 365 49 364 48 c 1,43,-1
 364 42 l 1,44,-1
 494 42 l 1,10,-1
387 432 m 1,45,-1
 143 0 l 1,46,-1
 81 0 l 1,47,-1
 325 432 l 1,48,-1
 387 432 l 1,45,-1
EndSplineSet
Ligature: 0 0 'frac' one fraction two
Ligature: 0 0 'frac' one slash two
EndChar
StartChar: threequarters
Encoding: 190 190 128
Width: 567
Flags: W
Fore
170 180 m 1,0,-1
 64 180 l 1,1,-1
 30 214 l 1,2,-1
 30 247 l 1,3,-1
 73 247 l 1,4,-1
 73 231 l 1,5,-1
 82 222 l 1,6,-1
 152 222 l 1,7,8
 153 224 153 224 156.5 227 c 128,-1,9
 160 230 160 230 161 231 c 1,10,-1
 161 287 l 1,11,12
 160 288 160 288 156.5 291 c 128,-1,13
 153 294 153 294 152 295 c 1,14,-1
 81 295 l 1,15,-1
 81 338 l 1,16,-1
 152 338 l 1,17,18
 154 339 154 339 157 342 c 128,-1,19
 160 345 160 345 161 346 c 1,20,-1
 161 382 l 1,21,22
 160 382 160 382 157 385.5 c 128,-1,23
 154 389 154 389 152 390 c 1,24,-1
 87 390 l 1,25,26
 85 389 85 389 82 386 c 128,-1,27
 79 383 79 383 78 382 c 1,28,-1
 78 366 l 1,29,-1
 35 366 l 1,30,-1
 35 399 l 1,31,-1
 69 433 l 1,32,-1
 170 433 l 1,33,-1
 203 399 l 1,34,-1
 203 329 l 1,35,-1
 191 317 l 1,36,37
 192 315 192 315 198 309 c 2,38,-1
 203 304 l 1,39,-1
 203 214 l 1,40,-1
 170 180 l 1,0,-1
505 78 m 1,41,-1
 505 35 l 1,42,-1
 490 35 l 1,43,-1
 490 0 l 1,44,-1
 447 0 l 1,45,-1
 447 35 l 1,46,-1
 337 35 l 1,47,-1
 337 88 l 1,48,-1
 430 253 l 1,49,-1
 490 253 l 1,50,-1
 490 78 l 1,51,-1
 505 78 l 1,41,-1
447 203 m 1,52,53
 444 197 444 197 433 177.5 c 128,-1,54
 422 158 422 158 410 137 c 128,-1,55
 398 116 398 116 388.5 99 c 128,-1,56
 379 83 379 83 379 82 c 2,57,-1
 379 78 l 1,58,-1
 447 78 l 1,59,-1
 447 203 l 1,52,53
461 432 m 1,60,-1
 216 0 l 1,61,-1
 154 0 l 1,62,-1
 399 432 l 1,63,-1
 461 432 l 1,60,-1
EndSplineSet
Ligature: 0 0 'frac' three fraction four
Ligature: 0 0 'frac' three slash four
EndChar
StartChar: questiondown
Encoding: 191 191 129
Width: 368
Flags: W
Fore
259 -27 m 1,0,-1
 313 -27 l 1,1,-1
 313 -73 l 1,2,-1
 260 -126 l 1,3,-1
 80 -126 l 1,4,-1
 26 -72 l 1,5,-1
 26 27 l 1,6,-1
 143 124 l 1,7,-1
 143 215 l 1,8,-1
 196 215 l 1,9,-1
 196 99 l 1,10,-1
 80 1 l 1,11,-1
 80 -50 l 1,12,-1
 102 -72 l 1,13,-1
 237 -72 l 1,14,-1
 259 -50 l 1,15,-1
 259 -27 l 1,0,-1
182 242 m 1,16,-1
 156 242 l 1,17,-1
 138 261 l 1,18,-1
 138 287 l 1,19,-1
 156 305 l 1,20,-1
 182 305 l 1,21,-1
 201 287 l 1,22,-1
 201 261 l 1,23,-1
 182 242 l 1,16,-1
EndSplineSet
EndChar
StartChar: AE
Encoding: 198 198 135
Width: 636
Flags: W
Fore
362 378 m 1,0,-1
 340 356 l 1,1,-1
 340 243 l 1,2,-1
 556 243 l 1,3,-1
 556 189 l 1,4,-1
 340 189 l 1,5,-1
 340 76 l 1,6,-1
 362 54 l 1,7,-1
 574 54 l 1,8,-1
 574 0 l 1,9,-1
 340 0 l 1,10,-1
 286 54 l 1,11,-1
 286 117 l 1,12,-1
 88 117 l 1,13,-1
 88 0 l 1,14,-1
 34 0 l 1,15,-1
 34 242 l 1,16,-1
 259 432 l 1,17,-1
 574 432 l 1,18,-1
 574 378 l 1,19,-1
 362 378 l 1,0,-1
88 171 m 1,20,-1
 286 171 l 1,21,-1
 286 378 l 1,22,-1
 275 378 l 1,23,-1
 88 218 l 1,24,-1
 88 171 l 1,20,-1
EndSplineSet
EndChar
StartChar: Ccedilla
Encoding: 199 199 136
Width: 385
Flags: W
Fore
233 -75 m 1,0,-1
 233 -131 l 1,1,-1
 194 -170 l 1,2,-1
 125 -170 l 1,3,-1
 125 -126 l 1,4,-1
 175 -126 l 1,5,-1
 189 -113 l 1,6,-1
 189 -94 l 1,7,-1
 175 -81 l 1,8,-1
 125 -81 l 1,9,-1
 125 -53 l 1,10,-1
 173 0 l 1,11,-1
 80 0 l 1,12,-1
 26 54 l 1,13,-1
 26 378 l 1,14,-1
 80 431 l 1,15,-1
 278 431 l 1,16,-1
 332 377 l 1,17,-1
 332 332 l 1,18,-1
 278 332 l 1,19,-1
 278 355 l 1,20,-1
 256 377 l 1,21,-1
 102 377 l 1,22,-1
 80 355 l 1,23,-1
 80 76 l 1,24,-1
 102 54 l 1,25,-1
 256 54 l 1,26,-1
 278 76 l 1,27,-1
 278 99 l 1,28,-1
 332 99 l 1,29,-1
 332 53 l 1,30,-1
 278 0 l 1,31,-1
 212 0 l 1,32,-1
 194 -36 l 1,33,-1
 233 -75 l 1,0,-1
EndSplineSet
EndChar
StartChar: Eth
Encoding: 208 208 145
Width: 422
Flags: W
Fore
315 431 m 1,0,-1
 369 377 l 1,1,-1
 369 54 l 1,2,-1
 315 0 l 1,3,-1
 63 0 l 1,4,-1
 63 189 l 1,5,-1
 27 189 l 1,6,-1
 27 242 l 1,7,-1
 63 242 l 1,8,-1
 63 431 l 1,9,-1
 315 431 l 1,0,-1
315 76 m 1,10,-1
 315 355 l 1,11,-1
 292 377 l 1,12,-1
 117 377 l 1,13,-1
 117 242 l 1,14,-1
 225 242 l 1,15,-1
 225 189 l 1,16,-1
 117 189 l 1,17,-1
 117 54 l 1,18,-1
 292 54 l 1,19,-1
 315 76 l 1,10,-1
EndSplineSet
EndChar
StartChar: multiply
Encoding: 215 215 152
Width: 387
Flags: W
Fore
326 325 m 1,0,-1
 216 215 l 1,1,-1
 325 107 l 1,2,-1
 287 69 l 1,3,-1
 178 177 l 1,4,-1
 74 73 l 1,5,-1
 36 112 l 1,6,-1
 140 215 l 1,7,-1
 36 320 l 1,8,-1
 74 358 l 1,9,-1
 178 253 l 1,10,-1
 287 363 l 1,11,-1
 326 325 l 1,12,-1
 326 325 l 1,0,-1
EndSplineSet
EndChar
StartChar: Oslash
Encoding: 216 216 153
Width: 404
Flags: W
Fore
356 425 m 1,0,-1
 336 392 l 1,1,-1
 350 377 l 1,2,-1
 350 53 l 1,3,-1
 296 0 l 1,4,-1
 92 0 l 1,5,-1
 76 -26 l 1,6,-1
 30 3 l 1,7,-1
 48 31 l 1,8,-1
 26 54 l 1,9,-1
 26 378 l 1,10,-1
 80 431 l 1,11,-1
 296 431 l 1,12,-1
 310 453 l 1,13,-1
 356 425 l 1,0,-1
80 355 m 1,14,-1
 80 83 l 1,15,-1
 263 377 l 1,16,-1
 102 377 l 1,17,-1
 80 355 l 1,14,-1
296 76 m 1,18,-1
 296 328 l 1,19,-1
 126 54 l 1,20,-1
 274 54 l 1,21,-1
 296 76 l 1,18,-1
EndSplineSet
EndChar
StartChar: Thorn
Encoding: 222 222 159
Width: 368
Flags: W
Fore
261 341 m 1,0,-1
 314 288 l 1,1,-1
 314 143 l 1,2,-1
 260 90 l 1,3,-1
 80 90 l 1,4,-1
 80 0 l 1,5,-1
 26 0 l 1,6,-1
 26 431 l 1,7,-1
 80 431 l 1,8,-1
 80 341 l 1,9,-1
 261 341 l 1,0,-1
260 166 m 1,10,-1
 260 265 l 1,11,-1
 238 287 l 1,12,-1
 80 287 l 1,13,-1
 80 144 l 1,14,-1
 238 144 l 1,15,-1
 260 166 l 1,10,-1
EndSplineSet
EndChar
StartChar: uni00DF
Encoding: 223 223 160
Width: 350
Flags: W
Fore
229 211 m 1,0,-1
 296 144 l 1,1,-1
 296 45 l 1,2,-1
 242 -9 l 1,3,-1
 107 -9 l 1,4,-1
 107 45 l 1,5,-1
 220 45 l 1,6,-1
 242 67 l 1,7,-1
 242 121 l 1,8,-1
 152 211 l 1,9,-1
 224 282 l 1,10,-1
 224 355 l 1,11,-1
 202 378 l 1,12,-1
 103 378 l 1,13,-1
 80 356 l 1,14,-1
 80 -126 l 1,15,-1
 26 -126 l 1,16,-1
 26 378 l 1,17,-1
 80 432 l 1,18,-1
 224 432 l 1,19,-1
 278 378 l 1,20,-1
 278 259 l 1,21,-1
 229 211 l 1,0,-1
EndSplineSet
EndChar
StartChar: ae
Encoding: 230 230 167
Width: 638
Flags: W
Fore
530 306 m 1,0,-1
 584 252 l 1,1,-1
 584 135 l 1,2,-1
 332 135 l 1,3,-1
 332 76 l 1,4,-1
 354 54 l 1,5,-1
 512 54 l 1,6,-1
 512 0 l 1,7,-1
 332 0 l 1,8,-1
 278 55 l 1,9,-1
 224 0 l 1,10,-1
 80 0 l 1,11,-1
 26 54 l 1,12,-1
 26 135 l 1,13,-1
 80 189 l 1,14,-1
 278 189 l 1,15,-1
 278 230 l 1,16,-1
 256 252 l 1,17,-1
 102 252 l 1,18,-1
 80 230 l 1,19,-1
 80 207 l 1,20,-1
 26 207 l 1,21,-1
 26 252 l 1,22,-1
 80 306 l 1,23,-1
 278 306 l 1,24,-1
 305 279 l 1,25,-1
 332 306 l 1,26,-1
 530 306 l 1,0,-1
80 76 m 1,27,-1
 102 54 l 1,28,-1
 208 54 l 1,29,-1
 278 125 l 1,30,-1
 278 135 l 1,31,-1
 102 135 l 1,32,-1
 80 113 l 1,33,-1
 80 76 l 1,27,-1
332 189 m 1,34,-1
 530 189 l 1,35,-1
 530 230 l 1,36,-1
 507 252 l 1,37,-1
 354 252 l 1,38,-1
 332 230 l 1,39,-1
 332 189 l 1,34,-1
EndSplineSet
EndChar
StartChar: ccedilla
Encoding: 231 231 168
Width: 388
Flags: W
Fore
234 -68 m 1,0,-1
 234 -124 l 1,1,-1
 195 -163 l 1,2,-1
 126 -163 l 1,3,-1
 126 -119 l 1,4,-1
 176 -119 l 1,5,-1
 190 -106 l 1,6,-1
 190 -87 l 1,7,-1
 176 -74 l 1,8,-1
 126 -74 l 1,9,-1
 126 -46 l 1,10,-1
 168 0 l 1,11,-1
 81 0 l 1,12,-1
 27 54 l 1,13,-1
 27 252 l 1,14,-1
 81 305 l 1,15,-1
 279 305 l 1,16,-1
 333 252 l 1,17,-1
 333 206 l 1,18,-1
 279 206 l 1,19,-1
 279 229 l 1,20,-1
 257 251 l 1,21,-1
 103 251 l 1,22,-1
 81 229 l 1,23,-1
 81 76 l 1,24,-1
 104 54 l 1,25,-1
 257 54 l 1,26,-1
 279 76 l 1,27,-1
 279 99 l 1,28,-1
 333 99 l 1,29,-1
 333 53 l 1,30,-1
 280 0 l 1,31,-1
 209 0 l 1,32,-1
 195 -29 l 1,33,-1
 234 -68 l 1,0,-1
EndSplineSet
EndChar
StartChar: eth
Encoding: 240 240 177
Width: 386
Flags: W
Fore
332 355 m 1,0,-1
 332 54 l 1,1,-1
 278 0 l 1,2,-1
 80 0 l 1,3,-1
 26 53 l 1,4,-1
 27 252 l 1,5,-1
 80 306 l 1,6,-1
 224 306 l 1,7,-1
 224 305 l 1,8,-1
 278 251 l 1,9,-1
 278 324 l 1,10,-1
 247 306 l 1,11,-1
 224 344 l 1,12,-1
 278 376 l 1,13,-1
 278 431 l 1,14,-1
 332 431 l 1,15,-1
 332 407 l 1,16,-1
 367 427 l 1,17,-1
 388 390 l 1,18,-1
 332 355 l 1,0,-1
278 76 m 1,19,-1
 278 181 l 1,20,-1
 208 252 l 1,21,-1
 103 252 l 1,22,-1
 80 229 l 1,23,-1
 80 76 l 1,24,-1
 102 54 l 1,25,-1
 256 54 l 1,26,-1
 278 76 l 1,19,-1
EndSplineSet
EndChar
StartChar: divide
Encoding: 247 247 184
Width: 439
Flags: W
Fore
221 270 m 1,0,-1
 191 270 l 1,1,-1
 170 291 l 1,2,-1
 170 321 l 1,3,-1
 191 342 l 1,4,-1
 221 342 l 1,5,-1
 242 321 l 1,6,-1
 242 291 l 1,7,-1
 221 270 l 1,0,-1
191 162 m 1,8,-1
 221 162 l 1,9,-1
 242 141 l 1,10,-1
 242 111 l 1,11,-1
 221 90 l 1,12,-1
 191 90 l 1,13,-1
 170 111 l 1,14,-1
 170 141 l 1,15,-1
 191 162 l 1,8,-1
35 243 m 1,16,-1
 378 243 l 1,17,-1
 378 189 l 1,18,-1
 35 189 l 1,19,-1
 35 243 l 1,16,-1
EndSplineSet
EndChar
StartChar: oslash
Encoding: 248 248 185
Width: 387
Flags: W
Fore
344 298 m 1,0,-1
 318 268 l 1,1,-1
 333 252 l 1,2,-1
 333 54 l 1,3,-1
 280 0 l 1,4,-1
 82 0 l 1,5,-1
 57 -27 l 1,6,-1
 16 9 l 1,7,-1
 43 38 l 1,8,-1
 28 54 l 1,9,-1
 28 252 l 1,10,-1
 81 306 l 1,11,-1
 279 306 l 1,12,-1
 304 333 l 1,13,-1
 344 298 l 1,0,-1
82 230 m 1,14,-1
 82 82 l 1,15,-1
 232 252 l 1,16,-1
 104 252 l 1,17,-1
 82 230 l 1,14,-1
279 76 m 1,18,-1
 279 224 l 1,19,-1
 129 54 l 1,20,-1
 257 54 l 1,21,-1
 279 76 l 1,18,-1
EndSplineSet
EndChar
StartChar: thorn
Encoding: 254 254 191
Width: 387
Flags: W
Fore
279 306 m 1,0,-1
 333 252 l 1,1,-1
 333 54 l 1,2,-1
 279 0 l 1,3,-1
 81 0 l 1,4,-1
 81 -108 l 1,5,-1
 27 -108 l 1,6,-1
 27 414 l 1,7,-1
 81 414 l 1,8,-1
 81 306 l 1,9,-1
 279 306 l 1,0,-1
279 76 m 1,10,-1
 279 230 l 1,11,-1
 257 252 l 1,12,-1
 103 252 l 1,13,-1
 81 230 l 1,14,-1
 81 76 l 1,15,-1
 104 54 l 1,16,-1
 257 54 l 1,17,-1
 279 76 l 1,10,-1
EndSplineSet
EndChar
StartChar: Lslash
Encoding: 321 321 193
Width: 351
Flags: W
Fore
90 54 m 1,0,-1
 297 54 l 1,1,-1
 297 0 l 1,2,-1
 36 0 l 1,3,-1
 36 143 l 1,4,-1
 0 107 l 1,5,-1
 0 183 l 1,6,-1
 36 219 l 1,7,-1
 36 432 l 1,8,-1
 90 432 l 1,9,-1
 90 273 l 1,10,-1
 144 327 l 1,11,-1
 144 251 l 1,12,-1
 90 197 l 1,13,-1
 90 54 l 1,0,-1
EndSplineSet
EndChar
StartChar: lslash
Encoding: 322 322 194
Width: 180
Flags: W
Fore
126 316 m 1,0,-1
 126 240 l 1,1,-1
 90 204 l 1,2,-1
 90 0 l 1,3,-1
 36 0 l 1,4,-1
 36 150 l 1,5,-1
 0 114 l 1,6,-1
 0 191 l 1,7,-1
 36 227 l 1,8,-1
 36 432 l 1,9,-1
 90 432 l 1,10,-1
 90 280 l 1,11,-1
 126 316 l 1,0,-1
EndSplineSet
EndChar
StartChar: OE
Encoding: 338 338 195
Width: 636
Flags: W
Fore
363 378 m 1,0,-1
 341 356 l 1,1,-1
 341 243 l 1,2,-1
 557 243 l 1,3,-1
 557 189 l 1,4,-1
 341 189 l 1,5,-1
 341 76 l 1,6,-1
 363 54 l 1,7,-1
 575 54 l 1,8,-1
 575 0 l 1,9,-1
 89 0 l 1,10,-1
 35 54 l 1,11,-1
 35 378 l 1,12,-1
 89 432 l 1,13,-1
 575 432 l 1,14,-1
 575 378 l 1,15,-1
 363 378 l 1,0,-1
89 76 m 1,16,-1
 111 54 l 1,17,-1
 287 54 l 1,18,-1
 287 378 l 1,19,-1
 111 378 l 1,20,-1
 89 356 l 1,21,-1
 89 76 l 1,16,-1
EndSplineSet
EndChar
StartChar: oe
Encoding: 339 339 196
Width: 637
Flags: W
Fore
530 306 m 1,0,-1
 583 252 l 1,1,-1
 583 135 l 1,2,-1
 332 135 l 1,3,-1
 332 76 l 1,4,-1
 354 54 l 1,5,-1
 511 54 l 1,6,-1
 511 0 l 1,7,-1
 332 0 l 1,8,-1
 305 27 l 1,9,-1
 278 0 l 1,10,-1
 80 0 l 1,11,-1
 26 54 l 1,12,-1
 26 252 l 1,13,-1
 80 306 l 1,14,-1
 278 306 l 1,15,-1
 305 279 l 1,16,-1
 331 306 l 1,17,-1
 530 306 l 1,0,-1
102 54 m 1,18,-1
 256 54 l 1,19,-1
 278 76 l 1,20,-1
 278 230 l 1,21,-1
 255 252 l 1,22,-1
 102 252 l 1,23,-1
 80 230 l 1,24,-1
 80 76 l 1,25,-1
 102 54 l 1,18,-1
332 189 m 1,26,-1
 529 189 l 1,27,-1
 529 230 l 1,28,-1
 507 252 l 1,29,-1
 354 252 l 1,30,-1
 332 230 l 1,31,-1
 332 189 l 1,26,-1
EndSplineSet
EndChar
StartChar: florin
Encoding: 402 402 202
Width: 387
Flags: W
Fore
265 377 m 1,0,-1
 238 355 l 1,1,-1
 222 278 l 1,2,-1
 294 278 l 1,3,-1
 282 224 l 1,4,-1
 210 224 l 1,5,-1
 174 53 l 1,6,-1
 109 0 l 1,7,-1
 27 0 l 1,8,-1
 27 54 l 1,9,-1
 98 54 l 1,10,-1
 125 76 l 1,11,-1
 156 224 l 1,12,-1
 84 224 l 1,13,-1
 96 278 l 1,14,-1
 168 278 l 1,15,-1
 189 378 l 1,16,-1
 254 431 l 1,17,-1
 333 431 l 1,18,-1
 333 377 l 1,19,-1
 265 377 l 1,0,-1
EndSplineSet
EndChar
StartChar: circumflex
Encoding: 710 710 203
Width: 314
Flags: W
Fore
163 563 m 1,0,-1
 252 474 l 1,1,-1
 233 455 l 1,2,-1
 142 516 l 1,3,-1
 55 455 l 1,4,-1
 36 474 l 1,5,-1
 125 563 l 1,6,-1
 163 563 l 1,7,-1
 163 563 l 1,0,-1
EndSplineSet
EndChar
StartChar: caron
Encoding: 711 711 204
Width: 313
Flags: W
Fore
233 563 m 1,0,-1
 252 544 l 1,1,-1
 163 455 l 1,2,-1
 125 455 l 1,3,-1
 36 544 l 1,4,-1
 55 563 l 1,5,-1
 146 502 l 1,6,-1
 233 563 l 1,7,-1
 233 563 l 1,0,-1
EndSplineSet
EndChar
StartChar: breve
Encoding: 728 728 205
Width: 304
Flags: W
Fore
218 563 m 1,0,-1
 243 549 l 1,1,-1
 189 455 l 1,2,-1
 90 455 l 1,3,-1
 36 549 l 1,4,-1
 60 563 l 1,5,-1
 117 500 l 1,6,-1
 162 500 l 1,7,-1
 218 563 l 1,8,-1
 218 563 l 1,0,-1
EndSplineSet
EndChar
StartChar: dotaccent
Encoding: 729 729 206
Width: 178
Flags: W
Fore
116 513 m 1,0,-1
 116 479 l 1,1,-1
 92 456 l 1,2,-1
 59 456 l 1,3,-1
 35 479 l 1,4,-1
 35 513 l 1,5,-1
 59 536 l 1,6,-1
 92 536 l 1,7,-1
 116 513 l 1,8,-1
 116 513 l 1,0,-1
EndSplineSet
EndChar
StartChar: ring
Encoding: 730 730 207
Width: 223
Flags: W
Fore
162 544 m 1,0,-1
 162 492 l 1,1,-1
 125 455 l 1,2,-1
 72 455 l 1,3,-1
 36 492 l 1,4,-1
 36 544 l 1,5,-1
 72 581 l 1,6,-1
 125 581 l 1,7,-1
 162 544 l 1,0,-1
91 500 m 1,8,-1
 106 500 l 1,9,-1
 117 511 l 1,10,-1
 117 525 l 1,11,-1
 106 536 l 1,12,-1
 91 536 l 1,13,-1
 81 525 l 1,14,-1
 81 511 l 1,15,-1
 91 500 l 1,8,-1
EndSplineSet
EndChar
StartChar: tilde
Encoding: 732 732 209
Width: 262
Flags: W
Fore
147 409 m 1,0,1
 149 410 149 410 154.5 416 c 128,-1,2
 160 422 160 422 167 429 c 2,3,-1
 184 446 l 1,4,-1
 209 421 l 1,5,-1
 153 365 l 1,6,7
 136 374 136 374 123 382 c 0,8,9
 112 389 112 389 102 394.5 c 128,-1,10
 92 400 92 400 90 401 c 1,11,12
 88 399 88 399 82.5 394 c 128,-1,13
 77 389 77 389 70 382 c 2,14,-1
 53 365 l 1,15,-1
 28 389 l 1,16,-1
 84 445 l 1,17,18
 101 436 101 436 114 428 c 0,19,20
 125 421 125 421 135 415.5 c 128,-1,21
 145 410 145 410 147 409 c 1,0,1
EndSplineSet
EndChar
StartChar: uni0E01
Encoding: 3585 3585 212
Width: 407
Flags: W
Fore
299 395 m 1,0,-1
 353 342 l 1,1,-1
 353 0 l 1,2,-1
 299 0 l 1,3,-1
 299 319 l 1,4,-1
 277 341 l 1,5,-1
 106 341 l 1,6,-1
 164 284 l 1,7,-1
 101 221 l 1,8,-1
 101 0 l 1,9,-1
 47 0 l 1,10,-1
 47 243 l 1,11,-1
 88 284 l 1,12,-1
 29 342 l 1,13,-1
 83 395 l 1,14,-1
 299 395 l 1,0,-1
EndSplineSet
EndChar
StartChar: uni0E02
Encoding: 3586 3586 213
Width: 394
Flags: W
Fore
287 396 m 1,0,-1
 341 396 l 1,1,-1
 341 54 l 1,2,-1
 287 0 l 1,3,-1
 233 0 l 1,4,-1
 179 54 l 1,5,-1
 179 329 l 1,6,-1
 166 342 l 1,7,-1
 119 342 l 1,8,-1
 152 309 l 1,9,-1
 152 249 l 1,10,-1
 110 207 l 1,11,-1
 50 207 l 1,12,-1
 8 249 l 1,13,-1
 8 342 l 1,14,-1
 62 396 l 1,15,-1
 179 396 l 1,16,-1
 233 342 l 1,17,-1
 233 77 l 1,18,-1
 255 54 l 1,19,-1
 265 54 l 1,20,-1
 287 76 l 1,21,-1
 287 396 l 1,0,-1
107 268 m 1,22,-1
 107 290 l 1,23,-1
 91 306 l 1,24,-1
 69 306 l 1,25,-1
 53 290 l 1,26,-1
 53 268 l 1,27,-1
 69 252 l 1,28,-1
 91 252 l 1,29,-1
 107 268 l 1,22,-1
EndSplineSet
EndChar
StartChar: uni0E03
Encoding: 3587 3587 214
Width: 402
Flags: W
Fore
286 396 m 1,0,-1
 340 396 l 1,1,-1
 340 53 l 1,2,-1
 286 0 l 1,3,-1
 232 0 l 1,4,-1
 178 54 l 1,5,-1
 178 278 l 1,6,-1
 223 323 l 1,7,-1
 223 341 l 1,8,-1
 214 351 l 1,9,-1
 205 351 l 1,10,-1
 178 323 l 1,11,-1
 151 351 l 1,12,-1
 127 351 l 1,13,-1
 160 317 l 1,14,-1
 160 258 l 1,15,-1
 118 216 l 1,16,-1
 58 216 l 1,17,-1
 16 258 l 1,18,-1
 16 342 l 1,19,-1
 70 396 l 1,20,-1
 156 396 l 1,21,-1
 178 374 l 1,22,-1
 199 396 l 1,23,-1
 232 396 l 1,24,-1
 268 360 l 1,25,-1
 268 305 l 1,26,-1
 232 269 l 1,27,-1
 232 76 l 1,28,-1
 254 54 l 1,29,-1
 264 54 l 1,30,-1
 286 76 l 1,31,-1
 286 396 l 1,0,-1
115 277 m 1,32,-1
 115 299 l 1,33,-1
 99 315 l 1,34,-1
 77 315 l 1,35,-1
 61 299 l 1,36,-1
 61 277 l 1,37,-1
 77 261 l 1,38,-1
 99 261 l 1,39,-1
 115 277 l 1,32,-1
EndSplineSet
EndChar
StartChar: uni0E04
Encoding: 3588 3588 215
Width: 433
Flags: W
Fore
317 395 m 1,0,-1
 371 341 l 1,1,-1
 371 0 l 1,2,-1
 317 0 l 1,3,-1
 317 319 l 1,4,-1
 295 341 l 1,5,-1
 124 341 l 1,6,-1
 102 319 l 1,7,-1
 102 200 l 1,8,-1
 180 278 l 1,9,-1
 239 278 l 1,10,-1
 281 236 l 1,11,-1
 281 177 l 1,12,-1
 239 134 l 1,13,-1
 180 134 l 1,14,-1
 143 171 l 1,15,-1
 102 130 l 1,16,-1
 102 0 l 1,17,-1
 48 0 l 1,18,-1
 48 342 l 1,19,-1
 101 395 l 1,20,-1
 317 395 l 1,0,-1
183 218 m 1,21,-1
 183 195 l 1,22,-1
 198 180 l 1,23,-1
 221 180 l 1,24,-1
 236 195 l 1,25,-1
 236 218 l 1,26,-1
 221 233 l 1,27,-1
 198 233 l 1,28,-1
 183 218 l 1,21,-1
EndSplineSet
EndChar
StartChar: uni0E05
Encoding: 3589 3589 216
Width: 433
Flags: W
Fore
317 396 m 1,0,-1
 371 342 l 1,1,-1
 371 0 l 1,2,-1
 317 0 l 1,3,-1
 317 319 l 1,4,-1
 295 342 l 1,5,-1
 254 342 l 1,6,-1
 209 296 l 1,7,-1
 164 342 l 1,8,-1
 123 342 l 1,9,-1
 101 320 l 1,10,-1
 101 200 l 1,11,-1
 179 279 l 1,12,-1
 239 279 l 1,13,-1
 281 237 l 1,14,-1
 281 177 l 1,15,-1
 239 135 l 1,16,-1
 179 135 l 1,17,-1
 142 172 l 1,18,-1
 101 130 l 1,19,-1
 101 0 l 1,20,-1
 47 0 l 1,21,-1
 47 342 l 1,22,-1
 101 396 l 1,23,-1
 186 396 l 1,24,-1
 209 373 l 1,25,-1
 232 396 l 1,26,-1
 317 396 l 1,0,-1
182 218 m 1,27,-1
 182 196 l 1,28,-1
 198 180 l 1,29,-1
 220 180 l 1,30,-1
 236 196 l 1,31,-1
 236 218 l 1,32,-1
 220 234 l 1,33,-1
 198 234 l 1,34,-1
 182 218 l 1,27,-1
EndSplineSet
EndChar
StartChar: uni0E06
Encoding: 3590 3590 217
Width: 474
Flags: W
Fore
358 396 m 1,0,-1
 412 396 l 1,1,-1
 412 0 l 1,2,-1
 358 0 l 1,3,-1
 250 62 l 1,4,-1
 250 43 l 1,5,-1
 208 0 l 1,6,-1
 148 0 l 1,7,-1
 106 43 l 1,8,-1
 106 102 l 1,9,-1
 148 144 l 1,10,-1
 178 144 l 1,11,-1
 178 279 l 1,12,-1
 223 324 l 1,13,-1
 223 342 l 1,14,-1
 214 351 l 1,15,-1
 205 351 l 1,16,-1
 178 324 l 1,17,-1
 151 351 l 1,18,-1
 127 351 l 1,19,-1
 160 318 l 1,20,-1
 160 258 l 1,21,-1
 118 216 l 1,22,-1
 58 216 l 1,23,-1
 16 258 l 1,24,-1
 16 343 l 1,25,-1
 70 396 l 1,26,-1
 157 396 l 1,27,-1
 178 375 l 1,28,-1
 199 396 l 1,29,-1
 232 396 l 1,30,-1
 268 360 l 1,31,-1
 268 305 l 1,32,-1
 232 269 l 1,33,-1
 232 129 l 1,34,-1
 358 57 l 1,35,-1
 358 396 l 1,0,-1
115 277 m 1,36,-1
 115 300 l 1,37,-1
 99 315 l 1,38,-1
 77 315 l 1,39,-1
 61 300 l 1,40,-1
 61 277 l 1,41,-1
 77 262 l 1,42,-1
 99 262 l 1,43,-1
 115 277 l 1,36,-1
205 61 m 1,44,-1
 205 84 l 1,45,-1
 197 92 l 1,46,-1
 184 99 l 1,47,-1
 167 99 l 1,48,-1
 151 84 l 1,49,-1
 151 61 l 1,50,-1
 167 46 l 1,51,-1
 189 46 l 1,52,-1
 205 61 l 1,44,-1
EndSplineSet
EndChar
StartChar: uni0E07
Encoding: 3591 3591 218
Width: 335
Flags: W
Fore
239 396 m 1,0,-1
 281 354 l 1,1,-1
 281 0 l 1,2,-1
 227 0 l 1,3,-1
 34 258 l 1,4,-1
 73 288 l 1,5,-1
 227 83 l 1,6,-1
 227 252 l 1,7,-1
 179 252 l 1,8,-1
 137 294 l 1,9,-1
 137 354 l 1,10,-1
 179 396 l 1,11,-1
 239 396 l 1,0,-1
198 297 m 1,12,-1
 220 297 l 1,13,-1
 236 313 l 1,14,-1
 236 335 l 1,15,-1
 220 351 l 1,16,-1
 198 351 l 1,17,-1
 182 335 l 1,18,-1
 182 313 l 1,19,-1
 198 297 l 1,12,-1
EndSplineSet
EndChar
StartChar: uni0E08
Encoding: 3592 3592 219
Width: 405
Flags: W
Fore
297 396 m 1,0,-1
 351 342 l 1,1,-1
 351 0 l 1,2,-1
 297 0 l 1,3,-1
 297 129 l 1,4,-1
 255 172 l 1,5,-1
 218 135 l 1,6,-1
 158 135 l 1,7,-1
 116 177 l 1,8,-1
 116 236 l 1,9,-1
 158 279 l 1,10,-1
 218 279 l 1,11,-1
 297 199 l 1,12,-1
 297 319 l 1,13,-1
 275 342 l 1,14,-1
 103 342 l 1,15,-1
 81 319 l 1,16,-1
 81 297 l 1,17,-1
 27 297 l 1,18,-1
 27 342 l 1,19,-1
 81 396 l 1,20,-1
 297 396 l 1,0,-1
215 196 m 1,21,-1
 215 218 l 1,22,-1
 199 234 l 1,23,-1
 177 234 l 1,24,-1
 161 218 l 1,25,-1
 161 196 l 1,26,-1
 177 180 l 1,27,-1
 199 180 l 1,28,-1
 215 196 l 1,21,-1
EndSplineSet
EndChar
StartChar: uni0E09
Encoding: 3593 3593 220
Width: 437
Flags: W
Fore
362 144 m 1,0,-1
 405 102 l 1,1,-1
 405 42 l 1,2,-1
 362 0 l 1,3,-1
 303 0 l 1,4,-1
 261 42 l 1,5,-1
 261 51 l 1,6,-1
 189 0 l 1,7,-1
 135 0 l 1,8,-1
 135 135 l 1,9,-1
 87 135 l 1,10,-1
 45 177 l 1,11,-1
 45 237 l 1,12,-1
 87 279 l 1,13,-1
 147 279 l 1,14,-1
 189 237 l 1,15,-1
 189 61 l 1,16,-1
 297 138 l 1,17,-1
 297 320 l 1,18,-1
 274 342 l 1,19,-1
 103 342 l 1,20,-1
 81 320 l 1,21,-1
 81 297 l 1,22,-1
 27 297 l 1,23,-1
 27 342 l 1,24,-1
 80 396 l 1,25,-1
 297 396 l 1,26,-1
 351 342 l 1,27,-1
 351 144 l 1,28,-1
 362 144 l 1,0,-1
106 180 m 1,29,-1
 128 180 l 1,30,-1
 143 196 l 1,31,-1
 143 218 l 1,32,-1
 128 234 l 1,33,-1
 106 234 l 1,34,-1
 90 218 l 1,35,-1
 90 196 l 1,36,-1
 106 180 l 1,29,-1
360 61 m 1,37,-1
 360 83 l 1,38,-1
 344 99 l 1,39,-1
 328 99 l 1,40,-1
 306 83 l 1,41,-1
 306 61 l 1,42,-1
 322 45 l 1,43,-1
 344 45 l 1,44,-1
 360 61 l 1,37,-1
EndSplineSet
EndChar
StartChar: uni0E0A
Encoding: 3594 3594 221
Width: 395
Flags: W
Fore
321 351 m 1,0,-1
 341 331 l 1,1,-1
 341 54 l 1,2,-1
 288 0 l 1,3,-1
 233 0 l 1,4,-1
 179 54 l 1,5,-1
 179 329 l 1,6,-1
 166 342 l 1,7,-1
 119 342 l 1,8,-1
 152 309 l 1,9,-1
 152 249 l 1,10,-1
 110 207 l 1,11,-1
 51 207 l 1,12,-1
 9 249 l 1,13,-1
 9 342 l 1,14,-1
 62 396 l 1,15,-1
 179 396 l 1,16,-1
 233 342 l 1,17,-1
 233 76 l 1,18,-1
 256 54 l 1,19,-1
 265 54 l 1,20,-1
 287 76 l 1,21,-1
 287 315 l 1,22,-1
 251 351 l 1,23,-1
 359 459 l 1,24,-1
 394 424 l 1,25,-1
 321 351 l 1,0,-1
107 268 m 1,26,-1
 107 290 l 1,27,-1
 92 306 l 1,28,-1
 69 306 l 1,29,-1
 54 290 l 1,30,-1
 54 268 l 1,31,-1
 69 252 l 1,32,-1
 92 252 l 1,33,-1
 107 268 l 1,26,-1
EndSplineSet
EndChar
StartChar: uni0E0B
Encoding: 3595 3595 222
Width: 401
Flags: W
Fore
393 423 m 1,0,-1
 320 350 l 1,1,-1
 340 330 l 1,2,-1
 340 53 l 1,3,-1
 286 0 l 1,4,-1
 232 0 l 1,5,-1
 178 54 l 1,6,-1
 178 278 l 1,7,-1
 223 323 l 1,8,-1
 223 341 l 1,9,-1
 214 351 l 1,10,-1
 205 351 l 1,11,-1
 178 323 l 1,12,-1
 150 351 l 1,13,-1
 127 351 l 1,14,-1
 160 317 l 1,15,-1
 160 258 l 1,16,-1
 118 216 l 1,17,-1
 58 216 l 1,18,-1
 16 258 l 1,19,-1
 16 342 l 1,20,-1
 70 395 l 1,21,-1
 156 395 l 1,22,-1
 178 374 l 1,23,-1
 199 395 l 1,24,-1
 232 395 l 1,25,-1
 263 364 l 1,26,-1
 358 458 l 1,27,-1
 393 423 l 1,0,-1
115 277 m 1,28,-1
 115 299 l 1,29,-1
 99 315 l 1,30,-1
 77 315 l 1,31,-1
 61 299 l 1,32,-1
 61 277 l 1,33,-1
 77 261 l 1,34,-1
 99 261 l 1,35,-1
 115 277 l 1,28,-1
286 314 m 1,36,-1
 268 332 l 1,37,-1
 268 305 l 1,38,-1
 232 269 l 1,39,-1
 232 76 l 1,40,-1
 254 54 l 1,41,-1
 264 54 l 1,42,-1
 286 76 l 1,43,-1
 286 314 l 1,36,-1
EndSplineSet
EndChar
StartChar: uni0E0C
Encoding: 3596 3596 223
Width: 587
Flags: W
Fore
533 396 m 1,0,-1
 533 0 l 1,1,-1
 479 0 l 1,2,-1
 371 61 l 1,3,-1
 371 42 l 1,4,-1
 329 0 l 1,5,-1
 269 0 l 1,6,-1
 227 42 l 1,7,-1
 227 102 l 1,8,-1
 269 144 l 1,9,-1
 299 144 l 1,10,-1
 299 320 l 1,11,-1
 277 342 l 1,12,-1
 106 342 l 1,13,-1
 164 284 l 1,14,-1
 101 221 l 1,15,-1
 101 144 l 1,16,-1
 149 144 l 1,17,-1
 191 102 l 1,18,-1
 191 42 l 1,19,-1
 149 0 l 1,20,-1
 89 0 l 1,21,-1
 47 42 l 1,22,-1
 47 244 l 1,23,-1
 87 284 l 1,24,-1
 29 342 l 1,25,-1
 83 396 l 1,26,-1
 299 396 l 1,27,-1
 353 342 l 1,28,-1
 353 129 l 1,29,-1
 479 57 l 1,30,-1
 479 396 l 1,31,-1
 533 396 l 1,0,-1
130 99 m 1,32,-1
 108 99 l 1,33,-1
 92 83 l 1,34,-1
 92 61 l 1,35,-1
 108 45 l 1,36,-1
 130 45 l 1,37,-1
 146 61 l 1,38,-1
 146 83 l 1,39,-1
 130 99 l 1,32,-1
326 83 m 1,40,-1
 318 92 l 1,41,-1
 305 99 l 1,42,-1
 288 99 l 1,43,-1
 272 83 l 1,44,-1
 272 61 l 1,45,-1
 288 45 l 1,46,-1
 310 45 l 1,47,-1
 326 61 l 1,48,-1
 326 83 l 1,40,-1
EndSplineSet
EndChar
StartChar: uni0E0D
Encoding: 3597 3597 224
Width: 587
Flags: W
Fore
299 320 m 1,0,-1
 277 342 l 1,1,-1
 106 342 l 1,2,-1
 164 284 l 1,3,-1
 101 221 l 1,4,-1
 101 144 l 1,5,-1
 149 144 l 1,6,-1
 191 102 l 1,7,-1
 191 42 l 1,8,-1
 149 0 l 1,9,-1
 90 0 l 1,10,-1
 47 42 l 1,11,-1
 47 244 l 1,12,-1
 88 284 l 1,13,-1
 30 342 l 1,14,-1
 83 396 l 1,15,-1
 299 396 l 1,16,-1
 353 342 l 1,17,-1
 353 54 l 1,18,-1
 457 54 l 1,19,-1
 479 76 l 1,20,-1
 479 396 l 1,21,-1
 533 396 l 1,22,-1
 533 54 l 1,23,-1
 479 0 l 1,24,-1
 299 0 l 1,25,-1
 299 320 l 1,0,-1
108 99 m 1,26,-1
 92 83 l 1,27,-1
 92 61 l 1,28,-1
 108 45 l 1,29,-1
 130 45 l 1,30,-1
 146 61 l 1,31,-1
 146 83 l 1,32,-1
 130 99 l 1,33,-1
 108 99 l 1,26,-1
496 -72 m 1,34,-1
 534 -110 l 1,35,-1
 464 -181 l 1,36,-1
 336 -181 l 1,37,-1
 299 -144 l 1,38,-1
 299 -92 l 1,39,-1
 336 -55 l 1,40,-1
 388 -55 l 1,41,-1
 425 -92 l 1,42,-1
 425 -127 l 1,43,-1
 442 -127 l 1,44,-1
 496 -72 l 1,34,-1
380 -125 m 1,45,-1
 380 -110 l 1,46,-1
 370 -100 l 1,47,-1
 355 -100 l 1,48,-1
 344 -110 l 1,49,-1
 344 -125 l 1,50,-1
 355 -136 l 1,51,-1
 370 -136 l 1,52,-1
 380 -125 l 1,45,-1
EndSplineSet
Substitution: 0 65534 'L026' uni0E0D.alt1
Substitution: 0 65534 'L026' uni0E0D.alt1
EndChar
StartChar: uni0E0E
Encoding: 3598 3598 225
Width: 456
Flags: W
Fore
349 396 m 1,0,-1
 403 342 l 1,1,-1
 403 -180 l 1,2,-1
 349 -180 l 1,3,-1
 312 -143 l 1,4,-1
 275 -180 l 1,5,-1
 139 -180 l 1,6,-1
 97 -138 l 1,7,-1
 97 -78 l 1,8,-1
 139 -36 l 1,9,-1
 275 -36 l 1,10,-1
 349 -110 l 1,11,-1
 349 320 l 1,12,-1
 327 342 l 1,13,-1
 156 342 l 1,14,-1
 214 284 l 1,15,-1
 151 221 l 1,16,-1
 151 42 l 1,17,-1
 109 0 l 1,18,-1
 49 0 l 1,19,-1
 7 42 l 1,20,-1
 7 102 l 1,21,-1
 49 144 l 1,22,-1
 97 144 l 1,23,-1
 97 244 l 1,24,-1
 137 284 l 1,25,-1
 79 342 l 1,26,-1
 133 396 l 1,27,-1
 349 396 l 1,0,-1
106 61 m 1,28,-1
 106 83 l 1,29,-1
 90 99 l 1,30,-1
 68 99 l 1,31,-1
 52 83 l 1,32,-1
 52 61 l 1,33,-1
 68 45 l 1,34,-1
 90 45 l 1,35,-1
 106 61 l 1,28,-1
250 -126 m 1,36,-1
 268 -108 l 1,37,-1
 250 -90 l 1,38,-1
 161 -90 l 1,39,-1
 151 -100 l 1,40,-1
 151 -115 l 1,41,-1
 161 -126 l 1,42,-1
 250 -126 l 1,36,-1
EndSplineSet
Substitution: 0 65534 'L026' uni0E0E.alt1
Substitution: 0 65534 'L026' uni0E0E.alt1
EndChar
StartChar: uni0E0F
Encoding: 3599 3599 226
Width: 456
Flags: W
Fore
350 396 m 1,0,-1
 403 342 l 1,1,-1
 403 -180 l 1,2,-1
 349 -180 l 1,3,-1
 312 -142 l 1,4,-1
 274 -180 l 1,5,-1
 236 -143 l 1,6,-1
 199 -180 l 1,7,-1
 140 -180 l 1,8,-1
 98 -138 l 1,9,-1
 98 -78 l 1,10,-1
 140 -36 l 1,11,-1
 199 -36 l 1,12,-1
 274 -110 l 1,13,-1
 312 -72 l 1,14,-1
 349 -110 l 1,15,-1
 349 320 l 1,16,-1
 327 342 l 1,17,-1
 156 342 l 1,18,-1
 214 284 l 1,19,-1
 152 221 l 1,20,-1
 152 42 l 1,21,-1
 109 0 l 1,22,-1
 50 0 l 1,23,-1
 8 42 l 1,24,-1
 8 102 l 1,25,-1
 50 144 l 1,26,-1
 98 144 l 1,27,-1
 98 244 l 1,28,-1
 138 284 l 1,29,-1
 80 342 l 1,30,-1
 133 396 l 1,31,-1
 350 396 l 1,0,-1
106 61 m 1,32,-1
 106 83 l 1,33,-1
 91 99 l 1,34,-1
 68 99 l 1,35,-1
 53 83 l 1,36,-1
 53 61 l 1,37,-1
 68 45 l 1,38,-1
 91 45 l 1,39,-1
 106 61 l 1,32,-1
188 -115 m 1,40,-1
 188 -100 l 1,41,-1
 177 -90 l 1,42,-1
 162 -90 l 1,43,-1
 152 -100 l 1,44,-1
 152 -115 l 1,45,-1
 162 -126 l 1,46,-1
 177 -126 l 1,47,-1
 188 -115 l 1,40,-1
EndSplineSet
Substitution: 0 65534 'L026' uni0E0F.alt1
Substitution: 0 65534 'L026' uni0E0F.alt1
EndChar
StartChar: uni0E10
Encoding: 3600 3600 227
Width: 396
Flags: W
Fore
352 342 m 1,0,-1
 104 342 l 1,1,-1
 94 332 l 1,2,-1
 334 270 l 1,3,-1
 334 0 l 1,4,-1
 280 0 l 1,5,-1
 280 86 l 1,6,-1
 239 127 l 1,7,-1
 202 90 l 1,8,-1
 142 90 l 1,9,-1
 100 133 l 1,10,-1
 100 192 l 1,11,-1
 142 234 l 1,12,-1
 202 234 l 1,13,-1
 280 156 l 1,14,-1
 280 233 l 1,15,-1
 29 297 l 1,16,-1
 28 297 l 1,17,-1
 28 342 l 1,18,-1
 82 396 l 1,19,-1
 352 396 l 1,20,-1
 352 342 l 1,0,-1
199 151 m 1,21,-1
 199 174 l 1,22,-1
 183 189 l 1,23,-1
 161 189 l 1,24,-1
 145 174 l 1,25,-1
 145 151 l 1,26,-1
 161 136 l 1,27,-1
 183 136 l 1,28,-1
 199 151 l 1,21,-1
297 -54 m 1,29,-1
 334 -91 l 1,30,-1
 334 -144 l 1,31,-1
 297 -180 l 1,32,-1
 245 -180 l 1,33,-1
 181 -117 l 1,34,-1
 126 -171 l 1,35,-1
 39 -85 l 1,36,-1
 71 -53 l 1,37,-1
 126 -108 l 1,38,-1
 181 -53 l 1,39,-1
 214 -86 l 1,40,-1
 245 -54 l 1,41,-1
 297 -54 l 1,29,-1
289 -125 m 1,42,-1
 289 -110 l 1,43,-1
 278 -99 l 1,44,-1
 264 -99 l 1,45,-1
 253 -110 l 1,46,-1
 253 -125 l 1,47,-1
 264 -135 l 1,48,-1
 278 -135 l 1,49,-1
 289 -125 l 1,42,-1
EndSplineSet
Substitution: 0 65534 'L026' uni0E10.alt1
Substitution: 0 65534 'L026' uni0E10.alt1
EndChar
StartChar: uni0E11
Encoding: 3601 3601 228
Width: 509
Flags: W
Fore
394 396 m 1,0,-1
 448 342 l 1,1,-1
 448 0 l 1,2,-1
 394 0 l 1,3,-1
 394 320 l 1,4,-1
 371 342 l 1,5,-1
 355 342 l 1,6,-1
 232 0 l 1,7,-1
 178 0 l 1,8,-1
 178 279 l 1,9,-1
 223 324 l 1,10,-1
 223 342 l 1,11,-1
 214 351 l 1,12,-1
 205 351 l 1,13,-1
 178 324 l 1,14,-1
 150 351 l 1,15,-1
 127 351 l 1,16,-1
 160 318 l 1,17,-1
 160 258 l 1,18,-1
 118 216 l 1,19,-1
 58 216 l 1,20,-1
 16 258 l 1,21,-1
 16 343 l 1,22,-1
 70 396 l 1,23,-1
 156 396 l 1,24,-1
 178 375 l 1,25,-1
 199 396 l 1,26,-1
 232 396 l 1,27,-1
 268 360 l 1,28,-1
 268 305 l 1,29,-1
 232 269 l 1,30,-1
 232 147 l 1,31,-1
 322 396 l 1,32,-1
 394 396 l 1,0,-1
115 277 m 1,33,-1
 115 300 l 1,34,-1
 99 315 l 1,35,-1
 77 315 l 1,36,-1
 61 300 l 1,37,-1
 61 277 l 1,38,-1
 77 262 l 1,39,-1
 99 262 l 1,40,-1
 115 277 l 1,33,-1
EndSplineSet
EndChar
StartChar: uni0E12
Encoding: 3602 3602 229
Width: 613
Flags: W
Fore
498 396 m 1,0,-1
 552 396 l 1,1,-1
 552 0 l 1,2,-1
 498 0 l 1,3,-1
 390 61 l 1,4,-1
 390 42 l 1,5,-1
 348 0 l 1,6,-1
 288 0 l 1,7,-1
 246 42 l 1,8,-1
 246 102 l 1,9,-1
 288 144 l 1,10,-1
 318 144 l 1,11,-1
 318 319 l 1,12,-1
 295 342 l 1,13,-1
 255 342 l 1,14,-1
 248 335 l 1,15,-1
 210 296 l 1,16,-1
 172 335 l 1,17,-1
 165 342 l 1,18,-1
 124 342 l 1,19,-1
 102 320 l 1,20,-1
 102 69 l 1,21,-1
 175 140 l 1,22,-1
 138 177 l 1,23,-1
 138 237 l 1,24,-1
 180 279 l 1,25,-1
 240 279 l 1,26,-1
 282 237 l 1,27,-1
 282 177 l 1,28,-1
 102 0 l 1,29,-1
 48 0 l 1,30,-1
 48 342 l 1,31,-1
 102 396 l 1,32,-1
 187 396 l 1,33,-1
 210 373 l 1,34,-1
 233 396 l 1,35,-1
 318 396 l 1,36,-1
 372 342 l 1,37,-1
 372 129 l 1,38,-1
 498 57 l 1,39,-1
 498 396 l 1,0,-1
183 218 m 1,40,-1
 183 196 l 1,41,-1
 199 180 l 1,42,-1
 221 180 l 1,43,-1
 237 196 l 1,44,-1
 237 218 l 1,45,-1
 221 234 l 1,46,-1
 199 234 l 1,47,-1
 183 218 l 1,40,-1
345 83 m 1,48,-1
 336 92 l 1,49,-1
 324 99 l 1,50,-1
 307 99 l 1,51,-1
 291 83 l 1,52,-1
 291 61 l 1,53,-1
 307 45 l 1,54,-1
 329 45 l 1,55,-1
 345 61 l 1,56,-1
 345 83 l 1,48,-1
EndSplineSet
EndChar
StartChar: uni0E13
Encoding: 3603 3603 230
Width: 619
Flags: W
Fore
546 144 m 1,0,-1
 588 101 l 1,1,-1
 588 42 l 1,2,-1
 546 0 l 1,3,-1
 486 0 l 1,4,-1
 444 42 l 1,5,-1
 444 59 l 1,6,-1
 352 0 l 1,7,-1
 300 0 l 1,8,-1
 300 319 l 1,9,-1
 278 341 l 1,10,-1
 107 341 l 1,11,-1
 165 283 l 1,12,-1
 102 221 l 1,13,-1
 102 144 l 1,14,-1
 150 144 l 1,15,-1
 192 101 l 1,16,-1
 192 42 l 1,17,-1
 150 0 l 1,18,-1
 90 0 l 1,19,-1
 48 42 l 1,20,-1
 48 243 l 1,21,-1
 88 283 l 1,22,-1
 30 342 l 1,23,-1
 84 395 l 1,24,-1
 300 395 l 1,25,-1
 354 341 l 1,26,-1
 354 59 l 1,27,-1
 480 143 l 1,28,-1
 480 395 l 1,29,-1
 534 395 l 1,30,-1
 534 144 l 1,31,-1
 546 144 l 1,0,-1
131 99 m 1,32,-1
 109 99 l 1,33,-1
 93 83 l 1,34,-1
 93 61 l 1,35,-1
 109 45 l 1,36,-1
 131 45 l 1,37,-1
 147 61 l 1,38,-1
 147 83 l 1,39,-1
 131 99 l 1,32,-1
543 61 m 1,40,-1
 543 83 l 1,41,-1
 527 99 l 1,42,-1
 505 99 l 1,43,-1
 489 83 l 1,44,-1
 489 61 l 1,45,-1
 505 45 l 1,46,-1
 527 45 l 1,47,-1
 543 61 l 1,40,-1
EndSplineSet
EndChar
StartChar: uni0E14
Encoding: 3604 3604 231
Width: 434
Flags: W
Fore
318 396 m 1,0,-1
 372 342 l 1,1,-1
 372 0 l 1,2,-1
 318 0 l 1,3,-1
 318 319 l 1,4,-1
 296 342 l 1,5,-1
 125 342 l 1,6,-1
 102 320 l 1,7,-1
 102 69 l 1,8,-1
 175 140 l 1,9,-1
 138 177 l 1,10,-1
 138 237 l 1,11,-1
 181 279 l 1,12,-1
 240 279 l 1,13,-1
 282 237 l 1,14,-1
 282 177 l 1,15,-1
 103 0 l 1,16,-1
 49 0 l 1,17,-1
 49 342 l 1,18,-1
 102 396 l 1,19,-1
 318 396 l 1,0,-1
184 218 m 1,20,-1
 184 196 l 1,21,-1
 199 180 l 1,22,-1
 222 180 l 1,23,-1
 237 196 l 1,24,-1
 237 218 l 1,25,-1
 222 234 l 1,26,-1
 199 234 l 1,27,-1
 184 218 l 1,20,-1
EndSplineSet
EndChar
StartChar: uni0E15
Encoding: 3605 3605 232
Width: 433
Flags: W
Fore
318 395 m 1,0,-1
 372 341 l 1,1,-1
 372 0 l 1,2,-1
 318 0 l 1,3,-1
 318 319 l 1,4,-1
 295 341 l 1,5,-1
 255 341 l 1,6,-1
 210 296 l 1,7,-1
 165 341 l 1,8,-1
 124 341 l 1,9,-1
 102 319 l 1,10,-1
 102 69 l 1,11,-1
 175 140 l 1,12,-1
 138 177 l 1,13,-1
 138 236 l 1,14,-1
 180 278 l 1,15,-1
 240 278 l 1,16,-1
 282 236 l 1,17,-1
 282 177 l 1,18,-1
 102 0 l 1,19,-1
 48 0 l 1,20,-1
 48 342 l 1,21,-1
 102 395 l 1,22,-1
 187 395 l 1,23,-1
 210 372 l 1,24,-1
 233 395 l 1,25,-1
 318 395 l 1,0,-1
183 218 m 1,26,-1
 183 195 l 1,27,-1
 199 180 l 1,28,-1
 221 180 l 1,29,-1
 237 195 l 1,30,-1
 237 218 l 1,31,-1
 221 233 l 1,32,-1
 199 233 l 1,33,-1
 183 218 l 1,26,-1
EndSplineSet
EndChar
StartChar: uni0E16
Encoding: 3606 3606 233
Width: 406
Flags: W
Fore
298 396 m 1,0,-1
 352 342 l 1,1,-1
 352 0 l 1,2,-1
 298 0 l 1,3,-1
 298 319 l 1,4,-1
 275 342 l 1,5,-1
 105 342 l 1,6,-1
 162 284 l 1,7,-1
 100 221 l 1,8,-1
 100 144 l 1,9,-1
 148 144 l 1,10,-1
 190 102 l 1,11,-1
 190 42 l 1,12,-1
 148 0 l 1,13,-1
 88 0 l 1,14,-1
 46 42 l 1,15,-1
 46 243 l 1,16,-1
 86 284 l 1,17,-1
 28 342 l 1,18,-1
 82 396 l 1,19,-1
 298 396 l 1,0,-1
129 99 m 1,20,-1
 107 99 l 1,21,-1
 91 83 l 1,22,-1
 91 61 l 1,23,-1
 107 45 l 1,24,-1
 129 45 l 1,25,-1
 145 61 l 1,26,-1
 145 83 l 1,27,-1
 129 99 l 1,20,-1
EndSplineSet
EndChar
StartChar: uni0E17
Encoding: 3607 3607 234
Width: 457
Flags: W
Fore
349 396 m 1,0,-1
 403 342 l 1,1,-1
 403 0 l 1,2,-1
 349 0 l 1,3,-1
 349 319 l 1,4,-1
 327 342 l 1,5,-1
 307 342 l 1,6,-1
 151 0 l 1,7,-1
 97 0 l 1,8,-1
 97 252 l 1,9,-1
 50 252 l 1,10,-1
 8 294 l 1,11,-1
 8 353 l 1,12,-1
 50 396 l 1,13,-1
 109 396 l 1,14,-1
 151 353 l 1,15,-1
 151 120 l 1,16,-1
 277 396 l 1,17,-1
 349 396 l 1,0,-1
68 297 m 1,18,-1
 91 297 l 1,19,-1
 106 313 l 1,20,-1
 106 335 l 1,21,-1
 91 351 l 1,22,-1
 68 351 l 1,23,-1
 53 335 l 1,24,-1
 53 313 l 1,25,-1
 68 297 l 1,18,-1
EndSplineSet
EndChar
StartChar: uni0E18
Encoding: 3608 3608 235
Width: 386
Flags: W
Fore
333 342 m 1,0,-1
 103 342 l 1,1,-1
 94 332 l 1,2,-1
 333 279 l 1,3,-1
 333 54 l 1,4,-1
 279 0 l 1,5,-1
 99 0 l 1,6,-1
 45 54 l 1,7,-1
 45 252 l 1,8,-1
 99 252 l 1,9,-1
 99 76 l 1,10,-1
 121 54 l 1,11,-1
 257 54 l 1,12,-1
 279 76 l 1,13,-1
 279 240 l 1,14,-1
 27 296 l 1,15,-1
 27 342 l 1,16,-1
 81 396 l 1,17,-1
 333 396 l 1,18,-1
 333 342 l 1,0,-1
EndSplineSet
EndChar
StartChar: uni0E19
Encoding: 3609 3609 236
Width: 454
Flags: W
Fore
380 144 m 1,0,-1
 422 102 l 1,1,-1
 422 42 l 1,2,-1
 380 0 l 1,3,-1
 320 0 l 1,4,-1
 278 42 l 1,5,-1
 278 65 l 1,6,-1
 152 0 l 1,7,-1
 98 0 l 1,8,-1
 98 252 l 1,9,-1
 51 252 l 1,10,-1
 9 294 l 1,11,-1
 9 353 l 1,12,-1
 51 396 l 1,13,-1
 110 396 l 1,14,-1
 152 353 l 1,15,-1
 152 56 l 1,16,-1
 314 139 l 1,17,-1
 314 396 l 1,18,-1
 368 396 l 1,19,-1
 368 144 l 1,20,-1
 380 144 l 1,0,-1
69 297 m 1,21,-1
 92 297 l 1,22,-1
 107 313 l 1,23,-1
 107 335 l 1,24,-1
 92 351 l 1,25,-1
 69 351 l 1,26,-1
 54 335 l 1,27,-1
 54 313 l 1,28,-1
 69 297 l 1,21,-1
377 61 m 1,29,-1
 377 83 l 1,30,-1
 362 99 l 1,31,-1
 344 99 l 1,32,-1
 334 93 l 1,33,-1
 324 83 l 1,34,-1
 324 61 l 1,35,-1
 339 45 l 1,36,-1
 362 45 l 1,37,-1
 377 61 l 1,29,-1
EndSplineSet
EndChar
StartChar: uni0E1A
Encoding: 3610 3610 237
Width: 440
Flags: W
Fore
332 396 m 1,0,-1
 386 396 l 1,1,-1
 386 54 l 1,2,-1
 333 0 l 1,3,-1
 152 0 l 1,4,-1
 99 54 l 1,5,-1
 99 252 l 1,6,-1
 51 252 l 1,7,-1
 9 294 l 1,8,-1
 9 353 l 1,9,-1
 51 396 l 1,10,-1
 110 396 l 1,11,-1
 153 353 l 1,12,-1
 153 76 l 1,13,-1
 175 54 l 1,14,-1
 310 54 l 1,15,-1
 332 76 l 1,16,-1
 332 396 l 1,0,-1
70 297 m 1,17,-1
 92 297 l 1,18,-1
 108 313 l 1,19,-1
 108 335 l 1,20,-1
 92 351 l 1,21,-1
 70 351 l 1,22,-1
 54 335 l 1,23,-1
 54 313 l 1,24,-1
 70 297 l 1,17,-1
EndSplineSet
EndChar
StartChar: uni0E1B
Encoding: 3611 3611 238
Width: 441
Flags: W
Fore
333 576 m 1,0,-1
 387 576 l 1,1,-1
 387 54 l 1,2,-1
 333 0 l 1,3,-1
 153 0 l 1,4,-1
 99 54 l 1,5,-1
 99 252 l 1,6,-1
 51 252 l 1,7,-1
 9 294 l 1,8,-1
 9 354 l 1,9,-1
 51 396 l 1,10,-1
 111 396 l 1,11,-1
 153 354 l 1,12,-1
 153 77 l 1,13,-1
 175 54 l 1,14,-1
 311 54 l 1,15,-1
 333 76 l 1,16,-1
 333 576 l 1,0,-1
70 297 m 1,17,-1
 92 297 l 1,18,-1
 108 313 l 1,19,-1
 108 335 l 1,20,-1
 92 351 l 1,21,-1
 70 351 l 1,22,-1
 54 335 l 1,23,-1
 54 313 l 1,24,-1
 70 297 l 1,17,-1
EndSplineSet
EndChar
StartChar: uni0E1C
Encoding: 3612 3612 239
Width: 432
Flags: W
Fore
317 395 m 1,0,-1
 371 395 l 1,1,-1
 371 0 l 1,2,-1
 317 0 l 1,3,-1
 210 116 l 1,4,-1
 102 0 l 1,5,-1
 48 0 l 1,6,-1
 48 353 l 1,7,-1
 90 395 l 1,8,-1
 149 395 l 1,9,-1
 191 353 l 1,10,-1
 191 294 l 1,11,-1
 149 251 l 1,12,-1
 102 251 l 1,13,-1
 102 72 l 1,14,-1
 210 189 l 1,15,-1
 317 73 l 1,16,-1
 317 395 l 1,0,-1
93 335 m 1,17,-1
 93 312 l 1,18,-1
 108 297 l 1,19,-1
 131 297 l 1,20,-1
 146 312 l 1,21,-1
 146 335 l 1,22,-1
 131 350 l 1,23,-1
 108 350 l 1,24,-1
 93 335 l 1,17,-1
EndSplineSet
EndChar
StartChar: uni0E1D
Encoding: 3613 3613 240
Width: 432
Flags: W
Fore
371 575 m 1,0,-1
 371 0 l 1,1,-1
 317 0 l 1,2,-1
 210 116 l 1,3,-1
 101 0 l 1,4,-1
 47 0 l 1,5,-1
 47 353 l 1,6,-1
 90 395 l 1,7,-1
 149 395 l 1,8,-1
 191 353 l 1,9,-1
 191 294 l 1,10,-1
 149 251 l 1,11,-1
 101 251 l 1,12,-1
 101 72 l 1,13,-1
 210 189 l 1,14,-1
 317 73 l 1,15,-1
 317 575 l 1,16,-1
 371 575 l 1,0,-1
93 335 m 1,17,-1
 93 312 l 1,18,-1
 108 297 l 1,19,-1
 131 297 l 1,20,-1
 146 312 l 1,21,-1
 146 335 l 1,22,-1
 131 350 l 1,23,-1
 108 350 l 1,24,-1
 93 335 l 1,17,-1
EndSplineSet
EndChar
StartChar: uni0E1E
Encoding: 3614 3614 241
Width: 475
Flags: W
Fore
367 396 m 1,0,-1
 421 396 l 1,1,-1
 421 0 l 1,2,-1
 367 0 l 1,3,-1
 260 265 l 1,4,-1
 152 0 l 1,5,-1
 98 0 l 1,6,-1
 98 252 l 1,7,-1
 50 252 l 1,8,-1
 8 294 l 1,9,-1
 8 353 l 1,10,-1
 50 396 l 1,11,-1
 109 396 l 1,12,-1
 152 353 l 1,13,-1
 152 131 l 1,14,-1
 260 396 l 1,15,-1
 367 131 l 1,16,-1
 367 396 l 1,0,-1
69 297 m 1,17,-1
 91 297 l 1,18,-1
 107 313 l 1,19,-1
 107 335 l 1,20,-1
 91 351 l 1,21,-1
 69 351 l 1,22,-1
 53 335 l 1,23,-1
 53 313 l 1,24,-1
 69 297 l 1,17,-1
EndSplineSet
EndChar
StartChar: uni0E1F
Encoding: 3615 3615 242
Width: 476
Flags: W
Fore
369 575 m 1,0,-1
 423 575 l 1,1,-1
 423 0 l 1,2,-1
 369 0 l 1,3,-1
 261 265 l 1,4,-1
 153 0 l 1,5,-1
 99 0 l 1,6,-1
 99 252 l 1,7,-1
 51 252 l 1,8,-1
 9 294 l 1,9,-1
 9 353 l 1,10,-1
 51 396 l 1,11,-1
 111 396 l 1,12,-1
 153 353 l 1,13,-1
 153 131 l 1,14,-1
 261 396 l 1,15,-1
 369 131 l 1,16,-1
 369 575 l 1,0,-1
70 297 m 1,17,-1
 92 297 l 1,18,-1
 108 313 l 1,19,-1
 108 335 l 1,20,-1
 92 351 l 1,21,-1
 70 351 l 1,22,-1
 54 335 l 1,23,-1
 54 313 l 1,24,-1
 70 297 l 1,17,-1
EndSplineSet
EndChar
StartChar: uni0E20
Encoding: 3616 3616 243
Width: 458
Flags: W
Fore
350 396 m 1,0,-1
 404 342 l 1,1,-1
 404 0 l 1,2,-1
 350 0 l 1,3,-1
 350 319 l 1,4,-1
 328 342 l 1,5,-1
 157 342 l 1,6,-1
 215 284 l 1,7,-1
 152 221 l 1,8,-1
 152 42 l 1,9,-1
 110 0 l 1,10,-1
 50 0 l 1,11,-1
 8 42 l 1,12,-1
 8 102 l 1,13,-1
 50 144 l 1,14,-1
 98 144 l 1,15,-1
 98 243 l 1,16,-1
 138 284 l 1,17,-1
 80 342 l 1,18,-1
 134 396 l 1,19,-1
 350 396 l 1,0,-1
107 61 m 1,20,-1
 107 83 l 1,21,-1
 91 99 l 1,22,-1
 69 99 l 1,23,-1
 53 83 l 1,24,-1
 53 61 l 1,25,-1
 69 45 l 1,26,-1
 91 45 l 1,27,-1
 107 61 l 1,20,-1
EndSplineSet
EndChar
StartChar: uni0E21
Encoding: 3617 3617 244
Width: 421
Flags: W
Fore
314 396 m 1,0,-1
 368 396 l 1,1,-1
 368 0 l 1,2,-1
 314 0 l 1,3,-1
 171 67 l 1,4,-1
 171 42 l 1,5,-1
 129 0 l 1,6,-1
 70 0 l 1,7,-1
 27 42 l 1,8,-1
 27 102 l 1,9,-1
 70 144 l 1,10,-1
 98 144 l 1,11,-1
 98 252 l 1,12,-1
 50 252 l 1,13,-1
 8 294 l 1,14,-1
 8 353 l 1,15,-1
 50 396 l 1,16,-1
 110 396 l 1,17,-1
 152 353 l 1,18,-1
 152 131 l 1,19,-1
 314 55 l 1,20,-1
 314 396 l 1,0,-1
69 297 m 1,21,-1
 91 297 l 1,22,-1
 107 313 l 1,23,-1
 107 335 l 1,24,-1
 91 351 l 1,25,-1
 69 351 l 1,26,-1
 53 335 l 1,27,-1
 53 313 l 1,28,-1
 69 297 l 1,21,-1
126 83 m 1,29,-1
 116 93 l 1,30,-1
 104 99 l 1,31,-1
 88 99 l 1,32,-1
 72 83 l 1,33,-1
 72 61 l 1,34,-1
 88 45 l 1,35,-1
 110 45 l 1,36,-1
 126 61 l 1,37,-1
 126 83 l 1,29,-1
EndSplineSet
EndChar
StartChar: uni0E22
Encoding: 3618 3618 245
Width: 408
Flags: W
Fore
300 396 m 1,0,-1
 354 396 l 1,1,-1
 354 54 l 1,2,-1
 300 0 l 1,3,-1
 102 0 l 1,4,-1
 48 54 l 1,5,-1
 48 144 l 1,6,-1
 84 179 l 1,7,-1
 30 233 l 1,8,-1
 30 353 l 1,9,-1
 72 396 l 1,10,-1
 132 396 l 1,11,-1
 174 353 l 1,12,-1
 174 294 l 1,13,-1
 132 252 l 1,14,-1
 88 252 l 1,15,-1
 160 179 l 1,16,-1
 102 121 l 1,17,-1
 102 76 l 1,18,-1
 124 54 l 1,19,-1
 278 54 l 1,20,-1
 300 76 l 1,21,-1
 300 396 l 1,0,-1
75 335 m 1,22,-1
 75 313 l 1,23,-1
 91 297 l 1,24,-1
 113 297 l 1,25,-1
 129 313 l 1,26,-1
 129 335 l 1,27,-1
 113 351 l 1,28,-1
 91 351 l 1,29,-1
 75 335 l 1,22,-1
EndSplineSet
EndChar
StartChar: uni0E23
Encoding: 3619 3619 246
Width: 332
Flags: W
Fore
102 342 m 1,0,-1
 80 319 l 1,1,-1
 277 279 l 1,2,-1
 277 42 l 1,3,-1
 235 0 l 1,4,-1
 176 0 l 1,5,-1
 133 42 l 1,6,-1
 133 102 l 1,7,-1
 176 144 l 1,8,-1
 223 144 l 1,9,-1
 223 239 l 1,10,-1
 28 279 l 1,11,-1
 26 279 l 1,12,-1
 26 342 l 1,13,-1
 79 396 l 1,14,-1
 295 396 l 1,15,-1
 295 342 l 1,16,-1
 102 342 l 1,0,-1
232 61 m 1,17,-1
 232 83 l 1,18,-1
 217 99 l 1,19,-1
 194 99 l 1,20,-1
 179 83 l 1,21,-1
 179 61 l 1,22,-1
 194 45 l 1,23,-1
 217 45 l 1,24,-1
 232 61 l 1,17,-1
EndSplineSet
EndChar
StartChar: uni0E24
Encoding: 3620 3620 247
Width: 406
Flags: W
Fore
298 396 m 1,0,-1
 352 342 l 1,1,-1
 352 -180 l 1,2,-1
 298 -180 l 1,3,-1
 298 319 l 1,4,-1
 276 342 l 1,5,-1
 105 342 l 1,6,-1
 163 284 l 1,7,-1
 100 221 l 1,8,-1
 100 144 l 1,9,-1
 148 144 l 1,10,-1
 190 102 l 1,11,-1
 190 42 l 1,12,-1
 148 0 l 1,13,-1
 89 0 l 1,14,-1
 46 42 l 1,15,-1
 46 243 l 1,16,-1
 87 284 l 1,17,-1
 28 342 l 1,18,-1
 82 396 l 1,19,-1
 298 396 l 1,0,-1
130 99 m 1,20,-1
 107 99 l 1,21,-1
 92 83 l 1,22,-1
 92 61 l 1,23,-1
 107 45 l 1,24,-1
 130 45 l 1,25,-1
 145 61 l 1,26,-1
 145 83 l 1,27,-1
 130 99 l 1,20,-1
EndSplineSet
EndChar
StartChar: uni0E25
Encoding: 3621 3621 248
Width: 405
Flags: W
Fore
297 396 m 1,0,-1
 351 342 l 1,1,-1
 351 0 l 1,2,-1
 297 0 l 1,3,-1
 297 146 l 1,4,-1
 218 225 l 1,5,-1
 121 225 l 1,6,-1
 99 202 l 1,7,-1
 99 144 l 1,8,-1
 147 144 l 1,9,-1
 189 102 l 1,10,-1
 189 42 l 1,11,-1
 147 0 l 1,12,-1
 87 0 l 1,13,-1
 45 42 l 1,14,-1
 45 225 l 1,15,-1
 99 279 l 1,16,-1
 234 279 l 1,17,-1
 297 216 l 1,18,-1
 297 320 l 1,19,-1
 275 342 l 1,20,-1
 103 342 l 1,21,-1
 81 319 l 1,22,-1
 81 297 l 1,23,-1
 27 297 l 1,24,-1
 27 342 l 1,25,-1
 81 396 l 1,26,-1
 297 396 l 1,0,-1
128 99 m 1,27,-1
 106 99 l 1,28,-1
 90 83 l 1,29,-1
 90 61 l 1,30,-1
 106 45 l 1,31,-1
 128 45 l 1,32,-1
 144 61 l 1,33,-1
 144 83 l 1,34,-1
 128 99 l 1,27,-1
EndSplineSet
EndChar
StartChar: uni0E26
Encoding: 3622 3622 249
Width: 457
Flags: W
Fore
350 396 m 1,0,-1
 404 342 l 1,1,-1
 404 -180 l 1,2,-1
 350 -180 l 1,3,-1
 350 319 l 1,4,-1
 328 342 l 1,5,-1
 157 342 l 1,6,-1
 215 284 l 1,7,-1
 152 221 l 1,8,-1
 152 42 l 1,9,-1
 110 0 l 1,10,-1
 51 0 l 1,11,-1
 8 42 l 1,12,-1
 8 102 l 1,13,-1
 51 144 l 1,14,-1
 98 144 l 1,15,-1
 98 243 l 1,16,-1
 139 284 l 1,17,-1
 80 342 l 1,18,-1
 134 396 l 1,19,-1
 350 396 l 1,0,-1
107 61 m 1,20,-1
 107 83 l 1,21,-1
 92 99 l 1,22,-1
 69 99 l 1,23,-1
 54 83 l 1,24,-1
 54 61 l 1,25,-1
 69 45 l 1,26,-1
 92 45 l 1,27,-1
 107 61 l 1,20,-1
EndSplineSet
EndChar
StartChar: uni0E27
Encoding: 3623 3623 250
Width: 367
Flags: W
Fore
261 395 m 1,0,-1
 314 342 l 1,1,-1
 314 42 l 1,2,-1
 272 0 l 1,3,-1
 212 0 l 1,4,-1
 170 42 l 1,5,-1
 170 101 l 1,6,-1
 212 143 l 1,7,-1
 260 143 l 1,8,-1
 260 319 l 1,9,-1
 238 341 l 1,10,-1
 103 341 l 1,11,-1
 80 319 l 1,12,-1
 80 296 l 1,13,-1
 26 296 l 1,14,-1
 26 341 l 1,15,-1
 80 395 l 1,16,-1
 261 395 l 1,0,-1
269 60 m 1,17,-1
 269 83 l 1,18,-1
 253 98 l 1,19,-1
 231 98 l 1,20,-1
 215 83 l 1,21,-1
 215 60 l 1,22,-1
 231 45 l 1,23,-1
 253 45 l 1,24,-1
 269 60 l 1,17,-1
EndSplineSet
EndChar
StartChar: uni0E28
Encoding: 3624 3624 251
Width: 433
Flags: W
Fore
389 412 m 1,0,-1
 345 368 l 1,1,-1
 371 342 l 1,2,-1
 371 0 l 1,3,-1
 317 0 l 1,4,-1
 317 320 l 1,5,-1
 295 342 l 1,6,-1
 123 342 l 1,7,-1
 101 320 l 1,8,-1
 101 201 l 1,9,-1
 179 279 l 1,10,-1
 239 279 l 1,11,-1
 281 237 l 1,12,-1
 281 177 l 1,13,-1
 239 135 l 1,14,-1
 179 135 l 1,15,-1
 143 172 l 1,16,-1
 101 131 l 1,17,-1
 101 0 l 1,18,-1
 47 0 l 1,19,-1
 47 342 l 1,20,-1
 101 396 l 1,21,-1
 297 396 l 1,22,-1
 351 450 l 1,23,-1
 389 412 l 1,0,-1
182 218 m 1,24,-1
 182 196 l 1,25,-1
 198 180 l 1,26,-1
 220 180 l 1,27,-1
 236 196 l 1,28,-1
 236 218 l 1,29,-1
 220 234 l 1,30,-1
 198 234 l 1,31,-1
 182 218 l 1,24,-1
EndSplineSet
EndChar
StartChar: uni0E29
Encoding: 3625 3625 252
Width: 440
Flags: W
Fore
332 396 m 1,0,-1
 386 396 l 1,1,-1
 386 54 l 1,2,-1
 332 0 l 1,3,-1
 152 0 l 1,4,-1
 98 54 l 1,5,-1
 98 252 l 1,6,-1
 50 252 l 1,7,-1
 8 294 l 1,8,-1
 8 353 l 1,9,-1
 50 396 l 1,10,-1
 110 396 l 1,11,-1
 152 353 l 1,12,-1
 152 76 l 1,13,-1
 174 54 l 1,14,-1
 310 54 l 1,15,-1
 332 76 l 1,16,-1
 332 135 l 1,17,-1
 212 135 l 1,18,-1
 170 177 l 1,19,-1
 170 236 l 1,20,-1
 212 279 l 1,21,-1
 271 279 l 1,22,-1
 314 237 l 1,23,-1
 314 180 l 1,24,-1
 332 180 l 1,25,-1
 332 396 l 1,0,-1
253 180 m 1,26,-1
 269 196 l 1,27,-1
 269 218 l 1,28,-1
 253 234 l 1,29,-1
 231 234 l 1,30,-1
 215 218 l 1,31,-1
 215 196 l 1,32,-1
 231 180 l 1,33,-1
 253 180 l 1,26,-1
69 297 m 1,34,-1
 91 297 l 1,35,-1
 107 313 l 1,36,-1
 107 335 l 1,37,-1
 91 351 l 1,38,-1
 69 351 l 1,39,-1
 53 335 l 1,40,-1
 53 313 l 1,41,-1
 69 297 l 1,34,-1
EndSplineSet
EndChar
StartChar: uni0E2A
Encoding: 3626 3626 253
Width: 405
Flags: W
Fore
369 414 m 1,0,-1
 324 369 l 1,1,-1
 351 342 l 1,2,-1
 351 0 l 1,3,-1
 297 0 l 1,4,-1
 297 146 l 1,5,-1
 218 224 l 1,6,-1
 121 224 l 1,7,-1
 99 202 l 1,8,-1
 99 143 l 1,9,-1
 147 143 l 1,10,-1
 189 101 l 1,11,-1
 189 42 l 1,12,-1
 147 0 l 1,13,-1
 87 0 l 1,14,-1
 45 42 l 1,15,-1
 45 224 l 1,16,-1
 99 278 l 1,17,-1
 234 278 l 1,18,-1
 297 216 l 1,19,-1
 297 319 l 1,20,-1
 275 341 l 1,21,-1
 103 341 l 1,22,-1
 81 319 l 1,23,-1
 81 297 l 1,24,-1
 27 297 l 1,25,-1
 27 341 l 1,26,-1
 81 395 l 1,27,-1
 280 395 l 1,28,-1
 334 449 l 1,29,-1
 369 414 l 1,0,-1
106 98 m 1,30,-1
 90 83 l 1,31,-1
 90 60 l 1,32,-1
 106 45 l 1,33,-1
 128 45 l 1,34,-1
 144 60 l 1,35,-1
 144 83 l 1,36,-1
 128 98 l 1,37,-1
 106 98 l 1,30,-1
EndSplineSet
EndChar
StartChar: uni0E2B
Encoding: 3627 3627 254
Width: 458
Flags: W
Fore
404 353 m 1,0,-1
 404 293 l 1,1,-1
 364 253 l 1,2,-1
 404 213 l 1,3,-1
 404 0 l 1,4,-1
 350 0 l 1,5,-1
 350 204 l 1,6,-1
 337 216 l 1,7,-1
 152 0 l 1,8,-1
 98 0 l 1,9,-1
 98 251 l 1,10,-1
 50 251 l 1,11,-1
 8 294 l 1,12,-1
 8 353 l 1,13,-1
 50 395 l 1,14,-1
 110 395 l 1,15,-1
 152 353 l 1,16,-1
 152 76 l 1,17,-1
 302 251 l 1,18,-1
 260 294 l 1,19,-1
 260 353 l 1,20,-1
 302 395 l 1,21,-1
 362 395 l 1,22,-1
 404 353 l 1,0,-1
69 297 m 1,23,-1
 91 297 l 1,24,-1
 107 312 l 1,25,-1
 107 335 l 1,26,-1
 91 350 l 1,27,-1
 69 350 l 1,28,-1
 53 335 l 1,29,-1
 53 312 l 1,30,-1
 69 297 l 1,23,-1
305 335 m 1,31,-1
 305 312 l 1,32,-1
 321 297 l 1,33,-1
 343 297 l 1,34,-1
 359 312 l 1,35,-1
 359 335 l 1,36,-1
 343 350 l 1,37,-1
 321 350 l 1,38,-1
 305 335 l 1,31,-1
EndSplineSet
EndChar
StartChar: uni0E2C
Encoding: 3628 3628 255
Width: 457
Flags: W
Fore
404 311 m 1,0,-1
 404 0 l 1,1,-1
 350 0 l 1,2,-1
 251 158 l 1,3,-1
 152 0 l 1,4,-1
 98 0 l 1,5,-1
 98 251 l 1,6,-1
 50 251 l 1,7,-1
 8 294 l 1,8,-1
 8 353 l 1,9,-1
 50 395 l 1,10,-1
 110 395 l 1,11,-1
 152 353 l 1,12,-1
 152 93 l 1,13,-1
 251 251 l 1,14,-1
 350 93 l 1,15,-1
 350 269 l 1,16,-1
 302 269 l 1,17,-1
 260 311 l 1,18,-1
 260 371 l 1,19,-1
 302 413 l 1,20,-1
 361 413 l 1,21,-1
 398 376 l 1,22,-1
 436 413 l 1,23,-1
 471 379 l 1,24,-1
 404 311 l 1,0,-1
321 315 m 1,25,-1
 343 315 l 1,26,-1
 359 330 l 1,27,-1
 359 353 l 1,28,-1
 343 368 l 1,29,-1
 321 368 l 1,30,-1
 305 353 l 1,31,-1
 305 330 l 1,32,-1
 321 315 l 1,25,-1
69 297 m 1,33,-1
 91 297 l 1,34,-1
 107 312 l 1,35,-1
 107 335 l 1,36,-1
 91 350 l 1,37,-1
 69 350 l 1,38,-1
 53 335 l 1,39,-1
 53 312 l 1,40,-1
 69 297 l 1,33,-1
EndSplineSet
Substitution: 0 65534 'L026' uni0E2C.alt1
Substitution: 0 65534 'L026' uni0E2C.alt1
EndChar
StartChar: uni0E2D
Encoding: 3629 3629 256
Width: 406
Flags: W
Fore
298 395 m 1,0,-1
 351 342 l 1,1,-1
 351 54 l 1,2,-1
 297 0 l 1,3,-1
 99 0 l 1,4,-1
 46 54 l 1,5,-1
 46 227 l 1,6,-1
 88 269 l 1,7,-1
 147 269 l 1,8,-1
 189 227 l 1,9,-1
 189 168 l 1,10,-1
 147 125 l 1,11,-1
 99 125 l 1,12,-1
 99 76 l 1,13,-1
 122 54 l 1,14,-1
 275 54 l 1,15,-1
 297 76 l 1,16,-1
 297 319 l 1,17,-1
 275 341 l 1,18,-1
 104 341 l 1,19,-1
 81 319 l 1,20,-1
 81 296 l 1,21,-1
 28 296 l 1,22,-1
 28 341 l 1,23,-1
 81 395 l 1,24,-1
 298 395 l 1,0,-1
91 209 m 1,25,-1
 91 186 l 1,26,-1
 106 171 l 1,27,-1
 129 171 l 1,28,-1
 144 186 l 1,29,-1
 144 209 l 1,30,-1
 129 224 l 1,31,-1
 106 224 l 1,32,-1
 91 209 l 1,25,-1
EndSplineSet
EndChar
StartChar: uni0E2E
Encoding: 3630 3630 257
Width: 401
Flags: W
Fore
365 414 m 1,0,-1
 320 369 l 1,1,-1
 347 342 l 1,2,-1
 347 54 l 1,3,-1
 293 0 l 1,4,-1
 95 0 l 1,5,-1
 41 54 l 1,6,-1
 41 191 l 1,7,-1
 83 233 l 1,8,-1
 143 233 l 1,9,-1
 185 191 l 1,10,-1
 185 132 l 1,11,-1
 143 89 l 1,12,-1
 95 89 l 1,13,-1
 95 76 l 1,14,-1
 117 54 l 1,15,-1
 271 54 l 1,16,-1
 293 76 l 1,17,-1
 293 319 l 1,18,-1
 282 331 l 1,19,-1
 212 260 l 1,20,-1
 68 260 l 1,21,-1
 23 305 l 1,22,-1
 23 341 l 1,23,-1
 77 395 l 1,24,-1
 276 395 l 1,25,-1
 330 449 l 1,26,-1
 365 414 l 1,0,-1
86 173 m 1,27,-1
 86 150 l 1,28,-1
 102 135 l 1,29,-1
 124 135 l 1,30,-1
 140 150 l 1,31,-1
 140 173 l 1,32,-1
 124 188 l 1,33,-1
 102 188 l 1,34,-1
 86 173 l 1,27,-1
186 305 m 1,35,-1
 222 341 l 1,36,-1
 99 341 l 1,37,-1
 81 323 l 1,38,-1
 99 305 l 1,39,-1
 186 305 l 1,35,-1
EndSplineSet
EndChar
StartChar: uni0E2F
Encoding: 3631 3631 258
Width: 354
Flags: W
Fore
247 396 m 1,0,-1
 301 396 l 1,1,-1
 301 0 l 1,2,-1
 247 0 l 1,3,-1
 247 297 l 1,4,-1
 202 252 l 1,5,-1
 73 252 l 1,6,-1
 31 294 l 1,7,-1
 31 353 l 1,8,-1
 73 396 l 1,9,-1
 133 396 l 1,10,-1
 175 353 l 1,11,-1
 175 306 l 1,12,-1
 179 306 l 1,13,-1
 247 373 l 1,14,-1
 247 396 l 1,0,-1
92 297 m 1,15,-1
 114 297 l 1,16,-1
 130 313 l 1,17,-1
 130 335 l 1,18,-1
 114 351 l 1,19,-1
 92 351 l 1,20,-1
 76 335 l 1,21,-1
 76 313 l 1,22,-1
 92 297 l 1,15,-1
EndSplineSet
EndChar
StartChar: uni0E30
Encoding: 3632 3632 259
Width: 332
Flags: W
Fore
220 251 m 1,0,-1
 68 251 l 1,1,-1
 31 288 l 1,2,-1
 31 340 l 1,3,-1
 68 377 l 1,4,-1
 120 377 l 1,5,-1
 157 340 l 1,6,-1
 157 305 l 1,7,-1
 210 305 l 1,8,-1
 247 342 l 1,9,-1
 279 310 l 1,10,-1
 220 251 l 1,0,-1
76 322 m 1,11,-1
 76 307 l 1,12,-1
 87 296 l 1,13,-1
 101 296 l 1,14,-1
 112 307 l 1,15,-1
 112 322 l 1,16,-1
 101 332 l 1,17,-1
 87 332 l 1,18,-1
 76 322 l 1,11,-1
210 54 m 1,19,-1
 247 90 l 1,20,-1
 279 58 l 1,21,-1
 220 0 l 1,22,-1
 68 0 l 1,23,-1
 31 36 l 1,24,-1
 31 89 l 1,25,-1
 68 125 l 1,26,-1
 120 125 l 1,27,-1
 157 89 l 1,28,-1
 157 54 l 1,29,-1
 210 54 l 1,19,-1
112 55 m 1,30,-1
 112 70 l 1,31,-1
 101 80 l 1,32,-1
 87 80 l 1,33,-1
 76 70 l 1,34,-1
 76 55 l 1,35,-1
 87 45 l 1,36,-1
 101 45 l 1,37,-1
 112 55 l 1,30,-1
EndSplineSet
EndChar
StartChar: uni0E31
Encoding: 3633 3633 260
Width: 0
Flags: W
Fore
-5 546 m 1,0,-1
 27 514 l 1,1,-1
 -31 455 l 1,2,-1
 -237 455 l 1,3,-1
 -274 492 l 1,4,-1
 -274 544 l 1,5,-1
 -237 581 l 1,6,-1
 -185 581 l 1,7,-1
 -148 544 l 1,8,-1
 -148 509 l 1,9,-1
 -41 509 l 1,10,-1
 -5 546 l 1,0,-1
-204 500 m 1,11,-1
 -193 511 l 1,12,-1
 -193 525 l 1,13,-1
 -204 536 l 1,14,-1
 -219 536 l 1,15,-1
 -229 525 l 1,16,-1
 -229 511 l 1,17,-1
 -219 500 l 1,18,-1
 -204 500 l 1,11,-1
EndSplineSet
Substitution: 0 65534 'L026' uni0E31.alt1
Substitution: 0 65534 'L026' uni0E31.alt1
EndChar
StartChar: uni0E32
Encoding: 3634 3634 261
Width: 368
Flags: W
Fore
260 396 m 1,0,-1
 314 342 l 1,1,-1
 314 0 l 1,2,-1
 260 0 l 1,3,-1
 260 320 l 1,4,-1
 238 342 l 1,5,-1
 102 342 l 1,6,-1
 80 319 l 1,7,-1
 80 297 l 1,8,-1
 26 297 l 1,9,-1
 26 342 l 1,10,-1
 80 396 l 1,11,-1
 260 396 l 1,0,-1
EndSplineSet
EndChar
StartChar: uni0E33
Encoding: 3635 3635 262
Width: 368
Flags: W
Fore
260 396 m 1,0,-1
 314 342 l 1,1,-1
 314 0 l 1,2,-1
 260 0 l 1,3,-1
 260 320 l 1,4,-1
 238 342 l 1,5,-1
 102 342 l 1,6,-1
 80 319 l 1,7,-1
 80 297 l 1,8,-1
 26 297 l 1,9,-1
 26 342 l 1,10,-1
 80 396 l 1,11,-1
 260 396 l 1,0,-1
-172 599 m 1,12,-1
 -113 599 l 1,13,-1
 -70 557 l 1,14,-1
 -70 497 l 1,15,-1
 -113 455 l 1,16,-1
 -172 455 l 1,17,-1
 -214 497 l 1,18,-1
 -214 557 l 1,19,-1
 -172 599 l 1,12,-1
-115 516 m 1,20,-1
 -115 538 l 1,21,-1
 -131 554 l 1,22,-1
 -153 554 l 1,23,-1
 -169 538 l 1,24,-1
 -169 516 l 1,25,-1
 -153 500 l 1,26,-1
 -131 500 l 1,27,-1
 -115 516 l 1,20,-1
EndSplineSet
Substitution: 0 65534 'L026' uni0E33.alt1
Substitution: 0 65534 'L026' uni0E33.alt1
EndChar
StartChar: uni0E34
Encoding: 3636 3636 263
Width: 0
Flags: W
Fore
-109 573 m 1,0,-1
 -54 519 l 1,1,-1
 -54 456 l 1,2,-1
 -360 456 l 1,3,-1
 -360 519 l 1,4,-1
 -306 573 l 1,5,-1
 -109 573 l 1,0,-1
-314 501 m 1,6,-1
 -100 501 l 1,7,-1
 -127 528 l 1,8,-1
 -287 528 l 1,9,-1
 -314 501 l 1,6,-1
EndSplineSet
Substitution: 0 65534 'L026' uni0E34.alt1
Substitution: 0 65534 'L026' uni0E34.alt1
EndChar
StartChar: uni0E35
Encoding: 3637 3637 264
Width: 0
Flags: W
Fore
-54 618 m 1,0,-1
 -54 456 l 1,1,-1
 -359 456 l 1,2,-1
 -359 519 l 1,3,-1
 -305 573 l 1,4,-1
 -108 573 l 1,5,-1
 -99 564 l 1,6,-1
 -99 618 l 1,7,-1
 -54 618 l 1,0,-1
-314 501 m 1,8,-1
 -99 501 l 1,9,-1
 -126 528 l 1,10,-1
 -287 528 l 1,11,-1
 -314 501 l 1,8,-1
EndSplineSet
Substitution: 0 65534 'L026' uni0E35.alt1
Substitution: 0 65534 'L026' uni0E35.alt1
EndChar
StartChar: uni0E36
Encoding: 3638 3638 265
Width: 0
Flags: W
Fore
-59 618 m 1,0,-1
 -22 581 l 1,1,-1
 -22 529 l 1,2,-1
 -54 497 l 1,3,-1
 -54 456 l 1,4,-1
 -360 456 l 1,5,-1
 -360 519 l 1,6,-1
 -306 573 l 1,7,-1
 -148 573 l 1,8,-1
 -148 581 l 1,9,-1
 -111 618 l 1,10,-1
 -59 618 l 1,0,-1
-93 573 m 1,11,-1
 -103 563 l 1,12,-1
 -103 548 l 1,13,-1
 -93 537 l 1,14,-1
 -78 537 l 1,15,-1
 -67 548 l 1,16,-1
 -67 563 l 1,17,-1
 -78 573 l 1,18,-1
 -93 573 l 1,11,-1
-314 501 m 1,19,-1
 -100 501 l 1,20,-1
 -127 528 l 1,21,-1
 -287 528 l 1,22,-1
 -314 501 l 1,19,-1
EndSplineSet
Substitution: 0 65534 'L026' uni0E36.alt1
Substitution: 0 65534 'L026' uni0E36.alt1
EndChar
StartChar: uni0E37
Encoding: 3639 3639 266
Width: 0
Flags: W
Fore
-54 618 m 1,0,-1
 -54 456 l 1,1,-1
 -360 456 l 1,2,-1
 -360 519 l 1,3,-1
 -305 573 l 1,4,-1
 -171 573 l 1,5,-1
 -171 618 l 1,6,-1
 -126 618 l 1,7,-1
 -126 573 l 1,8,-1
 -108 573 l 1,9,-1
 -99 564 l 1,10,-1
 -99 618 l 1,11,-1
 -54 618 l 1,0,-1
-314 501 m 1,12,-1
 -100 501 l 1,13,-1
 -127 528 l 1,14,-1
 -287 528 l 1,15,-1
 -314 501 l 1,12,-1
EndSplineSet
Substitution: 0 65534 'L026' uni0E37.alt1
Substitution: 0 65534 'L026' uni0E37.alt1
EndChar
StartChar: uni0E38
Encoding: 3640 3640 267
Width: 0
Flags: W
Fore
-90 -28 m 1,0,-1
 -53 -65 l 1,1,-1
 -53 -226 l 1,2,-1
 -107 -226 l 1,3,-1
 -107 -154 l 1,4,-1
 -142 -154 l 1,5,-1
 -179 -117 l 1,6,-1
 -179 -65 l 1,7,-1
 -142 -28 l 1,8,-1
 -90 -28 l 1,0,-1
-124 -109 m 1,9,-1
 -109 -109 l 1,10,-1
 -98 -99 l 1,11,-1
 -98 -84 l 1,12,-1
 -109 -73 l 1,13,-1
 -124 -73 l 1,14,-1
 -134 -84 l 1,15,-1
 -134 -99 l 1,16,-1
 -124 -109 l 1,9,-1
EndSplineSet
Substitution: 0 65534 'L027' a
Substitution: 0 65534 'L026' uni0E38.alt1
Substitution: 0 65534 'L027' a
Substitution: 0 65534 'L026' uni0E38.alt1
EndChar
StartChar: uni0E39
Encoding: 3641 3641 268
Width: 0
Flags: W
Fore
-109 -29 m 1,0,-1
 -55 -29 l 1,1,-1
 -55 -227 l 1,2,-1
 -199 -227 l 1,3,-1
 -199 -155 l 1,4,-1
 -234 -155 l 1,5,-1
 -271 -119 l 1,6,-1
 -271 -66 l 1,7,-1
 -234 -29 l 1,8,-1
 -182 -29 l 1,9,-1
 -145 -66 l 1,10,-1
 -145 -173 l 1,11,-1
 -109 -173 l 1,12,-1
 -109 -29 l 1,0,-1
-215 -110 m 1,13,-1
 -200 -110 l 1,14,-1
 -190 -100 l 1,15,-1
 -190 -85 l 1,16,-1
 -200 -74 l 1,17,-1
 -215 -74 l 1,18,-1
 -226 -85 l 1,19,-1
 -226 -100 l 1,20,-1
 -215 -110 l 1,13,-1
EndSplineSet
Substitution: 0 65534 'L027' b
Substitution: 0 65534 'L026' uni0E39.alt1
Substitution: 0 65534 'L027' b
Substitution: 0 65534 'L026' uni0E39.alt1
EndChar
StartChar: uni0E3A
Encoding: 3642 3642 269
Width: 0
Flags: W
Fore
-51 -50 m 1,0,-1
 -51 -79 l 1,1,-1
 -72 -101 l 1,2,-1
 -102 -101 l 1,3,-1
 -123 -79 l 1,4,-1
 -123 -50 l 1,5,-1
 -102 -29 l 1,6,-1
 -72 -29 l 1,7,-1
 -51 -50 l 1,0,-1
EndSplineSet
Substitution: 0 65534 'L027' c
Substitution: 0 65534 'L026' uni0E3A.alt1
Substitution: 0 65534 'L027' c
Substitution: 0 65534 'L026' uni0E3A.alt1
EndChar
StartChar: uni0E3F
Encoding: 3647 3647 270
Width: 354
Flags: W
Fore
279 225 m 1,0,-1
 315 189 l 1,1,-1
 315 54 l 1,2,-1
 261 0 l 1,3,-1
 180 0 l 1,4,-1
 180 -36 l 1,5,-1
 126 -36 l 1,6,-1
 126 0 l 1,7,-1
 27 0 l 1,8,-1
 27 432 l 1,9,-1
 126 432 l 1,10,-1
 126 468 l 1,11,-1
 180 468 l 1,12,-1
 180 432 l 1,13,-1
 243 432 l 1,14,-1
 297 378 l 1,15,-1
 297 243 l 1,16,-1
 279 225 l 1,0,-1
220 378 m 1,17,-1
 180 378 l 1,18,-1
 180 243 l 1,19,-1
 221 243 l 1,20,-1
 243 265 l 1,21,-1
 243 356 l 1,22,-1
 220 378 l 1,17,-1
126 378 m 1,23,-1
 81 378 l 1,24,-1
 81 243 l 1,25,-1
 126 243 l 1,26,-1
 126 378 l 1,23,-1
81 54 m 1,27,-1
 126 54 l 1,28,-1
 126 189 l 1,29,-1
 81 189 l 1,30,-1
 81 54 l 1,27,-1
261 76 m 1,31,-1
 261 167 l 1,32,-1
 238 189 l 1,33,-1
 180 189 l 1,34,-1
 180 54 l 1,35,-1
 238 54 l 1,36,-1
 261 76 l 1,31,-1
EndSplineSet
EndChar
StartChar: uni0E40
Encoding: 3648 3648 271
Width: 205
Flags: W
Fore
137 143 m 1,0,-1
 179 101 l 1,1,-1
 179 42 l 1,2,-1
 137 0 l 1,3,-1
 78 0 l 1,4,-1
 35 42 l 1,5,-1
 35 395 l 1,6,-1
 89 395 l 1,7,-1
 89 143 l 1,8,-1
 137 143 l 1,0,-1
134 60 m 1,9,-1
 134 83 l 1,10,-1
 119 98 l 1,11,-1
 96 98 l 1,12,-1
 81 83 l 1,13,-1
 81 60 l 1,14,-1
 96 45 l 1,15,-1
 119 45 l 1,16,-1
 134 60 l 1,9,-1
EndSplineSet
EndChar
StartChar: uni0E41
Encoding: 3649 3649 272
Width: 374
Flags: W
Fore
89 144 m 1,0,-1
 137 144 l 1,1,-1
 179 102 l 1,2,-1
 179 42 l 1,3,-1
 137 0 l 1,4,-1
 77 0 l 1,5,-1
 35 42 l 1,6,-1
 35 396 l 1,7,-1
 89 396 l 1,8,-1
 89 144 l 1,0,-1
134 61 m 1,9,-1
 134 83 l 1,10,-1
 118 99 l 1,11,-1
 96 99 l 1,12,-1
 80 83 l 1,13,-1
 80 61 l 1,14,-1
 96 45 l 1,15,-1
 118 45 l 1,16,-1
 134 61 l 1,9,-1
308 144 m 1,17,-1
 350 102 l 1,18,-1
 350 42 l 1,19,-1
 308 0 l 1,20,-1
 248 0 l 1,21,-1
 206 42 l 1,22,-1
 206 396 l 1,23,-1
 260 396 l 1,24,-1
 260 144 l 1,25,-1
 308 144 l 1,17,-1
305 61 m 1,26,-1
 305 83 l 1,27,-1
 289 99 l 1,28,-1
 267 99 l 1,29,-1
 251 83 l 1,30,-1
 251 61 l 1,31,-1
 267 45 l 1,32,-1
 289 45 l 1,33,-1
 305 61 l 1,26,-1
EndSplineSet
EndChar
StartChar: uni0E42
Encoding: 3650 3650 273
Width: 300
Flags: W
Fore
232 144 m 1,0,-1
 274 102 l 1,1,-1
 274 42 l 1,2,-1
 232 0 l 1,3,-1
 172 0 l 1,4,-1
 130 42 l 1,5,-1
 130 462 l 1,6,-1
 -32 522 l 1,7,-1
 -32 558 l 1,8,-1
 22 612 l 1,9,-1
 202 612 l 1,10,-1
 202 558 l 1,11,-1
 44 558 l 1,12,-1
 36 550 l 1,13,-1
 184 495 l 1,14,-1
 184 144 l 1,15,-1
 232 144 l 1,0,-1
229 61 m 1,16,-1
 229 83 l 1,17,-1
 213 99 l 1,18,-1
 191 99 l 1,19,-1
 175 83 l 1,20,-1
 175 61 l 1,21,-1
 191 45 l 1,22,-1
 213 45 l 1,23,-1
 229 61 l 1,16,-1
EndSplineSet
EndChar
StartChar: uni0E43
Encoding: 3651 3651 274
Width: 307
Flags: W
Fore
239 144 m 1,0,-1
 281 102 l 1,1,-1
 281 42 l 1,2,-1
 239 0 l 1,3,-1
 179 0 l 1,4,-1
 137 42 l 1,5,-1
 137 536 l 1,6,-1
 115 558 l 1,7,-1
 77 558 l 1,8,-1
 110 525 l 1,9,-1
 110 465 l 1,10,-1
 68 423 l 1,11,-1
 8 423 l 1,12,-1
 -34 465 l 1,13,-1
 -34 558 l 1,14,-1
 20 612 l 1,15,-1
 137 612 l 1,16,-1
 191 558 l 1,17,-1
 191 144 l 1,18,-1
 239 144 l 1,0,-1
65 484 m 1,19,-1
 65 506 l 1,20,-1
 49 522 l 1,21,-1
 27 522 l 1,22,-1
 11 506 l 1,23,-1
 11 484 l 1,24,-1
 27 468 l 1,25,-1
 49 468 l 1,26,-1
 65 484 l 1,19,-1
236 61 m 1,27,-1
 236 83 l 1,28,-1
 220 99 l 1,29,-1
 198 99 l 1,30,-1
 182 83 l 1,31,-1
 182 61 l 1,32,-1
 198 45 l 1,33,-1
 220 45 l 1,34,-1
 236 61 l 1,27,-1
EndSplineSet
EndChar
StartChar: uni0E44
Encoding: 3652 3652 275
Width: 299
Flags: W
Fore
231 144 m 1,0,-1
 273 102 l 1,1,-1
 273 42 l 1,2,-1
 231 0 l 1,3,-1
 171 0 l 1,4,-1
 129 42 l 1,5,-1
 129 548 l 1,6,-1
 81 500 l 1,7,-1
 23 558 l 1,8,-1
 -33 558 l 1,9,-1
 -33 612 l 1,10,-1
 33 612 l 1,11,-1
 81 563 l 1,12,-1
 129 611 l 1,13,-1
 129 612 l 1,14,-1
 183 612 l 1,15,-1
 183 144 l 1,16,-1
 231 144 l 1,0,-1
228 61 m 1,17,-1
 228 83 l 1,18,-1
 212 99 l 1,19,-1
 190 99 l 1,20,-1
 174 83 l 1,21,-1
 174 61 l 1,22,-1
 190 45 l 1,23,-1
 212 45 l 1,24,-1
 228 61 l 1,17,-1
EndSplineSet
EndChar
StartChar: uni0E45
Encoding: 3653 3653 276
Width: 368
Flags: W
Fore
261 396 m 1,0,-1
 314 342 l 1,1,-1
 314 -181 l 1,2,-1
 260 -181 l 1,3,-1
 260 320 l 1,4,-1
 238 342 l 1,5,-1
 103 342 l 1,6,-1
 80 320 l 1,7,-1
 80 297 l 1,8,-1
 27 297 l 1,9,-1
 27 342 l 1,10,-1
 80 396 l 1,11,-1
 261 396 l 1,0,-1
EndSplineSet
EndChar
StartChar: uni0E46
Encoding: 3654 3654 277
Width: 355
Flags: W
Fore
247 396 m 1,0,-1
 301 343 l 1,1,-1
 301 -179 l 1,2,-1
 247 -179 l 1,3,-1
 247 320 l 1,4,-1
 225 342 l 1,5,-1
 206 342 l 1,6,-1
 179 315 l 1,7,-1
 152 342 l 1,8,-1
 107 342 l 1,9,-1
 98 333 l 1,10,-1
 132 333 l 1,11,-1
 175 291 l 1,12,-1
 175 232 l 1,13,-1
 132 189 l 1,14,-1
 73 189 l 1,15,-1
 31 232 l 1,16,-1
 31 342 l 1,17,-1
 85 396 l 1,18,-1
 162 396 l 1,19,-1
 179 379 l 1,20,-1
 197 396 l 1,21,-1
 247 396 l 1,0,-1
130 273 m 1,22,-1
 114 288 l 1,23,-1
 92 288 l 1,24,-1
 76 273 l 1,25,-1
 76 250 l 1,26,-1
 92 235 l 1,27,-1
 114 235 l 1,28,-1
 130 250 l 1,29,-1
 130 273 l 1,22,-1
EndSplineSet
EndChar
StartChar: uni0E47
Encoding: 3655 3655 278
Width: 0
Flags: W
Fore
-69 604 m 1,0,-1
 -99 574 l 1,1,-1
 -70 544 l 1,2,-1
 -70 492 l 1,3,-1
 -107 455 l 1,4,-1
 -214 455 l 1,5,-1
 -232 473 l 1,6,-1
 -249 455 l 1,7,-1
 -304 455 l 1,8,-1
 -304 554 l 1,9,-1
 -250 608 l 1,10,-1
 -129 608 l 1,11,-1
 -101 636 l 1,12,-1
 -69 604 l 1,0,-1
-232 536 m 1,13,-1
 -196 500 l 1,14,-1
 -196 544 l 1,15,-1
 -177 563 l 1,16,-1
 -231 563 l 1,17,-1
 -259 535 l 1,18,-1
 -259 509 l 1,19,-1
 -232 536 l 1,13,-1
-115 511 m 1,20,-1
 -115 525 l 1,21,-1
 -125 536 l 1,22,-1
 -140 536 l 1,23,-1
 -151 525 l 1,24,-1
 -151 511 l 1,25,-1
 -140 500 l 1,26,-1
 -125 500 l 1,27,-1
 -115 511 l 1,20,-1
EndSplineSet
Substitution: 0 65534 'L026' uni0E47.alt1
Substitution: 0 65534 'L026' uni0E47.alt1
EndChar
StartChar: uni0E48
Encoding: 3656 3656 279
Width: 0
Flags: W
Fore
-98 641 m 1,0,-1
 -98 803 l 1,1,-1
 -53 803 l 1,2,-1
 -53 641 l 1,3,-1
 -98 641 l 1,0,-1
EndSplineSet
Substitution: 0 65534 'L026' uni0E48.alt2
Substitution: 0 65534 'L026' uni0E48.alt2
EndChar
StartChar: uni0E49
Encoding: 3657 3657 280
Width: 0
Flags: W
Fore
0 766 m 1,0,-1
 32 735 l 1,1,-1
 -63 640 l 1,2,-1
 -216 640 l 1,3,-1
 -216 685 l 1,4,-1
 -188 685 l 1,5,-1
 -216 713 l 1,6,-1
 -216 765 l 1,7,-1
 -179 802 l 1,8,-1
 -127 802 l 1,9,-1
 -90 765 l 1,10,-1
 -90 713 l 1,11,-1
 -118 685 l 1,12,-1
 -81 685 l 1,13,-1
 0 766 l 1,0,-1
-171 747 m 1,14,-1
 -171 732 l 1,15,-1
 -160 721 l 1,16,-1
 -145 721 l 1,17,-1
 -135 732 l 1,18,-1
 -135 747 l 1,19,-1
 -145 757 l 1,20,-1
 -160 757 l 1,21,-1
 -171 747 l 1,14,-1
EndSplineSet
Substitution: 0 65534 'L026' uni0E49.alt2
Substitution: 0 65534 'L026' uni0E49.alt2
EndChar
StartChar: uni0E4A
Encoding: 3658 3658 281
Width: 0
Flags: W
Fore
33 773 m 1,0,-1
 62 744 l 1,1,-1
 -41 641 l 1,2,-1
 -70 670 l 1,3,-1
 -42 698 l 1,4,-1
 -59 715 l 1,5,-1
 -124 650 l 1,6,-1
 -176 650 l 1,7,-1
 -213 687 l 1,8,-1
 -213 739 l 1,9,-1
 -176 776 l 1,10,-1
 -124 776 l 1,11,-1
 -93 745 l 1,12,-1
 -62 776 l 1,13,-1
 -13 727 l 1,14,-1
 33 773 l 1,0,-1
-168 706 m 1,15,-1
 -157 695 l 1,16,-1
 -143 695 l 1,17,-1
 -132 706 l 1,18,-1
 -132 721 l 1,19,-1
 -142 731 l 1,20,-1
 -157 731 l 1,21,-1
 -168 721 l 1,22,-1
 -168 706 l 1,15,-1
EndSplineSet
Substitution: 0 65534 'L026' uni0E4A.alt2
Substitution: 0 65534 'L026' uni0E4A.alt2
EndChar
StartChar: uni0E4B
Encoding: 3659 3659 282
Width: 0
Flags: W
Fore
-4 736 m 1,0,-1
 -4 691 l 1,1,-1
 -54 691 l 1,2,-1
 -54 641 l 1,3,-1
 -99 641 l 1,4,-1
 -99 691 l 1,5,-1
 -148 691 l 1,6,-1
 -148 736 l 1,7,-1
 -99 736 l 1,8,-1
 -99 785 l 1,9,-1
 -54 785 l 1,10,-1
 -54 736 l 1,11,-1
 -4 736 l 1,0,-1
EndSplineSet
Substitution: 0 65534 'L026' uni0E4B.alt2
Substitution: 0 65534 'L026' uni0E4B.alt2
EndChar
StartChar: uni0E4C
Encoding: 3660 3660 283
Width: 0
Flags: W
Fore
-39 760 m 1,0,-1
 -85 713 l 1,1,-1
 -54 682 l 1,2,-1
 -54 630 l 1,3,-1
 -91 593 l 1,4,-1
 -143 593 l 1,5,-1
 -180 630 l 1,6,-1
 -180 682 l 1,7,-1
 -71 792 l 1,8,-1
 -39 760 l 1,0,-1
-110 674 m 1,9,-1
 -125 674 l 1,10,-1
 -135 664 l 1,11,-1
 -135 649 l 1,12,-1
 -125 638 l 1,13,-1
 -110 638 l 1,14,-1
 -99 649 l 1,15,-1
 -99 664 l 1,16,-1
 -110 674 l 1,9,-1
EndSplineSet
Substitution: 0 65534 'L026' uni0E4C.alt2
Substitution: 0 65534 'L026' uni0E4C.alt2
EndChar
StartChar: uni0E4D
Encoding: 3661 3661 284
Width: 0
Flags: W
Fore
-108 581 m 1,0,-1
 -71 544 l 1,1,-1
 -71 492 l 1,2,-1
 -108 455 l 1,3,-1
 -160 455 l 1,4,-1
 -197 492 l 1,5,-1
 -197 544 l 1,6,-1
 -160 581 l 1,7,-1
 -108 581 l 1,0,-1
-126 500 m 1,8,-1
 -116 511 l 1,9,-1
 -116 525 l 1,10,-1
 -126 536 l 1,11,-1
 -141 536 l 1,12,-1
 -152 525 l 1,13,-1
 -152 511 l 1,14,-1
 -141 500 l 1,15,-1
 -126 500 l 1,8,-1
EndSplineSet
Substitution: 0 65534 'L026' uni0E4D.alt1
Substitution: 0 65534 'L026' uni0E4D.alt1
EndChar
StartChar: uni0E4E
Encoding: 3662 3662 285
Width: 0
Flags: W
Fore
-70 626 m 1,0,-1
 11 626 l 1,1,-1
 11 572 l 1,2,-1
 -48 572 l 1,3,-1
 -52 568 l 1,4,-1
 -52 509 l 1,5,-1
 -111 509 l 1,6,-1
 -115 505 l 1,7,-1
 -115 455 l 1,8,-1
 -169 455 l 1,9,-1
 -169 527 l 1,10,-1
 -133 563 l 1,11,-1
 -106 563 l 1,12,-1
 -106 590 l 1,13,-1
 -70 626 l 1,14,-1
 -70 626 l 1,0,-1
EndSplineSet
Substitution: 0 65534 'L026' uni0E4E.alt1
Substitution: 0 65534 'L026' uni0E4E.alt1
EndChar
StartChar: uni0E4F
Encoding: 3663 3663 286
Width: 388
Flags: W
Fore
153 216 m 1,0,-1
 213 216 l 1,1,-1
 255 174 l 1,2,-1
 255 114 l 1,3,-1
 213 72 l 1,4,-1
 153 72 l 1,5,-1
 111 114 l 1,6,-1
 111 174 l 1,7,-1
 153 216 l 1,0,-1
210 133 m 1,8,-1
 210 155 l 1,9,-1
 194 171 l 1,10,-1
 172 171 l 1,11,-1
 156 155 l 1,12,-1
 156 133 l 1,13,-1
 172 117 l 1,14,-1
 194 117 l 1,15,-1
 210 133 l 1,8,-1
242 288 m 1,16,-1
 327 203 l 1,17,-1
 327 84 l 1,18,-1
 242 0 l 1,19,-1
 123 0 l 1,20,-1
 39 84 l 1,21,-1
 39 203 l 1,22,-1
 123 288 l 1,23,-1
 242 288 l 1,16,-1
282 103 m 1,24,-1
 282 185 l 1,25,-1
 224 243 l 1,26,-1
 142 243 l 1,27,-1
 84 185 l 1,28,-1
 84 103 l 1,29,-1
 142 45 l 1,30,-1
 224 45 l 1,31,-1
 282 103 l 1,24,-1
EndSplineSet
EndChar
StartChar: uni0E50
Encoding: 3664 3664 287
Width: 421
Flags: W
Fore
304 288 m 1,0,-1
 358 234 l 1,1,-1
 358 53 l 1,2,-1
 305 0 l 1,3,-1
 88 0 l 1,4,-1
 34 54 l 1,5,-1
 34 234 l 1,6,-1
 88 288 l 1,7,-1
 304 288 l 1,0,-1
304 76 m 1,8,-1
 304 211 l 1,9,-1
 282 234 l 1,10,-1
 111 234 l 1,11,-1
 88 211 l 1,12,-1
 88 76 l 1,13,-1
 111 54 l 1,14,-1
 282 54 l 1,15,-1
 304 76 l 1,8,-1
EndSplineSet
EndChar
StartChar: uni0E51
Encoding: 3665 3665 288
Width: 405
Flags: W
Fore
297 288 m 1,0,-1
 351 234 l 1,1,-1
 351 27 l 1,2,-1
 288 -36 l 1,3,-1
 250 2 l 1,4,-1
 297 49 l 1,5,-1
 297 211 l 1,6,-1
 275 234 l 1,7,-1
 103 234 l 1,8,-1
 81 212 l 1,9,-1
 81 76 l 1,10,-1
 99 58 l 1,11,-1
 99 102 l 1,12,-1
 141 144 l 1,13,-1
 201 144 l 1,14,-1
 243 102 l 1,15,-1
 243 42 l 1,16,-1
 201 0 l 1,17,-1
 81 0 l 1,18,-1
 27 54 l 1,19,-1
 27 234 l 1,20,-1
 81 288 l 1,21,-1
 297 288 l 1,0,-1
144 83 m 1,22,-1
 144 61 l 1,23,-1
 160 45 l 1,24,-1
 182 45 l 1,25,-1
 198 61 l 1,26,-1
 198 83 l 1,27,-1
 182 99 l 1,28,-1
 160 99 l 1,29,-1
 144 83 l 1,22,-1
EndSplineSet
EndChar
StartChar: uni0E52
Encoding: 3666 3666 289
Width: 476
Flags: W
Fore
422 234 m 1,0,-1
 422 53 l 1,1,-1
 368 0 l 1,2,-1
 80 0 l 1,3,-1
 26 54 l 1,4,-1
 26 342 l 1,5,-1
 80 342 l 1,6,-1
 80 67 l 1,7,-1
 102 45 l 1,8,-1
 346 45 l 1,9,-1
 368 67 l 1,10,-1
 368 211 l 1,11,-1
 346 234 l 1,12,-1
 341 234 l 1,13,-1
 296 189 l 1,14,-1
 251 234 l 1,15,-1
 192 234 l 1,16,-1
 174 216 l 1,17,-1
 218 216 l 1,18,-1
 260 174 l 1,19,-1
 260 114 l 1,20,-1
 218 72 l 1,21,-1
 158 72 l 1,22,-1
 116 114 l 1,23,-1
 116 234 l 1,24,-1
 170 288 l 1,25,-1
 273 288 l 1,26,-1
 296 265 l 1,27,-1
 319 288 l 1,28,-1
 368 288 l 1,29,-1
 422 234 l 1,0,-1
199 171 m 1,30,-1
 177 171 l 1,31,-1
 161 155 l 1,32,-1
 161 133 l 1,33,-1
 177 117 l 1,34,-1
 199 117 l 1,35,-1
 215 133 l 1,36,-1
 215 155 l 1,37,-1
 199 171 l 1,30,-1
EndSplineSet
EndChar
StartChar: uni0E53
Encoding: 3667 3667 290
Width: 459
Flags: W
Fore
351 288 m 1,0,-1
 405 234 l 1,1,-1
 405 0 l 1,2,-1
 351 0 l 1,3,-1
 351 211 l 1,4,-1
 329 234 l 1,5,-1
 283 234 l 1,6,-1
 261 212 l 1,7,-1
 261 0 l 1,8,-1
 207 0 l 1,9,-1
 207 211 l 1,10,-1
 185 234 l 1,11,-1
 104 234 l 1,12,-1
 81 212 l 1,13,-1
 81 144 l 1,14,-1
 129 144 l 1,15,-1
 171 102 l 1,16,-1
 171 42 l 1,17,-1
 129 0 l 1,18,-1
 70 0 l 1,19,-1
 28 42 l 1,20,-1
 28 234 l 1,21,-1
 81 288 l 1,22,-1
 207 288 l 1,23,-1
 234 261 l 1,24,-1
 261 288 l 1,25,-1
 351 288 l 1,0,-1
111 99 m 1,26,-1
 88 99 l 1,27,-1
 73 83 l 1,28,-1
 73 61 l 1,29,-1
 88 45 l 1,30,-1
 111 45 l 1,31,-1
 126 61 l 1,32,-1
 126 83 l 1,33,-1
 111 99 l 1,26,-1
EndSplineSet
EndChar
StartChar: uni0E54
Encoding: 3668 3668 291
Width: 423
Flags: W
Fore
242 68 m 1,0,-1
 256 54 l 1,1,-1
 369 54 l 1,2,-1
 369 0 l 1,3,-1
 81 0 l 1,4,-1
 27 53 l 1,5,-1
 27 234 l 1,6,-1
 81 287 l 1,7,-1
 312 287 l 1,8,-1
 366 342 l 1,9,-1
 405 303 l 1,10,-1
 335 233 l 1,11,-1
 103 233 l 1,12,-1
 81 211 l 1,13,-1
 81 76 l 1,14,-1
 103 54 l 1,15,-1
 186 54 l 1,16,-1
 135 105 l 1,17,-1
 135 165 l 1,18,-1
 177 207 l 1,19,-1
 237 207 l 1,20,-1
 279 165 l 1,21,-1
 279 105 l 1,22,-1
 242 68 l 1,0,-1
180 146 m 1,23,-1
 180 124 l 1,24,-1
 195 108 l 1,25,-1
 218 108 l 1,26,-1
 233 124 l 1,27,-1
 233 146 l 1,28,-1
 218 162 l 1,29,-1
 195 162 l 1,30,-1
 180 146 l 1,23,-1
EndSplineSet
EndChar
StartChar: uni0E55
Encoding: 3669 3669 292
Width: 422
Flags: W
Fore
241 68 m 1,0,-1
 255 54 l 1,1,-1
 368 54 l 1,2,-1
 368 0 l 1,3,-1
 80 0 l 1,4,-1
 26 53 l 1,5,-1
 26 234 l 1,6,-1
 80 287 l 1,7,-1
 134 287 l 1,8,-1
 134 344 l 1,9,-1
 176 387 l 1,10,-1
 236 387 l 1,11,-1
 278 344 l 1,12,-1
 278 287 l 1,13,-1
 312 287 l 1,14,-1
 366 342 l 1,15,-1
 404 303 l 1,16,-1
 334 233 l 1,17,-1
 102 233 l 1,18,-1
 80 211 l 1,19,-1
 80 76 l 1,20,-1
 102 54 l 1,21,-1
 185 54 l 1,22,-1
 134 105 l 1,23,-1
 134 165 l 1,24,-1
 176 207 l 1,25,-1
 236 207 l 1,26,-1
 278 165 l 1,27,-1
 278 105 l 1,28,-1
 241 68 l 1,0,-1
179 146 m 1,29,-1
 179 124 l 1,30,-1
 195 108 l 1,31,-1
 217 108 l 1,32,-1
 233 124 l 1,33,-1
 233 146 l 1,34,-1
 217 162 l 1,35,-1
 195 162 l 1,36,-1
 179 146 l 1,29,-1
179 326 m 1,37,-1
 179 304 l 1,38,-1
 195 288 l 1,39,-1
 217 288 l 1,40,-1
 233 304 l 1,41,-1
 233 326 l 1,42,-1
 217 342 l 1,43,-1
 195 342 l 1,44,-1
 179 326 l 1,37,-1
EndSplineSet
EndChar
StartChar: uni0E56
Encoding: 3670 3670 293
Width: 464
Flags: W
Fore
357 287 m 1,0,-1
 410 234 l 1,1,-1
 410 54 l 1,2,-1
 356 0 l 1,3,-1
 147 0 l 1,4,-1
 104 42 l 1,5,-1
 104 101 l 1,6,-1
 147 144 l 1,7,-1
 206 144 l 1,8,-1
 248 101 l 1,9,-1
 248 54 l 1,10,-1
 334 54 l 1,11,-1
 356 76 l 1,12,-1
 356 211 l 1,13,-1
 334 233 l 1,14,-1
 104 233 l 1,15,-1
 35 303 l 1,16,-1
 73 342 l 1,17,-1
 127 287 l 1,18,-1
 357 287 l 1,0,-1
188 45 m 1,19,-1
 203 61 l 1,20,-1
 203 83 l 1,21,-1
 188 99 l 1,22,-1
 165 99 l 1,23,-1
 150 83 l 1,24,-1
 150 61 l 1,25,-1
 165 45 l 1,26,-1
 188 45 l 1,19,-1
EndSplineSet
EndChar
StartChar: uni0E57
Encoding: 3671 3671 294
Width: 512
Flags: W
Fore
404 341 m 1,0,-1
 458 341 l 1,1,-1
 458 90 l 1,2,-1
 367 0 l 1,3,-1
 314 0 l 1,4,-1
 314 211 l 1,5,-1
 291 234 l 1,6,-1
 242 234 l 1,7,-1
 197 189 l 1,8,-1
 152 234 l 1,9,-1
 102 234 l 1,10,-1
 80 212 l 1,11,-1
 80 144 l 1,12,-1
 128 144 l 1,13,-1
 170 102 l 1,14,-1
 170 42 l 1,15,-1
 128 0 l 1,16,-1
 68 0 l 1,17,-1
 26 42 l 1,18,-1
 26 234 l 1,19,-1
 80 288 l 1,20,-1
 174 288 l 1,21,-1
 197 265 l 1,22,-1
 219 288 l 1,23,-1
 314 288 l 1,24,-1
 368 234 l 1,25,-1
 368 76 l 1,26,-1
 404 112 l 1,27,-1
 404 341 l 1,0,-1
109 99 m 1,28,-1
 87 99 l 1,29,-1
 71 83 l 1,30,-1
 71 61 l 1,31,-1
 87 45 l 1,32,-1
 109 45 l 1,33,-1
 125 61 l 1,34,-1
 125 83 l 1,35,-1
 109 99 l 1,28,-1
EndSplineSet
EndChar
StartChar: uni0E58
Encoding: 3672 3672 295
Width: 456
Flags: W
Fore
110 233 m 1,0,-1
 88 211 l 1,1,-1
 88 76 l 1,2,-1
 146 134 l 1,3,-1
 227 54 l 1,4,-1
 250 54 l 1,5,-1
 250 101 l 1,6,-1
 292 144 l 1,7,-1
 352 144 l 1,8,-1
 394 101 l 1,9,-1
 394 42 l 1,10,-1
 352 0 l 1,11,-1
 204 0 l 1,12,-1
 146 58 l 1,13,-1
 88 0 l 1,14,-1
 34 53 l 1,15,-1
 34 234 l 1,16,-1
 88 288 l 1,17,-1
 318 288 l 1,18,-1
 372 342 l 1,19,-1
 410 303 l 1,20,-1
 340 234 l 1,21,-1
 340 233 l 1,22,-1
 340 234 l 1,23,-1
 340 233 l 1,24,-1
 110 233 l 1,0,-1
295 61 m 1,25,-1
 311 45 l 1,26,-1
 333 45 l 1,27,-1
 349 61 l 1,28,-1
 349 83 l 1,29,-1
 333 99 l 1,30,-1
 311 99 l 1,31,-1
 295 83 l 1,32,-1
 295 61 l 1,25,-1
EndSplineSet
EndChar
StartChar: uni0E59
Encoding: 3673 3673 296
Width: 432
Flags: W
Fore
82 212 m 1,0,-1
 82 76 l 1,1,-1
 98 60 l 1,2,-1
 98 102 l 1,3,-1
 140 144 l 1,4,-1
 199 144 l 1,5,-1
 242 102 l 1,6,-1
 242 42 l 1,7,-1
 199 0 l 1,8,-1
 82 0 l 1,9,-1
 28 54 l 1,10,-1
 28 234 l 1,11,-1
 82 288 l 1,12,-1
 161 288 l 1,13,-1
 210 238 l 1,14,-1
 260 288 l 1,15,-1
 309 288 l 1,16,-1
 363 342 l 1,17,-1
 401 303 l 1,18,-1
 331 234 l 1,19,-1
 282 234 l 1,20,-1
 248 200 l 1,21,-1
 413 35 l 1,22,-1
 378 0 l 1,23,-1
 145 234 l 1,24,-1
 104 234 l 1,25,-1
 82 212 l 1,0,-1
143 83 m 1,26,-1
 143 61 l 1,27,-1
 159 45 l 1,28,-1
 181 45 l 1,29,-1
 197 61 l 1,30,-1
 197 83 l 1,31,-1
 181 99 l 1,32,-1
 159 99 l 1,33,-1
 143 83 l 1,26,-1
EndSplineSet
EndChar
StartChar: uni0E5A
Encoding: 3674 3674 297
Width: 457
Flags: W
Fore
349 396 m 1,0,-1
 403 396 l 1,1,-1
 403 0 l 1,2,-1
 349 0 l 1,3,-1
 349 297 l 1,4,-1
 304 252 l 1,5,-1
 277 252 l 1,6,-1
 277 0 l 1,7,-1
 223 0 l 1,8,-1
 223 297 l 1,9,-1
 178 252 l 1,10,-1
 50 252 l 1,11,-1
 7 294 l 1,12,-1
 7 354 l 1,13,-1
 50 396 l 1,14,-1
 109 396 l 1,15,-1
 151 354 l 1,16,-1
 151 306 l 1,17,-1
 156 306 l 1,18,-1
 223 373 l 1,19,-1
 223 396 l 1,20,-1
 277 396 l 1,21,-1
 277 306 l 1,22,-1
 282 306 l 1,23,-1
 349 373 l 1,24,-1
 349 396 l 1,0,-1
68 297 m 1,25,-1
 91 297 l 1,26,-1
 106 313 l 1,27,-1
 106 335 l 1,28,-1
 91 351 l 1,29,-1
 68 351 l 1,30,-1
 53 335 l 1,31,-1
 53 313 l 1,32,-1
 68 297 l 1,25,-1
EndSplineSet
EndChar
StartChar: uni0E5B
Encoding: 3675 3675 298
Width: 745
Flags: W
Fore
614 231 m 1,0,-1
 692 225 l 1,1,-1
 692 207 l 1,2,-1
 584 190 l 1,3,-1
 535 141 l 1,4,-1
 485 191 l 1,5,-1
 435 141 l 1,6,-1
 386 191 l 1,7,-1
 336 141 l 1,8,-1
 332 146 l 1,9,-1
 332 108 l 1,10,-1
 269 45 l 1,11,-1
 80 45 l 1,12,-1
 26 99 l 1,13,-1
 26 279 l 1,14,-1
 80 332 l 1,15,-1
 197 332 l 1,16,-1
 251 279 l 1,17,-1
 251 159 l 1,18,-1
 209 117 l 1,19,-1
 149 117 l 1,20,-1
 107 159 l 1,21,-1
 107 218 l 1,22,-1
 149 261 l 1,23,-1
 193 261 l 1,24,-1
 175 279 l 1,25,-1
 102 279 l 1,26,-1
 80 256 l 1,27,-1
 80 121 l 1,28,-1
 102 99 l 1,29,-1
 247 99 l 1,30,-1
 278 130 l 1,31,-1
 278 269 l 1,32,-1
 336 211 l 1,33,-1
 386 260 l 1,34,-1
 435 211 l 1,35,-1
 485 260 l 1,36,-1
 535 211 l 1,37,-1
 584 260 l 1,38,-1
 614 231 l 1,0,-1
206 200 m 1,39,-1
 190 215 l 1,40,-1
 168 215 l 1,41,-1
 152 200 l 1,42,-1
 152 177 l 1,43,-1
 168 162 l 1,44,-1
 190 162 l 1,45,-1
 206 177 l 1,46,-1
 206 200 l 1,39,-1
EndSplineSet
EndChar
StartChar: zerowidthnonjoiner
Encoding: 8204 8204 299
Width: 0
Flags: W
Fore
-22 240 m 1,0,-1
 23 240 l 1,1,-1
 23 -308 l 1,2,-1
 -22 -308 l 1,3,-1
 -22 240 l 1,4,-1
 -22 240 l 1,0,-1
EndSplineSet
EndChar
StartChar: zerowidthjoiner
Encoding: 8205 8205 300
Width: 0
Flags: W
Fore
-38 241 m 1,0,1
 -30 232 -30 232 -22 224 c 0,2,3
 -16 217 -16 217 -9.5 211 c 128,-1,4
 -3 205 -3 205 -1 203 c 1,5,-1
 37 241 l 1,6,-1
 62 217 l 1,7,-1
 45 200 l 2,8,9
 38 193 38 193 32 186.5 c 128,-1,10
 26 180 26 180 24 178 c 1,11,-1
 62 140 l 1,12,-1
 37 116 l 1,13,14
 34 118 34 118 31 121 c 0,15,16
 29 123 29 123 26.5 126 c 128,-1,17
 24 129 24 129 22 131 c 1,18,-1
 22 -308 l 1,19,-1
 -23 -308 l 1,20,-1
 -23 131 l 1,21,-1
 -38 116 l 1,22,-1
 -63 140 l 1,23,-1
 -25 178 l 1,24,25
 -27 180 -27 180 -33 186.5 c 128,-1,26
 -39 193 -39 193 -46 200 c 2,27,-1
 -63 217 l 1,28,-1
 -38 241 l 1,0,1
EndSplineSet
EndChar
StartChar: lefttorightmark
Encoding: 8206 8206 301
Width: 0
Flags: W
Fore
116 246 m 1,0,-1
 176 186 l 1,1,-1
 116 125 l 1,2,-1
 93 151 l 1,3,4
 95 152 95 152 97 155 c 0,5,6
 101 159 l 128,-1,7
 105 163 l 1,8,-1
 23 163 l 1,9,-1
 23 -308 l 1,10,-1
 -22 -308 l 1,11,-1
 -22 209 l 1,12,-1
 105 209 l 1,13,14
 101 213 l 128,-1,15
 97 217 l 0,16,17
 94 220 94 220 93 222 c 1,18,-1
 116 246 l 1,0,-1
EndSplineSet
EndChar
StartChar: righttoleftmark
Encoding: 8207 8207 302
Width: 0
Flags: W
Fore
-115 247 m 1,0,-1
 -92 223 l 1,1,-1
 -105 210 l 1,2,-1
 23 210 l 1,3,-1
 23 -308 l 1,4,-1
 -22 -308 l 1,5,-1
 -22 164 l 1,6,-1
 -104 164 l 1,7,-1
 -92 152 l 1,8,-1
 -115 126 l 1,9,-1
 -175 187 l 1,10,-1
 -115 247 l 1,0,-1
EndSplineSet
EndChar
StartChar: endash
Encoding: 8211 8211 303
Width: 353
Flags: W
Fore
30 189 m 1,0,-1
 30 243 l 1,1,-1
 300 243 l 1,2,-1
 300 189 l 1,3,-1
 30 189 l 1,0,-1
EndSplineSet
EndChar
StartChar: emdash
Encoding: 8212 8212 304
Width: 532
Flags: W
Fore
29 189 m 1,0,-1
 29 243 l 1,1,-1
 478 243 l 1,2,-1
 478 189 l 1,3,-1
 29 189 l 1,0,-1
EndSplineSet
EndChar
StartChar: quoteleft
Encoding: 8216 8216 305
Width: 173
Flags: W
Fore
29 332 m 1,0,-1
 29 369 l 1,1,-1
 83 450 l 1,2,-1
 119 450 l 1,3,-1
 89 396 l 1,4,-1
 92 396 l 1,5,-1
 119 369 l 1,6,-1
 119 332 l 1,7,-1
 92 306 l 1,8,-1
 55 306 l 1,9,-1
 29 332 l 1,10,-1
 29 332 l 1,0,-1
EndSplineSet
EndChar
StartChar: quoteright
Encoding: 8217 8217 306
Width: 173
Flags: W
Fore
119 423 m 1,0,-1
 119 386 l 1,1,-1
 65 306 l 1,2,-1
 29 306 l 1,3,-1
 59 360 l 1,4,-1
 56 360 l 1,5,-1
 29 386 l 1,6,-1
 29 423 l 1,7,-1
 56 450 l 1,8,-1
 93 450 l 1,9,-1
 119 423 l 1,10,-1
 119 423 l 1,0,-1
EndSplineSet
EndChar
StartChar: quotesinglbase
Encoding: 8218 8218 307
Width: 172
Flags: W
Fore
119 63 m 1,0,-1
 119 26 l 1,1,-1
 65 -54 l 1,2,-1
 29 -54 l 1,3,-1
 59 0 l 1,4,-1
 55 0 l 1,5,-1
 29 26 l 1,6,-1
 29 63 l 1,7,-1
 55 89 l 1,8,-1
 92 89 l 1,9,-1
 119 63 l 1,0,-1
EndSplineSet
EndChar
StartChar: quotedblleft
Encoding: 8220 8220 308
Width: 298
Flags: W
Fore
83 450 m 1,0,-1
 118 450 l 1,1,-1
 89 396 l 1,2,-1
 92 396 l 1,3,-1
 118 369 l 1,4,-1
 118 332 l 1,5,-1
 92 306 l 1,6,-1
 55 306 l 1,7,-1
 29 332 l 1,8,-1
 29 369 l 1,9,-1
 83 450 l 1,0,-1
214 396 m 1,10,-1
 218 396 l 1,11,-1
 244 369 l 1,12,-1
 244 332 l 1,13,-1
 218 306 l 1,14,-1
 181 306 l 1,15,-1
 154 332 l 1,16,-1
 154 369 l 1,17,-1
 208 450 l 1,18,-1
 244 450 l 1,19,-1
 214 396 l 1,10,-1
EndSplineSet
EndChar
StartChar: quotedblright
Encoding: 8221 8221 309
Width: 298
Flags: W
Fore
218 450 m 1,0,-1
 245 423 l 1,1,-1
 245 386 l 1,2,-1
 191 306 l 1,3,-1
 155 306 l 1,4,-1
 185 360 l 1,5,-1
 181 360 l 1,6,-1
 155 386 l 1,7,-1
 155 423 l 1,8,-1
 181 450 l 1,9,-1
 218 450 l 1,0,-1
55 450 m 1,10,-1
 92 450 l 1,11,-1
 119 423 l 1,12,-1
 119 386 l 1,13,-1
 65 306 l 1,14,-1
 29 306 l 1,15,-1
 59 360 l 1,16,-1
 55 360 l 1,17,-1
 29 386 l 1,18,-1
 29 423 l 1,19,-1
 55 450 l 1,10,-1
EndSplineSet
EndChar
StartChar: quotedblbase
Encoding: 8222 8222 310
Width: 298
Flags: W
Fore
55 89 m 1,0,-1
 92 89 l 1,1,-1
 118 63 l 1,2,-1
 118 26 l 1,3,-1
 64 -54 l 1,4,-1
 28 -54 l 1,5,-1
 58 0 l 1,6,-1
 55 0 l 1,7,-1
 28 26 l 1,8,-1
 28 63 l 1,9,-1
 55 89 l 1,0,-1
218 89 m 1,10,-1
 244 63 l 1,11,-1
 244 26 l 1,12,-1
 190 -54 l 1,13,-1
 154 -54 l 1,14,-1
 184 0 l 1,15,-1
 181 0 l 1,16,-1
 154 26 l 1,17,-1
 154 63 l 1,18,-1
 181 89 l 1,19,-1
 218 89 l 1,10,-1
EndSplineSet
EndChar
StartChar: dagger
Encoding: 8224 8224 311
Width: 332
Flags: W
Fore
279 297 m 1,0,-1
 279 243 l 1,1,-1
 180 243 l 1,2,-1
 180 -126 l 1,3,-1
 126 -126 l 1,4,-1
 126 243 l 1,5,-1
 27 243 l 1,6,-1
 27 297 l 1,7,-1
 126 297 l 1,8,-1
 126 396 l 1,9,-1
 180 396 l 1,10,-1
 180 297 l 1,11,-1
 279 297 l 1,0,-1
EndSplineSet
EndChar
StartChar: daggerdbl
Encoding: 8225 8225 312
Width: 332
Flags: W
Fore
278 243 m 1,0,-1
 180 243 l 1,1,-1
 180 153 l 1,2,-1
 278 153 l 1,3,-1
 278 99 l 1,4,-1
 180 99 l 1,5,-1
 180 -126 l 1,6,-1
 126 -126 l 1,7,-1
 126 99 l 1,8,-1
 27 99 l 1,9,-1
 27 153 l 1,10,-1
 126 153 l 1,11,-1
 126 243 l 1,12,-1
 27 243 l 1,13,-1
 27 297 l 1,14,-1
 126 297 l 1,15,-1
 126 396 l 1,16,-1
 180 396 l 1,17,-1
 180 297 l 1,18,-1
 278 297 l 1,19,-1
 278 243 l 1,0,-1
EndSplineSet
EndChar
StartChar: bullet
Encoding: 8226 8226 313
Width: 244
Flags: W
Fore
190 249 m 1,0,-1
 190 182 l 1,1,-1
 143 135 l 1,2,-1
 76 135 l 1,3,-1
 29 182 l 1,4,-1
 29 249 l 1,5,-1
 76 297 l 1,6,-1
 143 297 l 1,7,-1
 190 249 l 1,0,-1
EndSplineSet
EndChar
StartChar: ellipsis
Encoding: 8230 8230 314
Width: 495
Flags: W
Fore
54 89 m 1,0,-1
 91 89 l 1,1,-1
 118 63 l 1,2,-1
 118 26 l 1,3,-1
 91 0 l 1,4,-1
 54 0 l 1,5,-1
 28 26 l 1,6,-1
 28 63 l 1,7,-1
 54 89 l 1,0,-1
216 89 m 1,8,-1
 253 89 l 1,9,-1
 279 63 l 1,10,-1
 279 26 l 1,11,-1
 253 0 l 1,12,-1
 216 0 l 1,13,-1
 190 26 l 1,14,-1
 190 63 l 1,15,-1
 216 89 l 1,8,-1
415 89 m 1,16,-1
 441 63 l 1,17,-1
 441 26 l 1,18,-1
 415 0 l 1,19,-1
 378 0 l 1,20,-1
 351 26 l 1,21,-1
 351 63 l 1,22,-1
 378 89 l 1,23,-1
 415 89 l 1,16,-1
EndSplineSet
EndChar
StartChar: perthousand
Encoding: 8240 8240 315
Width: 650
Flags: W
Fore
287 198 m 1,0,-1
 365 198 l 1,1,-1
 407 156 l 1,2,-1
 407 78 l 1,3,-1
 365 36 l 1,4,-1
 287 36 l 1,5,-1
 245 78 l 1,6,-1
 245 156 l 1,7,-1
 287 198 l 1,0,-1
362 97 m 1,8,-1
 362 137 l 1,9,-1
 346 153 l 1,10,-1
 306 153 l 1,11,-1
 291 137 l 1,12,-1
 291 97 l 1,13,-1
 306 81 l 1,14,-1
 346 81 l 1,15,-1
 362 97 l 1,8,-1
554 198 m 1,16,-1
 596 156 l 1,17,-1
 596 78 l 1,18,-1
 554 36 l 1,19,-1
 476 36 l 1,20,-1
 434 78 l 1,21,-1
 434 156 l 1,22,-1
 476 198 l 1,23,-1
 554 198 l 1,16,-1
551 97 m 1,24,-1
 551 137 l 1,25,-1
 535 153 l 1,26,-1
 495 153 l 1,27,-1
 479 137 l 1,28,-1
 479 97 l 1,29,-1
 495 81 l 1,30,-1
 535 81 l 1,31,-1
 551 97 l 1,24,-1
310 432 m 1,32,-1
 372 432 l 1,33,-1
 127 0 l 1,34,-1
 65 0 l 1,35,-1
 310 432 l 1,32,-1
191 354 m 1,36,-1
 191 276 l 1,37,-1
 149 234 l 1,38,-1
 71 234 l 1,39,-1
 29 276 l 1,40,-1
 29 354 l 1,41,-1
 71 396 l 1,42,-1
 149 396 l 1,43,-1
 191 354 l 1,36,-1
146 335 m 1,44,-1
 130 351 l 1,45,-1
 90 351 l 1,46,-1
 74 335 l 1,47,-1
 74 295 l 1,48,-1
 90 279 l 1,49,-1
 130 279 l 1,50,-1
 146 295 l 1,51,-1
 146 335 l 1,44,-1
EndSplineSet
EndChar
StartChar: minute
Encoding: 8242 8242 316
Width: 136
Flags: W
Fore
11 341 m 1,0,-1
 29 431 l 1,1,-1
 83 431 l 1,2,-1
 47 341 l 1,3,-1
 11 341 l 1,0,-1
EndSplineSet
EndChar
StartChar: second
Encoding: 8243 8243 317
Width: 218
Flags: W
Fore
11 341 m 1,0,-1
 29 431 l 1,1,-1
 83 431 l 1,2,-1
 47 341 l 1,3,-1
 11 341 l 1,0,-1
110 431 m 1,4,-1
 164 431 l 1,5,-1
 128 341 l 1,6,-1
 92 341 l 1,7,-1
 110 431 l 1,4,-1
EndSplineSet
EndChar
StartChar: guilsinglleft
Encoding: 8249 8249 318
Width: 191
Flags: W
Fore
137 301 m 1,0,-1
 137 228 l 1,1,-1
 80 175 l 1,2,-1
 137 122 l 1,3,-1
 137 49 l 1,4,-1
 29 148 l 1,5,-1
 29 201 l 1,6,-1
 137 301 l 1,0,-1
EndSplineSet
EndChar
StartChar: guilsinglright
Encoding: 8250 8250 319
Width: 190
Flags: W
Fore
28 301 m 1,0,-1
 136 201 l 1,1,-1
 136 148 l 1,2,-1
 28 49 l 1,3,-1
 28 122 l 1,4,-1
 86 175 l 1,5,-1
 28 228 l 1,6,-1
 28 301 l 1,0,-1
EndSplineSet
EndChar
StartChar: fraction
Encoding: 8260 8260 320
Width: 382
Flags: W
Fore
267 432 m 1,0,-1
 329 432 l 1,1,-1
 84 0 l 1,2,-1
 22 0 l 1,3,-1
 267 432 l 1,0,-1
EndSplineSet
EndChar
StartChar: Euro
Encoding: 8364 8364 321
Width: 458
Flags: W
Fore
404 333 m 1,0,-1
 350 333 l 1,1,-1
 350 355 l 1,2,-1
 328 378 l 1,3,-1
 139 378 l 1,4,-1
 117 356 l 1,5,-1
 117 298 l 1,6,-1
 305 298 l 1,7,-1
 305 244 l 1,8,-1
 117 244 l 1,9,-1
 117 190 l 1,10,-1
 305 190 l 1,11,-1
 305 136 l 1,12,-1
 117 136 l 1,13,-1
 117 76 l 1,14,-1
 139 54 l 1,15,-1
 328 54 l 1,16,-1
 350 76 l 1,17,-1
 350 99 l 1,18,-1
 404 99 l 1,19,-1
 404 54 l 1,20,-1
 351 0 l 1,21,-1
 117 0 l 1,22,-1
 63 54 l 1,23,-1
 63 136 l 1,24,-1
 29 136 l 1,25,-1
 29 190 l 1,26,-1
 63 190 l 1,27,-1
 63 244 l 1,28,-1
 29 244 l 1,29,-1
 29 298 l 1,30,-1
 63 298 l 1,31,-1
 63 378 l 1,32,-1
 116 432 l 1,33,-1
 350 432 l 1,34,-1
 404 378 l 1,35,-1
 404 333 l 1,0,-1
EndSplineSet
EndChar
StartChar: uni2113
Encoding: 8467 8467 322
Width: 268
Flags: W
Fore
147 54 m 1,0,-1
 214 54 l 1,1,-1
 214 0 l 1,2,-1
 124 0 l 1,3,-1
 70 54 l 1,4,-1
 70 117 l 1,5,-1
 66 113 l 1,6,-1
 28 151 l 1,7,-1
 70 194 l 1,8,-1
 70 432 l 1,9,-1
 152 432 l 1,10,-1
 205 378 l 1,11,-1
 205 252 l 1,12,-1
 124 171 l 1,13,-1
 124 77 l 1,14,-1
 147 54 l 1,0,-1
129 378 m 1,15,-1
 124 378 l 1,16,-1
 124 252 l 1,17,-1
 129 252 l 1,18,-1
 151 275 l 1,19,-1
 151 356 l 1,20,-1
 129 378 l 1,15,-1
EndSplineSet
EndChar
StartChar: trademark
Encoding: 8482 8482 323
Width: 550
Flags: W
Fore
28 387 m 1,0,-1
 28 432 l 1,1,-1
 199 432 l 1,2,-1
 199 387 l 1,3,-1
 136 387 l 1,4,-1
 136 181 l 1,5,-1
 91 181 l 1,6,-1
 91 387 l 1,7,-1
 28 387 l 1,0,-1
496 432 m 1,8,-1
 496 181 l 1,9,-1
 451 181 l 1,10,-1
 451 322 l 1,11,-1
 388 181 l 1,12,-1
 343 181 l 1,13,-1
 280 322 l 1,14,-1
 280 181 l 1,15,-1
 235 181 l 1,16,-1
 235 432 l 1,17,-1
 281 432 l 1,18,-1
 366 241 l 1,19,-1
 451 432 l 1,20,-1
 496 432 l 1,8,-1
EndSplineSet
EndChar
StartChar: Ohm
Encoding: 8486 8486 324
Width: 441
Flags: W
Fore
297 54 m 1,0,-1
 387 54 l 1,1,-1
 387 0 l 1,2,-1
 243 0 l 1,3,-1
 243 91 l 1,4,-1
 315 159 l 1,5,-1
 315 322 l 1,6,-1
 293 344 l 1,7,-1
 122 344 l 1,8,-1
 99 322 l 1,9,-1
 99 159 l 1,10,-1
 171 91 l 1,11,-1
 171 0 l 1,12,-1
 28 0 l 1,13,-1
 28 54 l 1,14,-1
 117 54 l 1,15,-1
 117 68 l 1,16,-1
 46 135 l 1,17,-1
 46 344 l 1,18,-1
 99 398 l 1,19,-1
 315 398 l 1,20,-1
 369 344 l 1,21,-1
 369 135 l 1,22,-1
 297 68 l 1,23,-1
 297 54 l 1,0,-1
EndSplineSet
EndChar
StartChar: estimated
Encoding: 8494 8494 325
Width: 242
Flags: W
Fore
135 342 m 1,0,-1
 188 288 l 1,1,-1
 188 153 l 1,2,-1
 81 153 l 1,3,-1
 81 77 l 1,4,-1
 103 54 l 1,5,-1
 112 54 l 1,6,-1
 134 77 l 1,7,-1
 134 99 l 1,8,-1
 188 99 l 1,9,-1
 188 54 l 1,10,-1
 135 0 l 1,11,-1
 80 0 l 1,12,-1
 27 54 l 1,13,-1
 27 288 l 1,14,-1
 80 342 l 1,15,-1
 135 342 l 1,0,-1
81 207 m 1,16,-1
 134 207 l 1,17,-1
 134 266 l 1,18,-1
 112 288 l 1,19,-1
 103 288 l 1,20,-1
 81 266 l 1,21,-1
 81 207 l 1,16,-1
EndSplineSet
EndChar
StartChar: partialdiff
Encoding: 8706 8706 326
Width: 242
Flags: W
Fore
134 342 m 1,0,-1
 188 288 l 1,1,-1
 188 54 l 1,2,-1
 135 0 l 1,3,-1
 80 0 l 1,4,-1
 26 54 l 1,5,-1
 26 117 l 1,6,-1
 26 171 l 1,7,-1
 80 225 l 1,8,-1
 134 225 l 1,9,-1
 134 266 l 1,10,-1
 112 288 l 1,11,-1
 102 288 l 1,12,-1
 80 266 l 1,13,-1
 80 243 l 1,14,-1
 26 243 l 1,15,-1
 26 289 l 1,16,-1
 80 342 l 1,17,-1
 134 342 l 1,0,-1
134 77 m 1,18,-1
 134 171 l 1,19,-1
 103 171 l 1,20,-1
 80 149 l 1,21,-1
 80 77 l 1,22,-1
 103 54 l 1,23,-1
 112 54 l 1,24,-1
 134 77 l 1,18,-1
EndSplineSet
EndChar
StartChar: Delta
Encoding: 8710 8710 327
Width: 437
Flags: W
Fore
240 333 m 1,0,-1
 384 49 l 1,1,-1
 384 0 l 1,2,-1
 24 0 l 1,3,-1
 24 54 l 1,4,-1
 168 333 l 1,5,-1
 240 333 l 1,0,-1
85 54 m 1,6,-1
 321 54 l 1,7,-1
 207 279 l 1,8,-1
 201 279 l 1,9,-1
 85 54 l 1,6,-1
EndSplineSet
EndChar
StartChar: product
Encoding: 8719 8719 328
Width: 394
Flags: W
Fore
26 432 m 1,0,-1
 341 432 l 1,1,-1
 341 -126 l 1,2,-1
 287 -126 l 1,3,-1
 287 378 l 1,4,-1
 80 378 l 1,5,-1
 80 -126 l 1,6,-1
 26 -126 l 1,7,-1
 26 432 l 1,0,-1
EndSplineSet
EndChar
StartChar: summation
Encoding: 8721 8721 329
Width: 386
Flags: W
Fore
27 432 m 1,0,-1
 332 432 l 1,1,-1
 332 378 l 1,2,-1
 81 378 l 1,3,-1
 81 355 l 1,4,-1
 217 216 l 1,5,-1
 81 77 l 1,6,-1
 81 54 l 1,7,-1
 332 54 l 1,8,-1
 332 0 l 1,9,-1
 27 0 l 1,10,-1
 27 99 l 1,11,-1
 142 216 l 1,12,-1
 27 333 l 1,13,-1
 27 432 l 1,0,-1
EndSplineSet
EndChar
StartChar: minus
Encoding: 8722 8722 330
Width: 439
Flags: W
Fore
35 189 m 1,0,-1
 35 243 l 1,1,-1
 378 243 l 1,2,-1
 378 189 l 1,3,-1
 35 189 l 1,4,-1
 35 189 l 1,0,-1
EndSplineSet
EndChar
StartChar: radical
Encoding: 8730 8730 331
Width: 404
Flags: W
Fore
293 432 m 1,0,-1
 350 432 l 1,1,-1
 190 0 l 1,2,-1
 136 0 l 1,3,-1
 86 135 l 1,4,-1
 28 135 l 1,5,-1
 28 189 l 1,6,-1
 123 189 l 1,7,-1
 163 83 l 1,8,-1
 293 432 l 1,0,-1
EndSplineSet
EndChar
StartChar: infinity
Encoding: 8734 8734 332
Width: 565
Flags: W
Fore
458 333 m 1,0,-1
 511 279 l 1,1,-1
 511 153 l 1,2,-1
 458 99 l 1,3,-1
 332 99 l 1,4,-1
 269 174 l 1,5,-1
 206 99 l 1,6,-1
 80 99 l 1,7,-1
 26 153 l 1,8,-1
 26 279 l 1,9,-1
 80 333 l 1,10,-1
 206 333 l 1,11,-1
 269 258 l 1,12,-1
 332 333 l 1,13,-1
 458 333 l 1,0,-1
181 153 m 1,14,-1
 234 216 l 1,15,-1
 181 279 l 1,16,-1
 102 279 l 1,17,-1
 80 257 l 1,18,-1
 80 175 l 1,19,-1
 102 153 l 1,20,-1
 181 153 l 1,14,-1
458 175 m 1,21,-1
 458 257 l 1,22,-1
 435 279 l 1,23,-1
 357 279 l 1,24,-1
 304 216 l 1,25,-1
 357 153 l 1,26,-1
 435 153 l 1,27,-1
 458 175 l 1,21,-1
EndSplineSet
EndChar
StartChar: integral
Encoding: 8747 8747 333
Width: 359
Flags: W
Fore
237 378 m 1,0,-1
 210 356 l 1,1,-1
 146 54 l 1,2,-1
 81 0 l 1,3,-1
 0 0 l 1,4,-1
 0 54 l 1,5,-1
 70 54 l 1,6,-1
 97 76 l 1,7,-1
 161 378 l 1,8,-1
 226 432 l 1,9,-1
 305 432 l 1,10,-1
 305 378 l 1,11,-1
 237 378 l 1,0,-1
EndSplineSet
EndChar
StartChar: approxequal
Encoding: 8776 8776 334
Width: 424
Flags: W
Fore
124 258 m 1,0,-1
 62 222 l 1,1,-1
 35 269 l 1,2,-1
 116 316 l 1,3,-1
 273 274 l 1,4,-1
 336 310 l 1,5,-1
 363 263 l 1,6,-1
 281 216 l 1,7,-1
 124 258 l 1,0,-1
273 175 m 1,8,-1
 336 212 l 1,9,-1
 363 165 l 1,10,-1
 281 117 l 1,11,-1
 124 159 l 1,12,-1
 62 124 l 1,13,-1
 35 171 l 1,14,-1
 116 217 l 1,15,-1
 273 175 l 1,8,-1
EndSplineSet
EndChar
StartChar: notequal
Encoding: 8800 8800 335
Width: 294
Flags: W
Fore
240 216 m 1,0,-1
 160 216 l 1,1,-1
 146 153 l 1,2,-1
 240 153 l 1,3,-1
 240 99 l 1,4,-1
 135 99 l 1,5,-1
 114 0 l 1,6,-1
 60 0 l 1,7,-1
 81 99 l 1,8,-1
 24 99 l 1,9,-1
 24 153 l 1,10,-1
 93 153 l 1,11,-1
 106 216 l 1,12,-1
 24 216 l 1,13,-1
 24 270 l 1,14,-1
 117 270 l 1,15,-1
 137 360 l 1,16,-1
 190 360 l 1,17,-1
 171 270 l 1,18,-1
 240 270 l 1,19,-1
 240 216 l 1,0,-1
EndSplineSet
EndChar
StartChar: lessequal
Encoding: 8804 8804 336
Width: 421
Flags: W
Fore
35 0 m 1,0,-1
 35 54 l 1,1,-1
 359 54 l 1,2,-1
 359 0 l 1,3,-1
 35 0 l 1,0,-1
359 360 m 1,4,-1
 359 303 l 1,5,-1
 119 216 l 1,6,-1
 359 130 l 1,7,-1
 359 72 l 1,8,-1
 35 189 l 1,9,-1
 35 243 l 1,10,-1
 359 360 l 1,4,-1
EndSplineSet
EndChar
StartChar: greaterequal
Encoding: 8805 8805 337
Width: 421
Flags: W
Fore
36 0 m 1,0,-1
 36 54 l 1,1,-1
 359 54 l 1,2,-1
 359 0 l 1,3,-1
 36 0 l 1,0,-1
36 360 m 1,4,-1
 359 243 l 1,5,-1
 359 189 l 1,6,-1
 36 72 l 1,7,-1
 36 130 l 1,8,-1
 275 216 l 1,9,-1
 36 303 l 1,10,-1
 36 360 l 1,4,-1
EndSplineSet
EndChar
StartChar: lozenge
Encoding: 9674 9674 338
Width: 361
Flags: W
Fore
201 414 m 1,0,-1
 307 207 l 1,1,-1
 201 0 l 1,2,-1
 128 0 l 1,3,-1
 24 207 l 1,4,-1
 128 414 l 1,5,-1
 201 414 l 1,0,-1
168 54 m 1,6,-1
 247 207 l 1,7,-1
 168 360 l 1,8,-1
 161 360 l 1,9,-1
 84 207 l 1,10,-1
 161 54 l 1,11,-1
 168 54 l 1,6,-1
EndSplineSet
EndChar
StartChar: dottedcircle
Encoding: 9676 9676 339
Width: 526
Flags: W
Fore
234 442 m 1,0,-1
 268 442 l 1,1,-1
 292 418 l 1,2,-1
 292 384 l 1,3,-1
 268 360 l 1,4,-1
 234 360 l 1,5,-1
 210 384 l 1,6,-1
 210 418 l 1,7,-1
 234 442 l 1,0,-1
361 389 m 1,8,-1
 395 389 l 1,9,-1
 419 365 l 1,10,-1
 419 331 l 1,11,-1
 395 307 l 1,12,-1
 361 307 l 1,13,-1
 337 331 l 1,14,-1
 337 365 l 1,15,-1
 361 389 l 1,8,-1
107 389 m 1,16,-1
 141 389 l 1,17,-1
 165 365 l 1,18,-1
 165 331 l 1,19,-1
 141 307 l 1,20,-1
 107 307 l 1,21,-1
 83 331 l 1,22,-1
 83 365 l 1,23,-1
 107 389 l 1,16,-1
414 262 m 1,24,-1
 448 262 l 1,25,-1
 472 238 l 1,26,-1
 472 204 l 1,27,-1
 448 180 l 1,28,-1
 414 180 l 1,29,-1
 390 204 l 1,30,-1
 390 238 l 1,31,-1
 414 262 l 1,24,-1
54 262 m 1,32,-1
 88 262 l 1,33,-1
 112 238 l 1,34,-1
 112 204 l 1,35,-1
 88 180 l 1,36,-1
 54 180 l 1,37,-1
 30 204 l 1,38,-1
 30 238 l 1,39,-1
 54 262 l 1,32,-1
361 135 m 1,40,-1
 395 135 l 1,41,-1
 419 111 l 1,42,-1
 419 77 l 1,43,-1
 395 53 l 1,44,-1
 361 53 l 1,45,-1
 337 77 l 1,46,-1
 337 111 l 1,47,-1
 361 135 l 1,40,-1
107 135 m 1,48,-1
 141 135 l 1,49,-1
 165 111 l 1,50,-1
 165 77 l 1,51,-1
 141 53 l 1,52,-1
 107 53 l 1,53,-1
 83 77 l 1,54,-1
 83 111 l 1,55,-1
 107 135 l 1,48,-1
234 82 m 1,56,-1
 268 82 l 1,57,-1
 292 58 l 1,58,-1
 292 24 l 1,59,-1
 268 0 l 1,60,-1
 234 0 l 1,61,-1
 210 24 l 1,62,-1
 210 58 l 1,63,-1
 234 82 l 1,56,-1
EndSplineSet
EndChar
StartChar: uni0E10.alt1
Encoding: 63232 63232 340
Width: 381
Flags: W
Fore
345 342 m 1,0,-1
 97 342 l 1,1,-1
 87 332 l 1,2,-1
 327 270 l 1,3,-1
 327 0 l 1,4,-1
 273 0 l 1,5,-1
 273 86 l 1,6,-1
 232 127 l 1,7,-1
 195 90 l 1,8,-1
 135 90 l 1,9,-1
 93 132 l 1,10,-1
 93 192 l 1,11,-1
 135 234 l 1,12,-1
 195 234 l 1,13,-1
 273 156 l 1,14,-1
 273 233 l 1,15,-1
 22 297 l 1,16,-1
 21 297 l 1,17,-1
 21 342 l 1,18,-1
 75 396 l 1,19,-1
 345 396 l 1,20,-1
 345 342 l 1,0,-1
192 151 m 1,21,-1
 192 174 l 1,22,-1
 176 189 l 1,23,-1
 154 189 l 1,24,-1
 138 174 l 1,25,-1
 138 151 l 1,26,-1
 154 136 l 1,27,-1
 176 136 l 1,28,-1
 192 151 l 1,21,-1
EndSplineSet
EndChar
StartChar: uni0E34.alt1
Encoding: 63233 63233 341
Width: 0
Flags: W
Fore
-186 572 m 1,0,-1
 -132 518 l 1,1,-1
 -132 455 l 1,2,-1
 -438 455 l 1,3,-1
 -438 518 l 1,4,-1
 -384 572 l 1,5,-1
 -186 572 l 1,0,-1
-392 500 m 1,6,-1
 -178 500 l 1,7,-1
 -205 527 l 1,8,-1
 -365 527 l 1,9,-1
 -392 500 l 1,6,-1
EndSplineSet
EndChar
StartChar: uni0E35.alt1
Encoding: 63234 63234 342
Width: 0
Flags: W
Fore
-131 617 m 1,0,-1
 -131 455 l 1,1,-1
 -437 455 l 1,2,-1
 -437 518 l 1,3,-1
 -383 572 l 1,4,-1
 -185 572 l 1,5,-1
 -176 563 l 1,6,-1
 -176 617 l 1,7,-1
 -131 617 l 1,0,-1
-391 500 m 1,8,-1
 -177 500 l 1,9,-1
 -204 527 l 1,10,-1
 -364 527 l 1,11,-1
 -391 500 l 1,8,-1
EndSplineSet
EndChar
StartChar: uni0E36.alt1
Encoding: 63235 63235 343
Width: 0
Flags: W
Fore
-153 615 m 1,0,-1
 -116 578 l 1,1,-1
 -116 526 l 1,2,-1
 -148 494 l 1,3,-1
 -148 453 l 1,4,-1
 -453 453 l 1,5,-1
 -453 516 l 1,6,-1
 -399 570 l 1,7,-1
 -242 570 l 1,8,-1
 -242 578 l 1,9,-1
 -205 615 l 1,10,-1
 -153 615 l 1,0,-1
-186 570 m 1,11,-1
 -197 560 l 1,12,-1
 -197 545 l 1,13,-1
 -186 534 l 1,14,-1
 -171 534 l 1,15,-1
 -161 545 l 1,16,-1
 -161 560 l 1,17,-1
 -171 570 l 1,18,-1
 -186 570 l 1,11,-1
-407 498 m 1,19,-1
 -193 498 l 1,20,-1
 -220 525 l 1,21,-1
 -381 525 l 1,22,-1
 -407 498 l 1,19,-1
EndSplineSet
EndChar
StartChar: uni0E37.alt1
Encoding: 63236 63236 344
Width: 0
Flags: W
Fore
-130 616 m 1,0,-1
 -130 454 l 1,1,-1
 -436 454 l 1,2,-1
 -436 517 l 1,3,-1
 -382 571 l 1,4,-1
 -247 571 l 1,5,-1
 -247 616 l 1,6,-1
 -202 616 l 1,7,-1
 -202 571 l 1,8,-1
 -185 571 l 1,9,-1
 -175 562 l 1,10,-1
 -175 616 l 1,11,-1
 -130 616 l 1,0,-1
-390 499 m 1,12,-1
 -176 499 l 1,13,-1
 -203 526 l 1,14,-1
 -363 526 l 1,15,-1
 -390 499 l 1,12,-1
EndSplineSet
EndChar
StartChar: uni0E48.alt1
Encoding: 63237 63237 345
Width: 0
Flags: W
Fore
-177 455 m 1,0,-1
 -177 616 l 1,1,-1
 -132 616 l 1,2,-1
 -132 455 l 1,3,-1
 -177 455 l 1,0,-1
EndSplineSet
Substitution: 0 65534 'L026' uni0E48.alt3
Substitution: 0 65534 'L026' uni0E48.alt3
EndChar
StartChar: uni0E49.alt1
Encoding: 63238 63238 346
Width: 0
Flags: W
Fore
-138 582 m 1,0,-1
 -106 550 l 1,1,-1
 -200 455 l 1,2,-1
 -353 455 l 1,3,-1
 -353 500 l 1,4,-1
 -325 500 l 1,5,-1
 -353 528 l 1,6,-1
 -353 580 l 1,7,-1
 -317 617 l 1,8,-1
 -264 617 l 1,9,-1
 -228 580 l 1,10,-1
 -228 528 l 1,11,-1
 -255 500 l 1,12,-1
 -219 500 l 1,13,-1
 -138 582 l 1,0,-1
-308 562 m 1,14,-1
 -308 547 l 1,15,-1
 -298 536 l 1,16,-1
 -283 536 l 1,17,-1
 -272 547 l 1,18,-1
 -272 562 l 1,19,-1
 -283 572 l 1,20,-1
 -298 572 l 1,21,-1
 -308 562 l 1,14,-1
EndSplineSet
Substitution: 0 65534 'L026' uni0E49.alt3
Substitution: 0 65534 'L026' uni0E49.alt3
EndChar
StartChar: uni0E4A.alt1
Encoding: 63239 63239 347
Width: 0
Flags: W
Fore
-139 588 m 1,0,-1
 -110 558 l 1,1,-1
 -213 455 l 1,2,-1
 -242 484 l 1,3,-1
 -214 512 l 1,4,-1
 -231 529 l 1,5,-1
 -296 464 l 1,6,-1
 -348 464 l 1,7,-1
 -385 501 l 1,8,-1
 -385 553 l 1,9,-1
 -348 590 l 1,10,-1
 -296 590 l 1,11,-1
 -265 559 l 1,12,-1
 -234 590 l 1,13,-1
 -185 541 l 1,14,-1
 -139 588 l 1,0,-1
-340 520 m 1,15,-1
 -329 509 l 1,16,-1
 -314 509 l 1,17,-1
 -304 520 l 1,18,-1
 -304 535 l 1,19,-1
 -314 545 l 1,20,-1
 -329 545 l 1,21,-1
 -340 535 l 1,22,-1
 -340 520 l 1,15,-1
EndSplineSet
Substitution: 0 65534 'L026' uni0E4A.alt3
Substitution: 0 65534 'L026' uni0E4A.alt3
EndChar
StartChar: uni0E4B.alt1
Encoding: 63240 63240 348
Width: 0
Flags: W
Fore
-119 550 m 1,0,-1
 -119 505 l 1,1,-1
 -169 505 l 1,2,-1
 -169 455 l 1,3,-1
 -213 455 l 1,4,-1
 -213 505 l 1,5,-1
 -263 505 l 1,6,-1
 -263 550 l 1,7,-1
 -213 550 l 1,8,-1
 -213 599 l 1,9,-1
 -169 599 l 1,10,-1
 -169 550 l 1,11,-1
 -119 550 l 1,0,-1
EndSplineSet
Substitution: 0 65534 'L026' uni0E4B.alt3
Substitution: 0 65534 'L026' uni0E4B.alt3
EndChar
StartChar: uni0E4C.alt1
Encoding: 63241 63241 349
Width: 0
Flags: W
Fore
-116 622 m 1,0,-1
 -162 576 l 1,1,-1
 -131 544 l 1,2,-1
 -131 492 l 1,3,-1
 -168 455 l 1,4,-1
 -220 455 l 1,5,-1
 -257 492 l 1,6,-1
 -257 544 l 1,7,-1
 -148 654 l 1,8,-1
 -116 622 l 1,0,-1
-187 536 m 1,9,-1
 -201 536 l 1,10,-1
 -212 526 l 1,11,-1
 -212 511 l 1,12,-1
 -201 500 l 1,13,-1
 -187 500 l 1,14,-1
 -176 511 l 1,15,-1
 -176 526 l 1,16,-1
 -187 536 l 1,9,-1
EndSplineSet
Substitution: 0 65534 'L026' uni0E4C.alt3
Substitution: 0 65534 'L026' uni0E4C.alt3
EndChar
StartChar: uni0E48.alt2
Encoding: 63242 63242 350
Width: 0
Flags: W
Fore
-115 455 m 1,0,-1
 -115 617 l 1,1,-1
 -71 617 l 1,2,-1
 -71 455 l 1,3,-1
 -115 455 l 1,0,-1
EndSplineSet
Substitution: 0 65534 'L028' uni0E48.alt3
Substitution: 0 65534 'L027' uni0E48
Substitution: 0 65534 'L026' uni0E48.alt1
Substitution: 0 65534 'L028' uni0E48.alt3
Substitution: 0 65534 'L027' uni0E48
Substitution: 0 65534 'L026' uni0E48.alt1
EndChar
StartChar: uni0E49.alt2
Encoding: 63243 63243 351
Width: 0
Flags: W
Fore
0 581 m 1,0,-1
 32 549 l 1,1,-1
 -62 455 l 1,2,-1
 -215 455 l 1,3,-1
 -215 500 l 1,4,-1
 -187 500 l 1,5,-1
 -215 528 l 1,6,-1
 -215 580 l 1,7,-1
 -178 617 l 1,8,-1
 -126 617 l 1,9,-1
 -89 580 l 1,10,-1
 -89 528 l 1,11,-1
 -117 500 l 1,12,-1
 -81 500 l 1,13,-1
 0 581 l 1,0,-1
-170 561 m 1,14,-1
 -170 546 l 1,15,-1
 -160 536 l 1,16,-1
 -145 536 l 1,17,-1
 -134 546 l 1,18,-1
 -134 561 l 1,19,-1
 -145 572 l 1,20,-1
 -160 572 l 1,21,-1
 -170 561 l 1,14,-1
EndSplineSet
Substitution: 0 65534 'L028' uni0E49.alt3
Substitution: 0 65534 'L027' uni0E49
Substitution: 0 65534 'L026' uni0E49.alt1
Substitution: 0 65534 'L028' uni0E49.alt3
Substitution: 0 65534 'L027' uni0E49
Substitution: 0 65534 'L026' uni0E49.alt1
EndChar
StartChar: uni0E4A.alt2
Encoding: 63244 63244 352
Width: 0
Flags: W
Fore
33 588 m 1,0,-1
 62 559 l 1,1,-1
 -41 456 l 1,2,-1
 -70 485 l 1,3,-1
 -42 513 l 1,4,-1
 -59 530 l 1,5,-1
 -124 465 l 1,6,-1
 -176 465 l 1,7,-1
 -213 502 l 1,8,-1
 -213 554 l 1,9,-1
 -176 591 l 1,10,-1
 -124 591 l 1,11,-1
 -93 560 l 1,12,-1
 -62 590 l 1,13,-1
 -13 542 l 1,14,-1
 33 588 l 1,0,-1
-168 520 m 1,15,-1
 -157 510 l 1,16,-1
 -142 510 l 1,17,-1
 -132 520 l 1,18,-1
 -132 535 l 1,19,-1
 -142 546 l 1,20,-1
 -157 546 l 1,21,-1
 -168 535 l 1,22,-1
 -168 520 l 1,15,-1
EndSplineSet
Substitution: 0 65534 'L028' uni0E4A.alt3
Substitution: 0 65534 'L027' uni0E4A
Substitution: 0 65534 'L026' uni0E4A.alt1
Substitution: 0 65534 'L028' uni0E4A.alt3
Substitution: 0 65534 'L027' uni0E4A
Substitution: 0 65534 'L026' uni0E4A.alt1
EndChar
StartChar: uni0E4B.alt2
Encoding: 63245 63245 353
Width: 0
Flags: W
Fore
-21 550 m 1,0,-1
 -21 505 l 1,1,-1
 -70 505 l 1,2,-1
 -70 456 l 1,3,-1
 -115 456 l 1,4,-1
 -115 505 l 1,5,-1
 -165 505 l 1,6,-1
 -165 550 l 1,7,-1
 -115 550 l 1,8,-1
 -115 600 l 1,9,-1
 -70 600 l 1,10,-1
 -70 550 l 1,11,-1
 -21 550 l 1,0,-1
EndSplineSet
Substitution: 0 65534 'L028' uni0E4B.alt3
Substitution: 0 65534 'L027' uni0E4B
Substitution: 0 65534 'L026' uni0E4B.alt1
Substitution: 0 65534 'L028' uni0E4B.alt3
Substitution: 0 65534 'L027' uni0E4B
Substitution: 0 65534 'L026' uni0E4B.alt1
EndChar
StartChar: uni0E4C.alt2
Encoding: 63246 63246 354
Width: 0
Flags: W
Fore
-55 623 m 1,0,-1
 -101 577 l 1,1,-1
 -70 546 l 1,2,-1
 -70 494 l 1,3,-1
 -107 457 l 1,4,-1
 -159 457 l 1,5,-1
 -196 494 l 1,6,-1
 -196 546 l 1,7,-1
 -87 655 l 1,8,-1
 -55 623 l 1,0,-1
-125 538 m 1,9,-1
 -140 538 l 1,10,-1
 -151 527 l 1,11,-1
 -151 512 l 1,12,-1
 -140 502 l 1,13,-1
 -125 502 l 1,14,-1
 -115 512 l 1,15,-1
 -115 527 l 1,16,-1
 -125 538 l 1,9,-1
EndSplineSet
Substitution: 0 65534 'L028' uni0E4C.alt3
Substitution: 0 65534 'L027' uni0E4C
Substitution: 0 65534 'L026' uni0E4C.alt1
Substitution: 0 65534 'L028' uni0E4C.alt3
Substitution: 0 65534 'L027' uni0E4C
Substitution: 0 65534 'L026' uni0E4C.alt1
EndChar
StartChar: uni0E0D.alt1
Encoding: 63247 63247 355
Width: 590
Flags: W
Fore
300 320 m 1,0,-1
 277 342 l 1,1,-1
 106 342 l 1,2,-1
 164 284 l 1,3,-1
 102 222 l 1,4,-1
 102 144 l 1,5,-1
 149 144 l 1,6,-1
 192 102 l 1,7,-1
 192 43 l 1,8,-1
 149 0 l 1,9,-1
 90 0 l 1,10,-1
 48 43 l 1,11,-1
 48 244 l 1,12,-1
 88 284 l 1,13,-1
 30 342 l 1,14,-1
 83 396 l 1,15,-1
 300 396 l 1,16,-1
 353 342 l 1,17,-1
 353 54 l 1,18,-1
 457 54 l 1,19,-1
 479 77 l 1,20,-1
 479 396 l 1,21,-1
 533 396 l 1,22,-1
 533 54 l 1,23,-1
 479 0 l 1,24,-1
 300 0 l 1,25,-1
 300 320 l 1,0,-1
108 99 m 1,26,-1
 93 84 l 1,27,-1
 93 61 l 1,28,-1
 108 46 l 1,29,-1
 131 46 l 1,30,-1
 146 61 l 1,31,-1
 146 84 l 1,32,-1
 131 99 l 1,33,-1
 108 99 l 1,26,-1
EndSplineSet
EndChar
StartChar: uni0E31.alt1
Encoding: 63248 63248 356
Width: 0
Flags: W
Fore
-153 545 m 1,0,-1
 -121 513 l 1,1,-1
 -180 455 l 1,2,-1
 -386 455 l 1,3,-1
 -422 491 l 1,4,-1
 -422 544 l 1,5,-1
 -386 580 l 1,6,-1
 -333 580 l 1,7,-1
 -296 544 l 1,8,-1
 -296 509 l 1,9,-1
 -189 509 l 1,10,-1
 -153 545 l 1,0,-1
-352 500 m 1,11,-1
 -341 510 l 1,12,-1
 -341 525 l 1,13,-1
 -352 536 l 1,14,-1
 -367 536 l 1,15,-1
 -377 525 l 1,16,-1
 -377 510 l 1,17,-1
 -367 500 l 1,18,-1
 -352 500 l 1,11,-1
EndSplineSet
EndChar
StartChar: uni0E4D.alt1
Encoding: 63249 63249 357
Width: 0
Flags: W
Fore
-169 580 m 1,0,-1
 -132 544 l 1,1,-1
 -132 491 l 1,2,-1
 -169 455 l 1,3,-1
 -221 455 l 1,4,-1
 -258 491 l 1,5,-1
 -258 544 l 1,6,-1
 -221 580 l 1,7,-1
 -169 580 l 1,0,-1
-187 500 m 1,8,-1
 -177 510 l 1,9,-1
 -177 525 l 1,10,-1
 -187 536 l 1,11,-1
 -202 536 l 1,12,-1
 -213 525 l 1,13,-1
 -213 510 l 1,14,-1
 -202 500 l 1,15,-1
 -187 500 l 1,8,-1
EndSplineSet
EndChar
StartChar: uni0E47.alt1
Encoding: 63250 63250 358
Width: 0
Flags: W
Fore
-131 603 m 1,0,-1
 -161 573 l 1,1,-1
 -132 544 l 1,2,-1
 -132 491 l 1,3,-1
 -169 455 l 1,4,-1
 -276 455 l 1,5,-1
 -294 472 l 1,6,-1
 -311 455 l 1,7,-1
 -366 455 l 1,8,-1
 -366 553 l 1,9,-1
 -312 607 l 1,10,-1
 -191 607 l 1,11,-1
 -163 635 l 1,12,-1
 -131 603 l 1,0,-1
-294 536 m 1,13,-1
 -258 500 l 1,14,-1
 -258 544 l 1,15,-1
 -239 562 l 1,16,-1
 -293 562 l 1,17,-1
 -321 535 l 1,18,-1
 -321 509 l 1,19,-1
 -294 536 l 1,13,-1
-177 510 m 1,20,-1
 -177 525 l 1,21,-1
 -187 536 l 1,22,-1
 -202 536 l 1,23,-1
 -213 525 l 1,24,-1
 -213 510 l 1,25,-1
 -202 500 l 1,26,-1
 -187 500 l 1,27,-1
 -177 510 l 1,20,-1
EndSplineSet
EndChar
StartChar: uni0E48.alt3
Encoding: 63251 63251 359
Width: 0
Flags: W
Fore
-176 640 m 1,0,-1
 -176 802 l 1,1,-1
 -131 802 l 1,2,-1
 -131 640 l 1,3,-1
 -176 640 l 1,0,-1
EndSplineSet
EndChar
StartChar: uni0E49.alt3
Encoding: 63252 63252 360
Width: 0
Flags: W
Fore
-75 765 m 1,0,-1
 -44 733 l 1,1,-1
 -138 639 l 1,2,-1
 -291 639 l 1,3,-1
 -291 684 l 1,4,-1
 -263 684 l 1,5,-1
 -291 712 l 1,6,-1
 -291 764 l 1,7,-1
 -254 801 l 1,8,-1
 -202 801 l 1,9,-1
 -165 764 l 1,10,-1
 -165 712 l 1,11,-1
 -193 684 l 1,12,-1
 -157 684 l 1,13,-1
 -75 765 l 1,0,-1
-246 745 m 1,14,-1
 -246 730 l 1,15,-1
 -235 720 l 1,16,-1
 -221 720 l 1,17,-1
 -210 730 l 1,18,-1
 -210 745 l 1,19,-1
 -221 756 l 1,20,-1
 -235 756 l 1,21,-1
 -246 745 l 1,14,-1
EndSplineSet
EndChar
StartChar: uni0E4A.alt3
Encoding: 63253 63253 361
Width: 0
Flags: W
Fore
-41 773 m 1,0,-1
 -12 744 l 1,1,-1
 -116 641 l 1,2,-1
 -145 670 l 1,3,-1
 -117 698 l 1,4,-1
 -133 715 l 1,5,-1
 -198 650 l 1,6,-1
 -250 650 l 1,7,-1
 -287 687 l 1,8,-1
 -287 739 l 1,9,-1
 -250 776 l 1,10,-1
 -198 776 l 1,11,-1
 -167 744 l 1,12,-1
 -136 775 l 1,13,-1
 -88 727 l 1,14,-1
 -41 773 l 1,0,-1
-242 705 m 1,15,-1
 -232 695 l 1,16,-1
 -217 695 l 1,17,-1
 -206 705 l 1,18,-1
 -206 720 l 1,19,-1
 -217 731 l 1,20,-1
 -232 731 l 1,21,-1
 -242 720 l 1,22,-1
 -242 705 l 1,15,-1
EndSplineSet
EndChar
StartChar: uni0E4B.alt3
Encoding: 63254 63254 362
Width: 0
Flags: W
Fore
-89 734 m 1,0,-1
 -89 689 l 1,1,-1
 -138 689 l 1,2,-1
 -138 640 l 1,3,-1
 -183 640 l 1,4,-1
 -183 689 l 1,5,-1
 -233 689 l 1,6,-1
 -233 734 l 1,7,-1
 -183 734 l 1,8,-1
 -183 784 l 1,9,-1
 -138 784 l 1,10,-1
 -138 734 l 1,11,-1
 -89 734 l 1,0,-1
EndSplineSet
EndChar
StartChar: uni0E4C.alt3
Encoding: 63255 63255 363
Width: 0
Flags: W
Fore
-116 758 m 1,0,-1
 -163 712 l 1,1,-1
 -132 681 l 1,2,-1
 -132 629 l 1,3,-1
 -169 592 l 1,4,-1
 -221 592 l 1,5,-1
 -258 629 l 1,6,-1
 -258 681 l 1,7,-1
 -148 790 l 1,8,-1
 -116 758 l 1,0,-1
-187 673 m 1,9,-1
 -202 673 l 1,10,-1
 -213 662 l 1,11,-1
 -213 647 l 1,12,-1
 -202 637 l 1,13,-1
 -187 637 l 1,14,-1
 -177 647 l 1,15,-1
 -177 662 l 1,16,-1
 -187 673 l 1,9,-1
EndSplineSet
EndChar
StartChar: uni0E38.alt1
Encoding: 63256 63256 364
Width: 0
Flags: W
Fore
-89 -215 m 1,0,-1
 -52 -252 l 1,1,-1
 -52 -413 l 1,2,-1
 -106 -413 l 1,3,-1
 -106 -341 l 1,4,-1
 -141 -341 l 1,5,-1
 -178 -305 l 1,6,-1
 -178 -252 l 1,7,-1
 -141 -215 l 1,8,-1
 -89 -215 l 1,0,-1
-123 -296 m 1,9,-1
 -108 -296 l 1,10,-1
 -97 -286 l 1,11,-1
 -97 -271 l 1,12,-1
 -108 -260 l 1,13,-1
 -123 -260 l 1,14,-1
 -133 -271 l 1,15,-1
 -133 -286 l 1,16,-1
 -123 -296 l 1,9,-1
EndSplineSet
EndChar
StartChar: uni0E39.alt1
Encoding: 63257 63257 365
Width: 0
Flags: W
Fore
-107 -215 m 1,0,-1
 -53 -215 l 1,1,-1
 -53 -413 l 1,2,-1
 -197 -413 l 1,3,-1
 -197 -341 l 1,4,-1
 -232 -341 l 1,5,-1
 -268 -304 l 1,6,-1
 -268 -252 l 1,7,-1
 -232 -215 l 1,8,-1
 -179 -215 l 1,9,-1
 -143 -252 l 1,10,-1
 -143 -359 l 1,11,-1
 -107 -359 l 1,12,-1
 -107 -215 l 1,0,-1
-213 -296 m 1,13,-1
 -198 -296 l 1,14,-1
 -188 -286 l 1,15,-1
 -188 -271 l 1,16,-1
 -198 -260 l 1,17,-1
 -213 -260 l 1,18,-1
 -224 -271 l 1,19,-1
 -224 -286 l 1,20,-1
 -213 -296 l 1,13,-1
EndSplineSet
EndChar
StartChar: uni0E3A.alt1
Encoding: 63258 63258 366
Width: 0
Flags: W
Fore
-55 -243 m 1,0,-1
 -55 -280 l 1,1,-1
 -81 -306 l 1,2,-1
 -118 -306 l 1,3,-1
 -145 -280 l 1,4,-1
 -145 -243 l 1,5,-1
 -118 -216 l 1,6,-1
 -81 -216 l 1,7,-1
 -55 -243 l 1,0,-1
EndSplineSet
EndChar
StartChar: uni0E0E.alt1
Encoding: 63259 63259 367
Width: 456
Flags: W
Fore
349 396 m 1,0,-1
 403 342 l 1,1,-1
 403 -180 l 1,2,-1
 349 -180 l 1,3,-1
 312 -143 l 1,4,-1
 275 -180 l 1,5,-1
 139 -180 l 1,6,-1
 97 -138 l 1,7,-1
 97 -78 l 1,8,-1
 139 -36 l 1,9,-1
 275 -36 l 1,10,-1
 349 -110 l 1,11,-1
 349 320 l 1,12,-1
 327 342 l 1,13,-1
 156 342 l 1,14,-1
 214 284 l 1,15,-1
 151 221 l 1,16,-1
 151 42 l 1,17,-1
 109 0 l 1,18,-1
 49 0 l 1,19,-1
 7 42 l 1,20,-1
 7 102 l 1,21,-1
 49 144 l 1,22,-1
 97 144 l 1,23,-1
 97 244 l 1,24,-1
 137 284 l 1,25,-1
 79 342 l 1,26,-1
 133 396 l 1,27,-1
 349 396 l 1,0,-1
106 61 m 1,28,-1
 106 83 l 1,29,-1
 90 99 l 1,30,-1
 68 99 l 1,31,-1
 52 83 l 1,32,-1
 52 61 l 1,33,-1
 68 45 l 1,34,-1
 90 45 l 1,35,-1
 106 61 l 1,28,-1
250 -126 m 1,36,-1
 268 -108 l 1,37,-1
 250 -90 l 1,38,-1
 161 -90 l 1,39,-1
 151 -100 l 1,40,-1
 151 -115 l 1,41,-1
 161 -126 l 1,42,-1
 250 -126 l 1,36,-1
EndSplineSet
EndChar
StartChar: uni0E0F.alt1
Encoding: 63260 63260 368
Width: 456
Flags: W
Fore
350 396 m 1,0,-1
 403 342 l 1,1,-1
 403 -180 l 1,2,-1
 349 -180 l 1,3,-1
 312 -142 l 1,4,-1
 274 -180 l 1,5,-1
 236 -143 l 1,6,-1
 199 -180 l 1,7,-1
 140 -180 l 1,8,-1
 98 -138 l 1,9,-1
 98 -78 l 1,10,-1
 140 -36 l 1,11,-1
 199 -36 l 1,12,-1
 274 -110 l 1,13,-1
 312 -72 l 1,14,-1
 349 -110 l 1,15,-1
 349 320 l 1,16,-1
 327 342 l 1,17,-1
 156 342 l 1,18,-1
 214 284 l 1,19,-1
 152 221 l 1,20,-1
 152 42 l 1,21,-1
 109 0 l 1,22,-1
 50 0 l 1,23,-1
 8 42 l 1,24,-1
 8 102 l 1,25,-1
 50 144 l 1,26,-1
 98 144 l 1,27,-1
 98 244 l 1,28,-1
 138 284 l 1,29,-1
 80 342 l 1,30,-1
 133 396 l 1,31,-1
 350 396 l 1,0,-1
106 61 m 1,32,-1
 106 83 l 1,33,-1
 91 99 l 1,34,-1
 68 99 l 1,35,-1
 53 83 l 1,36,-1
 53 61 l 1,37,-1
 68 45 l 1,38,-1
 91 45 l 1,39,-1
 106 61 l 1,32,-1
188 -115 m 1,40,-1
 188 -100 l 1,41,-1
 177 -90 l 1,42,-1
 162 -90 l 1,43,-1
 152 -100 l 1,44,-1
 152 -115 l 1,45,-1
 162 -126 l 1,46,-1
 177 -126 l 1,47,-1
 188 -115 l 1,40,-1
EndSplineSet
EndChar
StartChar: uni0E2C.alt1
Encoding: 63261 63261 369
Width: 457
Flags: W
Fore
404 311 m 1,0,-1
 404 0 l 1,1,-1
 350 0 l 1,2,-1
 251 158 l 1,3,-1
 152 0 l 1,4,-1
 98 0 l 1,5,-1
 98 251 l 1,6,-1
 50 251 l 1,7,-1
 8 294 l 1,8,-1
 8 353 l 1,9,-1
 50 395 l 1,10,-1
 110 395 l 1,11,-1
 152 353 l 1,12,-1
 152 93 l 1,13,-1
 251 251 l 1,14,-1
 350 93 l 1,15,-1
 350 269 l 1,16,-1
 302 269 l 1,17,-1
 260 311 l 1,18,-1
 260 371 l 1,19,-1
 302 413 l 1,20,-1
 361 413 l 1,21,-1
 398 376 l 1,22,-1
 436 413 l 1,23,-1
 471 379 l 1,24,-1
 404 311 l 1,0,-1
321 315 m 1,25,-1
 343 315 l 1,26,-1
 359 330 l 1,27,-1
 359 353 l 1,28,-1
 343 368 l 1,29,-1
 321 368 l 1,30,-1
 305 353 l 1,31,-1
 305 330 l 1,32,-1
 321 315 l 1,25,-1
69 297 m 1,33,-1
 91 297 l 1,34,-1
 107 312 l 1,35,-1
 107 335 l 1,36,-1
 91 350 l 1,37,-1
 69 350 l 1,38,-1
 53 335 l 1,39,-1
 53 312 l 1,40,-1
 69 297 l 1,33,-1
EndSplineSet
EndChar
StartChar: uni0E24.liga
Encoding: 63617 63617 371
Width: 639
Flags: W
Fore
531 395 m 1,0,-1
 585 342 l 1,1,-1
 585 -180 l 1,2,-1
 531 -180 l 1,3,-1
 531 319 l 1,4,-1
 509 341 l 1,5,-1
 373 341 l 1,6,-1
 351 319 l 1,7,-1
 351 -180 l 1,8,-1
 297 -180 l 1,9,-1
 297 319 l 1,10,-1
 275 341 l 1,11,-1
 104 341 l 1,12,-1
 162 283 l 1,13,-1
 99 221 l 1,14,-1
 99 143 l 1,15,-1
 147 143 l 1,16,-1
 189 101 l 1,17,-1
 189 42 l 1,18,-1
 147 0 l 1,19,-1
 87 0 l 1,20,-1
 45 42 l 1,21,-1
 45 243 l 1,22,-1
 86 283 l 1,23,-1
 27 342 l 1,24,-1
 81 395 l 1,25,-1
 297 395 l 1,26,-1
 324 368 l 1,27,-1
 351 395 l 1,28,-1
 531 395 l 1,0,-1
128 98 m 1,29,-1
 106 98 l 1,30,-1
 90 83 l 1,31,-1
 90 60 l 1,32,-1
 106 45 l 1,33,-1
 128 45 l 1,34,-1
 144 60 l 1,35,-1
 144 83 l 1,36,-1
 128 98 l 1,29,-1
EndSplineSet
Ligature: 0 0 'liga' uni0E24 uni0E45
Ligature: 0 0 'liga' uni0E24 uni0E32
EndChar
StartChar: uni0E26.liga
Encoding: 63618 63618 372
Width: 693
Flags: W
Fore
585 395 m 1,0,-1
 639 342 l 1,1,-1
 639 -180 l 1,2,-1
 585 -180 l 1,3,-1
 585 319 l 1,4,-1
 563 341 l 1,5,-1
 427 341 l 1,6,-1
 405 319 l 1,7,-1
 405 -180 l 1,8,-1
 351 -180 l 1,9,-1
 351 319 l 1,10,-1
 329 341 l 1,11,-1
 158 341 l 1,12,-1
 216 283 l 1,13,-1
 153 221 l 1,14,-1
 153 42 l 1,15,-1
 111 0 l 1,16,-1
 51 0 l 1,17,-1
 9 42 l 1,18,-1
 9 101 l 1,19,-1
 51 143 l 1,20,-1
 99 143 l 1,21,-1
 99 243 l 1,22,-1
 139 283 l 1,23,-1
 81 342 l 1,24,-1
 135 395 l 1,25,-1
 351 395 l 1,26,-1
 378 368 l 1,27,-1
 405 395 l 1,28,-1
 585 395 l 1,0,-1
108 60 m 1,29,-1
 108 83 l 1,30,-1
 92 98 l 1,31,-1
 70 98 l 1,32,-1
 54 83 l 1,33,-1
 54 60 l 1,34,-1
 70 45 l 1,35,-1
 92 45 l 1,36,-1
 108 60 l 1,29,-1
EndSplineSet
Ligature: 0 0 'liga' uni0E26 uni0E45
Ligature: 0 0 'liga' uni0E26 uni0E32
EndChar
StartChar: fi
Encoding: 64257 64257 373
Width: 260
Flags: W
Fore
80 279 m 1,0,-1
 206 279 l 1,1,-1
 206 0 l 1,2,-1
 152 0 l 1,3,-1
 152 225 l 1,4,-1
 80 225 l 1,5,-1
 80 0 l 1,6,-1
 26 0 l 1,7,-1
 26 378 l 1,8,-1
 80 431 l 1,9,-1
 170 431 l 1,10,-1
 170 377 l 1,11,-1
 102 377 l 1,12,-1
 80 355 l 1,13,-1
 80 279 l 1,0,-1
EndSplineSet
Ligature: 0 0 'liga' f i
EndChar
StartChar: fl
Encoding: 64258 64258 374
Width: 260
Flags: W
Fore
80 431 m 1,0,-1
 206 431 l 1,1,-1
 206 0 l 1,2,-1
 152 0 l 1,3,-1
 152 377 l 1,4,-1
 102 377 l 1,5,-1
 80 355 l 1,6,-1
 80 279 l 1,7,-1
 125 279 l 1,8,-1
 125 225 l 1,9,-1
 80 225 l 1,10,-1
 80 0 l 1,11,-1
 26 0 l 1,12,-1
 26 378 l 1,13,-1
 80 431 l 1,0,-1
EndSplineSet
Ligature: 0 0 'liga' f l
EndChar
StartChar: CHAKRA
Encoding: 65541 -1 375
Width: 1417
Flags: W
Fore
180 182 m 1,0,-1
 43 182 l 1,1,-1
 43 355 l 1,2,-1
 113 355 l 1,3,-1
 113 337 l 1,4,-1
 95 337 l 1,5,-1
 95 200 l 1,6,-1
 128 200 l 1,7,-1
 128 370 l 1,8,-1
 43 370 l 1,9,-1
 43 387 l 1,10,-1
 180 387 l 1,11,-1
 180 182 l 1,0,-1
230 430 m 1,12,-1
 230 415 l 1,13,-1
 128 415 l 1,14,-1
 128 447 l 1,15,-1
 180 447 l 1,16,-1
 180 430 l 1,17,-1
 230 430 l 1,12,-1
360 387 m 1,18,-1
 360 182 l 1,19,-1
 308 182 l 1,20,-1
 308 370 l 1,21,-1
 275 370 l 1,22,-1
 275 182 l 1,23,-1
 223 182 l 1,24,-1
 223 370 l 1,25,-1
 205 370 l 1,26,-1
 205 387 l 1,27,-1
 360 387 l 1,18,-1
540 327 m 1,28,-1
 540 182 l 1,29,-1
 403 182 l 1,30,-1
 403 370 l 1,31,-1
 385 370 l 1,32,-1
 385 387 l 1,33,-1
 455 387 l 1,34,-1
 455 200 l 1,35,-1
 488 200 l 1,36,-1
 488 327 l 1,37,-1
 470 327 l 1,38,-1
 470 345 l 1,39,-1
 488 345 l 1,40,-1
 488 387 l 1,41,-1
 540 387 l 1,42,-1
 540 345 l 1,43,-1
 558 345 l 1,44,-1
 558 327 l 1,45,-1
 540 327 l 1,28,-1
650 182 m 1,46,-1
 583 182 l 1,47,-1
 583 200 l 1,48,-1
 600 200 l 1,49,-1
 600 337 l 1,50,-1
 565 337 l 1,51,-1
 565 387 l 1,52,-1
 650 387 l 1,53,-1
 650 370 l 1,54,-1
 618 370 l 1,55,-1
 618 355 l 1,56,-1
 650 355 l 1,57,-1
 650 182 l 1,46,-1
883 422 m 1,58,-1
 883 182 l 1,59,-1
 763 182 l 1,60,-1
 748 337 l 1,61,-1
 728 337 l 1,62,-1
 728 200 l 1,63,-1
 745 200 l 1,64,-1
 745 182 l 1,65,-1
 678 182 l 1,66,-1
 678 355 l 1,67,-1
 798 355 l 1,68,-1
 813 200 l 1,69,-1
 830 200 l 1,70,-1
 830 370 l 1,71,-1
 678 370 l 1,72,-1
 678 387 l 1,73,-1
 830 387 l 1,74,-1
 830 422 l 1,75,-1
 883 422 l 1,58,-1
1070 182 m 1,76,-1
 1063 182 l 1,77,-1
 1063 175 l 1,78,-1
 1010 175 l 1,79,-1
 1010 182 l 1,80,-1
 925 182 l 1,81,-1
 925 370 l 1,82,-1
 908 370 l 1,83,-1
 908 387 l 1,84,-1
 978 387 l 1,85,-1
 978 200 l 1,86,-1
 1010 200 l 1,87,-1
 1010 387 l 1,88,-1
 1063 387 l 1,89,-1
 1063 200 l 1,90,-1
 1070 200 l 1,91,-1
 1070 182 l 1,76,-1
1173 387 m 1,92,-1
 1173 182 l 1,93,-1
 1123 182 l 1,94,-1
 1123 370 l 1,95,-1
 1088 370 l 1,96,-1
 1088 387 l 1,97,-1
 1173 387 l 1,92,-1
1363 182 m 1,98,-1
 1353 182 l 1,99,-1
 1353 175 l 1,100,-1
 1303 175 l 1,101,-1
 1303 182 l 1,102,-1
 1218 182 l 1,103,-1
 1218 370 l 1,104,-1
 1200 370 l 1,105,-1
 1200 387 l 1,106,-1
 1268 387 l 1,107,-1
 1268 200 l 1,108,-1
 1303 200 l 1,109,-1
 1303 387 l 1,110,-1
 1353 387 l 1,111,-1
 1353 200 l 1,112,-1
 1363 200 l 1,113,-1
 1363 182 l 1,98,-1
510 135 m 1,114,-1
 510 0 l 1,115,-1
 475 0 l 1,116,-1
 475 125 l 1,117,-1
 453 125 l 1,118,-1
 453 0 l 1,119,-1
 418 0 l 1,120,-1
 418 125 l 1,121,-1
 408 125 l 1,122,-1
 408 135 l 1,123,-1
 510 135 l 1,114,-1
585 0 m 1,124,-1
 538 0 l 1,125,-1
 538 10 l 1,126,-1
 550 10 l 1,127,-1
 550 102 l 1,128,-1
 528 102 l 1,129,-1
 528 135 l 1,130,-1
 585 135 l 1,131,-1
 585 125 l 1,132,-1
 563 125 l 1,133,-1
 563 112 l 1,134,-1
 585 112 l 1,135,-1
 585 0 l 1,124,-1
658 135 m 1,136,-1
 658 0 l 1,137,-1
 625 0 l 1,138,-1
 625 125 l 1,139,-1
 603 125 l 1,140,-1
 603 135 l 1,141,-1
 658 135 l 1,136,-1
875 157 m 1,142,-1
 875 0 l 1,143,-1
 795 0 l 1,144,-1
 785 125 l 1,145,-1
 778 125 l 1,146,-1
 768 0 l 1,147,-1
 688 0 l 1,148,-1
 688 125 l 1,149,-1
 675 125 l 1,150,-1
 675 135 l 1,151,-1
 720 135 l 1,152,-1
 720 10 l 1,153,-1
 733 10 l 1,154,-1
 743 135 l 1,155,-1
 818 135 l 1,156,-1
 828 10 l 1,157,-1
 840 10 l 1,158,-1
 840 157 l 1,159,-1
 875 157 l 1,142,-1
728 152 m 1,160,-1
 728 165 l 1,161,-1
 830 165 l 1,162,-1
 830 152 l 1,163,-1
 728 152 l 1,160,-1
995 135 m 1,164,-1
 995 0 l 1,165,-1
 960 0 l 1,166,-1
 960 125 l 1,167,-1
 938 125 l 1,168,-1
 938 0 l 1,169,-1
 903 0 l 1,170,-1
 903 125 l 1,171,-1
 893 125 l 1,172,-1
 893 135 l 1,173,-1
 995 135 l 1,164,-1
EndSplineSet
Ligature: 0 0 'liga' C H A K R A D e i g n parenleft c parenright
EndChar
StartChar: uni1EDA
Encoding: 7898 7898 435
Width: 404
Flags: W
Fore
366 468 m 1,0,-1
 312 468 l 1,1,-1
 312 431 l 1,2,-1
 305 424 l 1,3,-1
 297 432 l 1,4,-1
 81 432 l 1,5,-1
 27 378 l 1,6,-1
 27 54 l 1,7,-1
 81 0 l 1,8,-1
 297 0 l 1,9,-1
 351 54 l 1,10,-1
 351 378 l 1,11,-1
 343 386 l 1,12,-1
 366 409 l 1,13,-1
 366 468 l 1,14,-1
 366 468 l 1,0,-1
297 76 m 1,15,-1
 275 54 l 1,16,-1
 103 54 l 1,17,-1
 81 77 l 1,18,-1
 81 356 l 1,19,-1
 103 378 l 1,20,-1
 274 378 l 1,21,-1
 297 356 l 1,22,-1
 297 76 l 1,23,-1
 297 76 l 1,15,-1
141 472 m 1,24,-1
 122 491 l 1,25,-1
 211 580 l 1,26,-1
 249 542 l 1,27,-1
 141 472 l 1,28,-1
 141 472 l 1,24,-1
EndSplineSet
Ligature: 0 0 'liga' Ohorn acutecomb
EndChar
StartChar: uni1EDC
Encoding: 7900 7900 437
Width: 404
Flags: W
Fore
366 468 m 1,0,-1
 366 409 l 1,1,-1
 343 386 l 1,2,-1
 351 378 l 1,3,-1
 351 54 l 1,4,-1
 297 0 l 1,5,-1
 81 0 l 1,6,-1
 27 54 l 1,7,-1
 27 378 l 1,8,-1
 81 432 l 1,9,-1
 297 432 l 1,10,-1
 305 424 l 1,11,-1
 312 431 l 1,12,-1
 312 468 l 1,13,-1
 366 468 l 1,0,-1
297 76 m 1,14,-1
 297 356 l 1,15,-1
 274 378 l 1,16,-1
 103 378 l 1,17,-1
 81 356 l 1,18,-1
 81 77 l 1,19,-1
 103 54 l 1,20,-1
 275 54 l 1,21,-1
 297 76 l 1,14,-1
230 472 m 1,22,-1
 122 542 l 1,23,-1
 160 580 l 1,24,-1
 249 491 l 1,25,-1
 230 472 l 1,22,-1
EndSplineSet
Ligature: 0 0 'liga' Ohorn gravecomb
EndChar
StartChar: uni1EDE
Encoding: 7902 7902 439
Width: 404
Flags: W
Fore
366 468 m 1,0,-1
 366 409 l 1,1,-1
 343 386 l 1,2,-1
 351 378 l 1,3,-1
 351 54 l 1,4,-1
 297 0 l 1,5,-1
 81 0 l 1,6,-1
 27 54 l 1,7,-1
 27 378 l 1,8,-1
 81 432 l 1,9,-1
 297 432 l 1,10,-1
 305 424 l 1,11,-1
 312 431 l 1,12,-1
 312 468 l 1,13,-1
 366 468 l 1,0,-1
297 76 m 1,14,-1
 297 356 l 1,15,-1
 274 378 l 1,16,-1
 103 378 l 1,17,-1
 81 356 l 1,18,-1
 81 77 l 1,19,-1
 103 54 l 1,20,-1
 275 54 l 1,21,-1
 297 76 l 1,14,-1
212 580 m 1,22,-1
 236 552 l 1,23,-1
 236 514 l 1,24,-1
 185 472 l 1,25,-1
 164 483 l 1,26,-1
 200 529 l 1,27,-1
 200 541 l 1,28,-1
 197 544 l 1,29,-1
 183 544 l 1,30,-1
 148 520 l 1,31,-1
 125 533 l 1,32,-1
 166 580 l 1,33,-1
 212 580 l 1,22,-1
EndSplineSet
Ligature: 0 0 'liga' Ohorn hookabovecomb
EndChar
StartChar: uni1EE2
Encoding: 7906 7906 443
Width: 404
Flags: W
Fore
366 468 m 1,0,-1
 366 409 l 1,1,-1
 343 386 l 1,2,-1
 351 378 l 1,3,-1
 351 54 l 1,4,-1
 297 0 l 1,5,-1
 81 0 l 1,6,-1
 27 54 l 1,7,-1
 27 378 l 1,8,-1
 81 432 l 1,9,-1
 297 432 l 1,10,-1
 305 424 l 1,11,-1
 312 431 l 1,12,-1
 312 468 l 1,13,-1
 366 468 l 1,0,-1
297 76 m 1,14,-1
 297 356 l 1,15,-1
 274 378 l 1,16,-1
 103 378 l 1,17,-1
 81 356 l 1,18,-1
 81 77 l 1,19,-1
 103 54 l 1,20,-1
 275 54 l 1,21,-1
 297 76 l 1,14,-1
226 -59 m 1,22,-1
 226 -93 l 1,23,-1
 202 -116 l 1,24,-1
 169 -116 l 1,25,-1
 145 -93 l 1,26,-1
 145 -59 l 1,27,-1
 169 -36 l 1,28,-1
 202 -36 l 1,29,-1
 226 -59 l 1,22,-1
EndSplineSet
Ligature: 0 0 'liga' Ohorn dotbelowcomb
EndChar
StartChar: franc
Encoding: 8355 8355 467
Width: 364
Flags: W
Fore
99 377 m 1,0,-1
 77 355 l 1,1,-1
 77 243 l 1,2,-1
 292 243 l 1,3,-1
 292 189 l 1,4,-1
 77 189 l 1,5,-1
 77 135 l 1,6,-1
 176 135 l 1,7,-1
 176 81 l 1,8,-1
 77 81 l 1,9,-1
 77 0 l 1,10,-1
 23 0 l 1,11,-1
 23 81 l 1,12,-1
 -4 81 l 1,13,-1
 -4 135 l 1,14,-1
 23 135 l 1,15,-1
 23 378 l 1,16,-1
 77 431 l 1,17,-1
 310 431 l 1,18,-1
 310 377 l 1,19,-1
 99 377 l 1,0,-1
EndSplineSet
EndChar
StartChar: dong
Encoding: 8363 8363 468
Width: 386
Flags: W
Fore
331 395 m 1,0,-1
 358 395 l 1,1,-1
 358 341 l 1,2,-1
 331 341 l 1,3,-1
 331 54 l 1,4,-1
 277 0 l 1,5,-1
 79 0 l 1,6,-1
 25 53 l 1,7,-1
 26 252 l 1,8,-1
 80 306 l 1,9,-1
 223 306 l 1,10,-1
 223 305 l 1,11,-1
 277 251 l 1,12,-1
 277 341 l 1,13,-1
 232 341 l 1,14,-1
 232 395 l 1,15,-1
 277 395 l 1,16,-1
 277 431 l 1,17,-1
 331 431 l 1,18,-1
 331 395 l 1,0,-1
277 76 m 1,19,-1
 277 181 l 1,20,-1
 207 252 l 1,21,-1
 102 252 l 1,22,-1
 80 229 l 1,23,-1
 79 76 l 1,24,-1
 102 54 l 1,25,-1
 255 54 l 1,26,-1
 277 76 l 1,19,-1
26 -84 m 1,27,-1
 26 -30 l 1,28,-1
 322 -30 l 1,29,-1
 322 -84 l 1,30,-1
 26 -84 l 1,27,-1
EndSplineSet
EndChar
StartChar: Dcroat
Encoding: 272 272 475
Width: 413
Flags: W
Fore
306 431 m 1,0,-1
 360 378 l 1,1,-1
 360 54 l 1,2,-1
 306 0 l 1,3,-1
 54 0 l 1,4,-1
 54 189 l 1,5,-1
 27 189 l 1,6,-1
 27 243 l 1,7,-1
 54 243 l 1,8,-1
 54 431 l 1,9,-1
 306 431 l 1,0,-1
306 76 m 1,10,-1
 306 355 l 1,11,-1
 283 377 l 1,12,-1
 108 377 l 1,13,-1
 108 243 l 1,14,-1
 225 243 l 1,15,-1
 225 189 l 1,16,-1
 108 189 l 1,17,-1
 108 54 l 1,18,-1
 283 54 l 1,19,-1
 306 76 l 1,10,-1
EndSplineSet
EndChar
StartChar: dcroat
Encoding: 273 273 476
Width: 386
Flags: W
Fore
331 395 m 1,0,-1
 358 395 l 1,1,-1
 358 341 l 1,2,-1
 331 341 l 1,3,-1
 331 54 l 1,4,-1
 277 0 l 1,5,-1
 79 0 l 1,6,-1
 25 53 l 1,7,-1
 26 252 l 1,8,-1
 80 306 l 1,9,-1
 223 306 l 1,10,-1
 223 305 l 1,11,-1
 277 251 l 1,12,-1
 277 341 l 1,13,-1
 232 341 l 1,14,-1
 232 395 l 1,15,-1
 277 395 l 1,16,-1
 277 431 l 1,17,-1
 331 431 l 1,18,-1
 331 395 l 1,0,-1
277 76 m 1,19,-1
 277 181 l 1,20,-1
 207 252 l 1,21,-1
 102 252 l 1,22,-1
 80 229 l 1,23,-1
 79 76 l 1,24,-1
 102 54 l 1,25,-1
 255 54 l 1,26,-1
 277 76 l 1,19,-1
EndSplineSet
EndChar
StartChar: Idotaccent
Encoding: 304 304 481
Width: 134
Flags: W
Fore
80 0 m 1,0,-1
 26 0 l 1,1,-1
 26 432 l 1,2,-1
 80 432 l 1,3,-1
 80 0 l 1,4,-1
 80 0 l 1,0,-1
94 529 m 1,5,-1
 94 495 l 1,6,-1
 71 472 l 1,7,-1
 37 472 l 1,8,-1
 13 495 l 1,9,-1
 13 529 l 1,10,-1
 37 553 l 1,11,-1
 71 553 l 1,12,-1
 94 529 l 1,5,-1
EndSplineSet
EndChar
StartChar: dotlessi
Encoding: 305 305 482
Width: 137
Flags: W
Fore
30 0 m 1,0,-1
 30 306 l 1,1,-1
 83 306 l 1,2,-1
 83 0 l 1,3,-1
 30 0 l 1,4,-1
 30 0 l 1,0,-1
EndSplineSet
EndChar
StartChar: Scedilla
Encoding: 350 350 483
Width: 386
Flags: W
Fore
233 -75 m 1,0,-1
 233 -131 l 1,1,-1
 194 -170 l 1,2,-1
 125 -170 l 1,3,-1
 125 -126 l 1,4,-1
 175 -126 l 1,5,-1
 189 -113 l 1,6,-1
 189 -94 l 1,7,-1
 175 -81 l 1,8,-1
 125 -81 l 1,9,-1
 125 -53 l 1,10,-1
 173 0 l 1,11,-1
 89 0 l 1,12,-1
 35 54 l 1,13,-1
 35 99 l 1,14,-1
 89 99 l 1,15,-1
 89 76 l 1,16,-1
 111 54 l 1,17,-1
 256 54 l 1,18,-1
 278 76 l 1,19,-1
 278 184 l 1,20,-1
 256 207 l 1,21,-1
 80 207 l 1,22,-1
 26 260 l 1,23,-1
 26 378 l 1,24,-1
 80 431 l 1,25,-1
 269 431 l 1,26,-1
 323 377 l 1,27,-1
 323 332 l 1,28,-1
 269 332 l 1,29,-1
 269 355 l 1,30,-1
 247 377 l 1,31,-1
 102 377 l 1,32,-1
 80 355 l 1,33,-1
 80 283 l 1,34,-1
 102 261 l 1,35,-1
 278 261 l 1,36,-1
 332 207 l 1,37,-1
 332 53 l 1,38,-1
 278 0 l 1,39,-1
 212 0 l 1,40,-1
 194 -36 l 1,41,-1
 233 -75 l 1,0,-1
EndSplineSet
EndChar
StartChar: scedilla
Encoding: 351 351 484
Width: 385
Flags: W
Fore
233 -68 m 1,0,-1
 233 -124 l 1,1,-1
 194 -163 l 1,2,-1
 125 -163 l 1,3,-1
 125 -119 l 1,4,-1
 175 -119 l 1,5,-1
 189 -106 l 1,6,-1
 189 -87 l 1,7,-1
 175 -74 l 1,8,-1
 125 -74 l 1,9,-1
 125 -46 l 1,10,-1
 167 0 l 1,11,-1
 90 0 l 1,12,-1
 36 54 l 1,13,-1
 36 99 l 1,14,-1
 90 99 l 1,15,-1
 90 76 l 1,16,-1
 112 54 l 1,17,-1
 256 54 l 1,18,-1
 278 76 l 1,19,-1
 278 103 l 1,20,-1
 256 126 l 1,21,-1
 81 126 l 1,22,-1
 27 179 l 1,23,-1
 27 252 l 1,24,-1
 80 305 l 1,25,-1
 270 305 l 1,26,-1
 323 252 l 1,27,-1
 323 206 l 1,28,-1
 269 206 l 1,29,-1
 269 229 l 1,30,-1
 247 251 l 1,31,-1
 103 251 l 1,32,-1
 81 229 l 1,33,-1
 81 202 l 1,34,-1
 103 180 l 1,35,-1
 279 180 l 1,36,-1
 332 126 l 1,37,-1
 332 53 l 1,38,-1
 279 0 l 1,39,-1
 208 0 l 1,40,-1
 194 -29 l 1,41,-1
 233 -68 l 1,0,-1
EndSplineSet
EndChar
StartChar: Ohorn
Encoding: 416 416 487
Width: 404
Flags: W
Fore
296 76 m 1,0,-1
 296 356 l 1,1,-1
 273 378 l 1,2,-1
 102 378 l 1,3,-1
 80 356 l 1,4,-1
 80 77 l 1,5,-1
 102 54 l 1,6,-1
 274 54 l 1,7,-1
 296 76 l 1,0,-1
366 468 m 1,8,-1
 366 409 l 1,9,-1
 343 386 l 1,10,-1
 351 378 l 1,11,-1
 351 54 l 1,12,-1
 297 0 l 1,13,-1
 81 0 l 1,14,-1
 27 54 l 1,15,-1
 27 378 l 1,16,-1
 81 432 l 1,17,-1
 297 432 l 1,18,-1
 305 424 l 1,19,-1
 312 431 l 1,20,-1
 312 468 l 1,21,-1
 366 468 l 1,8,-1
EndSplineSet
EndChar
StartChar: ohorn
Encoding: 417 417 488
Width: 403
Flags: W
Fore
296 77 m 1,0,-1
 296 231 l 1,1,-1
 274 253 l 1,2,-1
 102 253 l 1,3,-1
 80 231 l 1,4,-1
 80 78 l 1,5,-1
 102 55 l 1,6,-1
 274 55 l 1,7,-1
 296 77 l 1,0,-1
363 342 m 1,8,-1
 363 283 l 1,9,-1
 341 261 l 1,10,-1
 350 252 l 1,11,-1
 350 54 l 1,12,-1
 296 0 l 1,13,-1
 80 0 l 1,14,-1
 26 54 l 1,15,-1
 26 253 l 1,16,-1
 80 306 l 1,17,-1
 296 306 l 1,18,-1
 303 299 l 1,19,-1
 310 305 l 1,20,-1
 310 342 l 1,21,-1
 363 342 l 1,8,-1
EndSplineSet
EndChar
StartChar: Uhorn
Encoding: 431 431 489
Width: 460
Flags: W
Fore
371 468 m 1,0,-1
 422 468 l 1,1,-1
 422 388 l 1,2,-1
 366 333 l 1,3,-1
 331 333 l 1,4,-1
 331 54 l 1,5,-1
 277 0 l 1,6,-1
 79 0 l 1,7,-1
 25 54 l 1,8,-1
 25 432 l 1,9,-1
 79 432 l 1,10,-1
 79 77 l 1,11,-1
 102 54 l 1,12,-1
 255 54 l 1,13,-1
 277 76 l 1,14,-1
 277 432 l 1,15,-1
 331 432 l 1,16,-1
 331 384 l 1,17,-1
 345 384 l 1,18,-1
 371 409 l 1,19,-1
 371 468 l 1,0,-1
EndSplineSet
EndChar
StartChar: uhorn
Encoding: 432 432 490
Width: 438
Flags: W
Fore
352 341 m 1,0,-1
 403 341 l 1,1,-1
 403 262 l 1,2,-1
 347 206 l 1,3,-1
 314 206 l 1,4,-1
 314 0 l 1,5,-1
 260 0 l 1,6,-1
 260 54 l 1,7,-1
 206 0 l 1,8,-1
 80 0 l 1,9,-1
 26 54 l 1,10,-1
 26 306 l 1,11,-1
 80 306 l 1,12,-1
 80 76 l 1,13,-1
 102 54 l 1,14,-1
 189 54 l 1,15,-1
 260 124 l 1,16,-1
 260 306 l 1,17,-1
 314 306 l 1,18,-1
 314 257 l 1,19,-1
 326 257 l 1,20,-1
 352 283 l 1,21,-1
 352 341 l 1,0,-1
EndSplineSet
EndChar
StartChar: hookabovecomb
Encoding: 777 777 491
Width: 208
Flags: W
Fore
122 563 m 1,0,-1
 146 535 l 1,1,-1
 146 497 l 1,2,-1
 95 455 l 1,3,-1
 74 466 l 1,4,-1
 110 512 l 1,5,-1
 110 524 l 1,6,-1
 107 527 l 1,7,-1
 93 527 l 1,8,-1
 58 503 l 1,9,-1
 35 516 l 1,10,-1
 76 563 l 1,11,-1
 122 563 l 1,12,-1
 122 563 l 1,0,-1
EndSplineSet
EndChar
StartChar: tildecomb
Encoding: 771 771 492
Width: 287
Flags: W
Fore
208 546 m 1,0,-1
 225 527 l 1,1,-1
 156 469 l 1,2,-1
 102 500 l 1,3,-1
 53 476 l 1,4,-1
 36 495 l 1,5,-1
 103 552 l 1,6,-1
 156 521 l 1,7,-1
 208 546 l 1,8,-1
 208 546 l 1,0,-1
EndSplineSet
EndChar
StartChar: acutecomb
Encoding: 769 769 493
Width: 224
Flags: W
Fore
54 455 m 1,0,-1
 35 474 l 1,1,-1
 124 563 l 1,2,-1
 162 525 l 1,3,-1
 54 455 l 1,4,-1
 54 455 l 1,0,-1
EndSplineSet
EndChar
StartChar: dotbelowcomb
Encoding: 803 803 494
Width: 178
Flags: W
Fore
116 -59 m 1,0,-1
 116 -93 l 1,1,-1
 92 -116 l 1,2,-1
 59 -116 l 1,3,-1
 35 -93 l 1,4,-1
 35 -59 l 1,5,-1
 59 -36 l 1,6,-1
 92 -36 l 1,7,-1
 116 -59 l 1,8,-1
 116 -59 l 1,0,-1
EndSplineSet
EndChar
StartChar: gravecomb
Encoding: 768 768 495
Width: 225
Flags: W
Fore
144 455 m 1,0,-1
 36 525 l 1,1,-1
 74 563 l 1,2,-1
 163 474 l 1,3,-1
 144 455 l 1,4,-1
 144 455 l 1,0,-1
EndSplineSet
EndChar
